<?xml version="1.0" encoding="utf-8"?>
<!-- Generator: Adobe Illustrator 25.3.0, SVG Export Plug-In . SVG Version: 6.00 Build 0)  -->
<svg version="1.0" xmlns="http://www.w3.org/2000/svg" xmlns:xlink="http://www.w3.org/1999/xlink" x="0px" y="0px"
	 viewBox="0 0 133.2283478 76.5354309" style="enable-background:new 0 0 133.2283478 76.5354309;" xml:space="preserve">
<style type="text/css">
	.st0{fill:#D70F3C;}
	.st1{fill:#002D58;}
	.st2{display:none;}
	.st3{display:inline;opacity:0;fill:#C2C7D9;}
</style>
<g id="Klammer">
	<g>
		<g>
			<polygon class="st0" points="7.26758,17.313303 4.26758,17.313303 4.26758,4.2517796 17.3291035,4.2517796 17.3291035,7.2517796
				7.26758,7.2517796 			"/>
		</g>
	</g>
</g>
<g id="DE">
	<g>
		<path class="st1" d="M21.0626526,28.3802223v2.6435547h-6.4423819v3.4433594h5.7763662v2.6220703h-5.7763662v3.9980469h6.4423819
			v2.6220703h-9.5527334V28.3802223H21.0626526z"/>
		<path class="st1" d="M31.6407776,32.3567848c-0.6660156-1.0449219-1.4658203-1.5556641-3.0214844-1.5556641
			c-1.3994141,0-2.1542969,0.6445312-2.1542969,1.6884766c0,1.2001953,0.9765625,1.7333984,3.0214844,2.2441406
			c3.1992188,0.7998047,4.6425781,2,4.6425781,4.7099609c0,2.5107422-1.6884766,4.4658203-5.2871094,4.4658203
			c-2.6884766,0-4.5546875-0.7333984-5.9101562-2.5107422l2.3769531-1.6435547
			c0.8222656,1.0214844,1.7558594,1.5322266,3.3330078,1.5322266c1.7773438,0,2.3769531-0.7773438,2.3769531-1.7099609
			c0-1.0664062-0.6435547-1.6669922-3.1318359-2.3105469c-3.0214844-0.8007812-4.5332031-2.2441406-4.5332031-4.7773438
			c0-2.421875,1.5996094-4.3095703,5.2441406-4.3095703c2.4433594,0,4.2871094,0.8212891,5.3759766,2.5107422L31.6407776,32.3567848
			z"/>
		<path class="st1" d="M44.8634338,32.3567848c-0.6660156-1.0449219-1.4658203-1.5556641-3.0214844-1.5556641
			c-1.3994141,0-2.1542969,0.6445312-2.1542969,1.6884766c0,1.2001953,0.9765625,1.7333984,3.0214844,2.2441406
			c3.1992188,0.7998047,4.6425781,2,4.6425781,4.7099609c0,2.5107422-1.6884766,4.4658203-5.2871094,4.4658203
			c-2.6884766,0-4.5546875-0.7333984-5.9101562-2.5107422l2.3769531-1.6435547
			c0.8222656,1.0214844,1.7558594,1.5322266,3.3330078,1.5322266c1.7773438,0,2.3769531-0.7773438,2.3769531-1.7099609
			c0-1.0664062-0.6435547-1.6669922-3.1318359-2.3105469c-3.0214844-0.8007812-4.5332031-2.2441406-4.5332031-4.7773438
			c0-2.421875,1.5996094-4.3095703,5.2441406-4.3095703c2.4433594,0,4.2871094,0.8212891,5.3759766,2.5107422L44.8634338,32.3567848
			z"/>
		<path class="st1" d="M53.2208557,41.0872536h6.4433594v2.6220703h-9.5537109V28.3802223h3.1103516V41.0872536z"/>
		<path class="st1" d="M65.0880432,43.7093239h-3.1113281V28.3802223h3.1113281V43.7093239z"/>
		<path class="st1" d="M80.3077698,28.3802223v15.3291016H77.709137l-5.9765625-9.4863281v9.4863281h-2.9550781V28.3802223
			h2.5771484l5.9990234,9.6191406v-9.6191406H80.3077698z"/>
		<path class="st1" d="M94.8419495,35.7337379v1.3994141c0,4.6875-2.1777344,6.7763672-5.6435547,6.7763672
			c-3.4433594,0-5.8652344-2.0888672-5.8652344-6.7763672v-1.9550781c0-4.9541016,2.421875-6.9980469,5.8652344-6.9980469
			c3.2216797,0,5.1542969,1.8212891,5.6210938,4.9541016h-2.9775391c-0.265625-1.3994141-1.0878906-2.3330078-2.6435547-2.3330078
			c-1.7998047,0-2.7548828,1.2216797-2.7548828,4.1552734v2.1767578c0,2.9326172,0.9550781,4.1542969,2.7548828,4.1542969
			c1.7548828,0,2.4658203-1.0888672,2.6435547-2.9326172h-2.5761719v-2.6210938H94.8419495z"/>
		<path class="st1" d="M107.3985901,28.3802223v2.6435547h-6.4433594v3.4433594h5.7763672v2.6220703h-5.7763672v3.9980469h6.4433594
			v2.6220703h-9.5537109V28.3802223H107.3985901z"/>
		<path class="st1" d="M121.530426,28.3802223v15.3291016h-2.5986328l-5.9765625-9.4863281v9.4863281h-2.9550781V28.3802223
			h2.5771484l5.9990234,9.6191406v-9.6191406H121.530426z"/>
	</g>
	<g>
		<polygon class="st1" points="18.8373108,17.1084518 12.5804758,17.1084518 12.5804758,11.5283737 11.5189524,11.5283737
			11.5189524,24.1523972 12.5804758,24.1523972 12.5804758,18.0967331 18.8373108,18.0967331 18.8373108,24.1523972
			19.8978577,24.1523972 19.8978577,11.5283737 18.8373108,11.5283737 		"/>
		<path class="st1" d="M27.1858711,11.4189987c-2.7070312,0-4.4824219,1.7011719-4.4824219,5.671875v1.5
			c0,3.9882812,1.7753906,5.6708984,4.4824219,5.6708984c2.7080078,0,4.4824219-1.6826172,4.4824219-5.6708984v-1.5
			C31.668293,13.1201706,29.8938789,11.4189987,27.1858711,11.4189987z M30.6077461,18.5908737
			c0,3.4208984-1.3544922,4.6835938-3.421875,4.6835938s-3.4208984-1.2626953-3.4208984-4.6835938v-1.5
			c0-3.4033203,1.3535156-4.6835938,3.4208984-4.6835938s3.421875,1.2802734,3.421875,4.6835938V18.5908737z"/>
		<path class="st1" d="M38.9563065,12.40728c1.7197266,0,2.9824219,0.8046875,3.4033203,2.9453125h1.0429688
			c-0.4023438-2.7626953-2.1953125-3.9335938-4.4462891-3.9335938c-2.7441406,0-4.4824219,1.5917969-4.4824219,5.671875v1.5
			c0,4.0800781,1.7382812,5.6708984,4.4824219,5.6708984c2.1591797,0,4.0253906-1.1337891,4.4277344-3.9697266h-1.0244141
			c-0.4023438,2.0126953-1.5732422,2.9824219-3.4033203,2.9824219c-2.140625,0-3.4208984-1.2255859-3.4208984-4.6835938v-1.5
			C35.535408,13.650444,36.7981033,12.40728,38.9563065,12.40728z"/>
		<polygon class="st1" points="53.5265465,17.1084518 47.2697105,17.1084518 47.2697105,11.5283737 46.2081871,11.5283737
			46.2081871,24.1523972 47.2697105,24.1523972 47.2697105,18.0967331 53.5265465,18.0967331 53.5265465,24.1523972
			54.5870934,24.1523972 54.5870934,11.5283737 53.5265465,11.5283737 		"/>
		<path class="st1" d="M62.0214119,17.3467331c-1.8300781-0.4023438-3.2753906-0.8603516-3.2753906-2.6708984
			c0-1.5556641,1.1533203-2.2685547,2.890625-2.2685547c1.7382812,0,2.6162071,0.7128906,3.2753868,1.6826172l0.8417969-0.6035156
			c-0.8789062-1.390625-2.1230431-2.0673828-4.0800743-2.0673828c-2.8359375,0-3.9882812,1.4814453-3.9882812,3.2568359
			c0,2.25,1.609375,3.1650391,3.9697266,3.6220703c2.3789024,0.4570312,3.2568321,1.1894531,3.2568321,2.7080078
			c0,1.2255859-0.8417969,2.2685547-3.0917931,2.2685547c-1.8847656,0-2.7626953-0.6953125-3.5498047-1.6835938l-0.859375,0.6035156
			c0.9326172,1.3720703,2.3964844,2.0673828,4.4091797,2.0673828c3.0185509,0,4.1523399-1.6826172,4.1523399-3.2929688
			C65.97258,18.5908737,64.3993378,17.8584518,62.0214119,17.3467331z"/>
		<path class="st1" d="M72.7635956,12.40728c1.7197266,0,2.9824219,0.8046875,3.4033203,2.9453125h1.0429688
			c-0.4023438-2.7626953-2.1953125-3.9335938-4.4462891-3.9335938c-2.7441406,0-4.4824219,1.5917969-4.4824219,5.671875v1.5
			c0,4.0800781,1.7382812,5.6708984,4.4824219,5.6708984c2.1591797,0,4.0253906-1.1337891,4.4277344-3.9697266h-1.0244141
			c-0.4023438,2.0126953-1.5732422,2.9824219-3.4033203,2.9824219c-2.140625,0-3.4208984-1.2255859-3.4208984-4.6835938v-1.5
			C69.3426971,13.650444,70.6053925,12.40728,72.7635956,12.40728z"/>
		<polygon class="st1" points="87.2206268,17.1084518 80.9637909,17.1084518 80.9637909,11.5283737 79.9022675,11.5283737
			79.9022675,24.1523972 80.9637909,24.1523972 80.9637909,18.0967331 87.2206268,18.0967331 87.2206268,24.1523972
			88.2811737,24.1523972 88.2811737,11.5283737 87.2206268,11.5283737 		"/>
		<path class="st1" d="M99.84758,18.9932175c0,2.9267578-1.2070312,4.28125-3.4208984,4.28125
			s-3.4208984-1.3544922-3.4208984-4.28125v-7.4648438h-1.0615234v7.4648438c0,3.7138672,1.7382812,5.2685547,4.4824219,5.2685547
			s4.4824219-1.5546875,4.4824219-5.2685547v-7.4648438H99.84758V18.9932175z"/>
		<polygon class="st1" points="105.4203186,11.5283737 104.3587952,11.5283737 104.3587952,24.1523972 111.7865295,24.1523972
			111.7865295,23.1641159 105.4203186,23.1641159 		"/>
		<polygon class="st1" points="121.513588,12.516655 121.513588,11.5283737 114.0858536,11.5283737 114.0858536,24.1523972
			121.513588,24.1523972 121.513588,23.1641159 115.147377,23.1641159 115.147377,18.1152878 120.9647598,18.1152878
			120.9647598,17.1270065 115.147377,17.1270065 115.147377,12.516655 		"/>
	</g>
	<g>
		<path class="st0" d="M15.0509348,59.0381699h1.8613272c0.0576172,0,0.0869141,0.0292969,0.0869141,0.0869141v0.6787109
			c0,0.0576172-0.0292969,0.0869141-0.0869141,0.0869141h-0.4169922c-0.0351562,0-0.0527344,0.0175781-0.0527344,0.0527344
			v4.9238281c0,0.0576172-0.0292969,0.0869141-0.0869141,0.0869141h-0.7832022
			c-0.0634766,0-0.1132812-0.0292969-0.1474609-0.0869141l-2.4013672-4.0712891h-0.0351562v3.2529297
			c0,0.0351562,0.0175781,0.0527344,0.0527344,0.0527344h0.4169922c0.0585938,0,0.0869141,0.0292969,0.0869141,0.0869141v0.6787109
			c0,0.0576172-0.0283203,0.0869141-0.0869141,0.0869141h-1.8613281c-0.0585938,0-0.0869141-0.0292969-0.0869141-0.0869141
			v-0.6787109c0-0.0576172,0.0283203-0.0869141,0.0869141-0.0869141h0.4179688c0.0341797,0,0.0517578-0.0175781,0.0517578-0.0527344
			v-4.1054688c0-0.0351562-0.0175781-0.0527344-0.0517578-0.0527344h-0.4179688
			c-0.0585938,0-0.0869141-0.0292969-0.0869141-0.0869141v-0.6787109c0-0.0576172,0.0283203-0.0869141,0.0869141-0.0869141
			h1.3486328c0.0634766,0,0.1132812,0.0292969,0.1474609,0.0869141l2.3925781,4.0800781h0.0351562v-3.2617188
			c0-0.0351562-0.0175781-0.0527344-0.0527344-0.0527344h-0.4169922c-0.0585938,0-0.0869141-0.0292969-0.0869141-0.0869141
			v-0.6787109C14.9640207,59.0674667,14.992341,59.0381699,15.0509348,59.0381699z"/>
		<path class="st0" d="M19.4347229,60.665123c0.6318359,0,1.0800781,0.1132812,1.3447266,0.3388672
			c0.2636719,0.2265625,0.3955078,0.6005859,0.3955078,1.1230469v1.921875c0,0.0351562,0.0175781,0.0527344,0.0517578,0.0527344
			h0.3740234c0.0585938,0,0.0869141,0.0292969,0.0869141,0.0869141v0.6787109c0,0.0576172-0.0283203,0.0869141-0.0869141,0.0869141
			h-1.2441406c-0.0576172,0-0.0869141-0.0292969-0.0869141-0.0869141v-0.3046875h-0.0087891
			c-0.2255859,0.3251953-0.6142578,0.4873047-1.1650391,0.4873047c-0.40625,0-0.7412109-0.1103516-1.0048828-0.3310547
			c-0.2646484-0.2197266-0.3964844-0.5390625-0.3964844-0.9570312c0-0.4462891,0.1464844-0.78125,0.4394531-1.0039062
			c0.2929688-0.2236328,0.703125-0.3349609,1.2314453-0.3349609h0.8349609c0.0351562,0,0.0527344-0.0175781,0.0527344-0.0527344
			V62.205162c0-0.2548828-0.0625-0.4404297-0.1875-0.5566406s-0.3496094-0.1748047-0.6738281-0.1748047
			c-0.1513672,0-0.3017578,0.0175781-0.453125,0.0527344c-0.0283203,0.0058594-0.0429688,0.0263672-0.0429688,0.0605469v0.3740234
			c0,0.0585938-0.0292969,0.0869141-0.0869141,0.0869141h-0.7568359c-0.0585938,0-0.0869141-0.0283203-0.0869141-0.0869141
			v-0.8867188c0-0.0527344,0.0224609-0.0898438,0.0693359-0.1132812
			C18.4454651,60.7637558,18.9132385,60.665123,19.4347229,60.665123z M20.2003479,63.1534042H19.521637
			c-0.5976562,0-0.8955078,0.1914062-0.8955078,0.5742188c0,0.3535156,0.2373047,0.5302734,0.7128906,0.5302734
			c0.609375,0,0.9140625-0.2373047,0.9140625-0.7128906V63.205162
			C20.2530823,63.1709824,20.2355042,63.1534042,20.2003479,63.1534042z"/>
		<path class="st0" d="M22.3849182,59.0381699h1.3134766c0.0576172,0,0.0869141,0.0292969,0.0869141,0.0869141v2.0273438h0.0087891
			c0.2265625-0.3251953,0.5888672-0.4873047,1.0878906-0.4873047c0.4345703,0,0.7841797,0.1445312,1.0478516,0.4345703
			s0.3964844,0.6650391,0.3964844,1.1230469v1.8261719c0,0.0351562,0.0166016,0.0527344,0.0517578,0.0527344h0.3564453
			c0.0585938,0,0.0869141,0.0292969,0.0869141,0.0869141v0.6787109c0,0.0576172-0.0283203,0.0869141-0.0869141,0.0869141h-1.8095703
			c-0.0576172,0-0.0869141-0.0292969-0.0869141-0.0869141v-0.6787109c0-0.0576172,0.0292969-0.0869141,0.0869141-0.0869141
			h0.3740234c0.0351562,0,0.0527344-0.0175781,0.0527344-0.0527344v-1.6005859c0-0.2783203-0.0673828-0.5-0.2001953-0.6650391
			c-0.1337891-0.1660156-0.328125-0.2480469-0.5830078-0.2480469c-0.2490234,0-0.4423828,0.0820312-0.578125,0.2480469
			c-0.1367188,0.1650391-0.2050781,0.3867188-0.2050781,0.6650391v1.6005859c0,0.0351562,0.0175781,0.0527344,0.0527344,0.0527344
			h0.3740234c0.0576172,0,0.0869141,0.0292969,0.0869141,0.0869141v0.6787109c0,0.0576172-0.0292969,0.0869141-0.0869141,0.0869141
			h-1.8271484c-0.0585938,0-0.0869141-0.0292969-0.0869141-0.0869141v-0.6787109
			c0-0.0576172,0.0283203-0.0869141,0.0869141-0.0869141h0.3740234c0.0351562,0,0.0517578-0.0175781,0.0517578-0.0527344v-4.1054688
			c0-0.0351562-0.0166016-0.0527344-0.0517578-0.0527344h-0.3740234c-0.0585938,0-0.0869141-0.0292969-0.0869141-0.0869141
			v-0.6787109C22.2980042,59.0674667,22.3263245,59.0381699,22.3849182,59.0381699z"/>
		<path class="st0" d="M30.4405823,60.665123c0.6318359,0,1.0800781,0.1132812,1.3447266,0.3388672
			c0.2636719,0.2265625,0.3955078,0.6005859,0.3955078,1.1230469v1.921875c0,0.0351562,0.0175781,0.0527344,0.0517578,0.0527344
			h0.3740234c0.0585938,0,0.0869141,0.0292969,0.0869141,0.0869141v0.6787109c0,0.0576172-0.0283203,0.0869141-0.0869141,0.0869141
			h-1.2441406c-0.0576172,0-0.0869141-0.0292969-0.0869141-0.0869141v-0.3046875h-0.0087891
			c-0.2255859,0.3251953-0.6142578,0.4873047-1.1650391,0.4873047c-0.40625,0-0.7412109-0.1103516-1.0048828-0.3310547
			c-0.2646484-0.2197266-0.3964844-0.5390625-0.3964844-0.9570312c0-0.4462891,0.1464844-0.78125,0.4394531-1.0039062
			c0.2929688-0.2236328,0.703125-0.3349609,1.2314453-0.3349609h0.8349609c0.0351562,0,0.0527344-0.0175781,0.0527344-0.0527344
			V62.205162c0-0.2548828-0.0625-0.4404297-0.1875-0.5566406s-0.3496094-0.1748047-0.6738281-0.1748047
			c-0.1513672,0-0.3017578,0.0175781-0.453125,0.0527344c-0.0283203,0.0058594-0.0429688,0.0263672-0.0429688,0.0605469v0.3740234
			c0,0.0585938-0.0292969,0.0869141-0.0869141,0.0869141h-0.7568359c-0.0585938,0-0.0869141-0.0283203-0.0869141-0.0869141
			v-0.8867188c0-0.0527344,0.0224609-0.0898438,0.0693359-0.1132812
			C29.4513245,60.7637558,29.9190979,60.665123,30.4405823,60.665123z M31.2062073,63.1534042h-0.6787109
			c-0.5976562,0-0.8955078,0.1914062-0.8955078,0.5742188c0,0.3535156,0.2373047,0.5302734,0.7128906,0.5302734
			c0.609375,0,0.9140625-0.2373047,0.9140625-0.7128906V63.205162
			C31.2589417,63.1709824,31.2413635,63.1534042,31.2062073,63.1534042z"/>
		<path class="st0" d="M35.8780823,60.665123c0.4404297,0,0.7929688,0.1445312,1.0566406,0.4345703
			s0.3964844,0.6650391,0.3964844,1.1230469v1.8261719c0,0.0351562,0.0166016,0.0527344,0.0517578,0.0527344h0.3564453
			c0.0585938,0,0.0869141,0.0292969,0.0869141,0.0869141v0.6787109c0,0.0576172-0.0283203,0.0869141-0.0869141,0.0869141h-1.8095703
			c-0.0576172,0-0.0869141-0.0292969-0.0869141-0.0869141v-0.6787109c0-0.0576172,0.0292969-0.0869141,0.0869141-0.0869141
			h0.3740234c0.0351562,0,0.0527344-0.0175781,0.0527344-0.0527344v-1.6005859c0-0.2783203-0.0673828-0.5-0.2001953-0.6650391
			c-0.1337891-0.1660156-0.328125-0.2480469-0.5830078-0.2480469c-0.2490234,0-0.4423828,0.0820312-0.578125,0.2480469
			c-0.1367188,0.1650391-0.2050781,0.3867188-0.2050781,0.6650391v1.6005859c0,0.0351562,0.0175781,0.0527344,0.0527344,0.0527344
			h0.3740234c0.0576172,0,0.0869141,0.0292969,0.0869141,0.0869141v0.6787109c0,0.0576172-0.0292969,0.0869141-0.0869141,0.0869141
			H33.389801c-0.0585938,0-0.0869141-0.0292969-0.0869141-0.0869141v-0.6787109
			c0-0.0576172,0.0283203-0.0869141,0.0869141-0.0869141h0.3740234c0.0351562,0,0.0517578-0.0175781,0.0517578-0.0527344V61.665123
			c0-0.0341797-0.0166016-0.0517578-0.0517578-0.0517578H33.389801c-0.0585938,0-0.0869141-0.0292969-0.0869141-0.0869141
			v-0.6787109c0-0.0576172,0.0283203-0.0869141,0.0869141-0.0869141h1.3134766c0.0576172,0,0.0869141,0.0292969,0.0869141,0.0869141
			v0.3046875h0.0087891C35.0255432,60.8272324,35.3849182,60.665123,35.8780823,60.665123z"/>
		<path class="st0" d="M45.0128479,59.0381699h1.296875c0.0576172,0,0.0869141,0.0292969,0.0869141,0.0869141v0.6787109
			c0,0.0576172-0.0292969,0.0869141-0.0869141,0.0869141h-0.4179688c-0.0341797,0-0.0517578,0.0175781-0.0517578,0.0527344
			v4.1054688c0,0.0351562,0.0175781,0.0527344,0.0517578,0.0527344h0.4179688c0.0576172,0,0.0869141,0.0292969,0.0869141,0.0869141
			v0.6787109c0,0.0576172-0.0292969,0.0869141-0.0869141,0.0869141h-1.8447266
			c-0.0576172,0-0.0869141-0.0292969-0.0869141-0.0869141v-0.6787109c0-0.0576172,0.0292969-0.0869141,0.0869141-0.0869141
			h0.4003906c0.0351562,0,0.0517578-0.0175781,0.0517578-0.0527344v-2.8007812h-0.0341797l-1.2617188,2.7841797
			c-0.0351562,0.0751953-0.0898438,0.1123047-0.1650391,0.1123047h-0.5048828c-0.0751953,0-0.1308594-0.0371094-0.1650391-0.1123047
			l-1.2617188-2.7841797h-0.0351562v2.8007812c0,0.0351562,0.0175781,0.0527344,0.0527344,0.0527344h0.3652344
			c0.0576172,0,0.0869141,0.0292969,0.0869141,0.0869141v0.6787109c0,0.0576172-0.0292969,0.0869141-0.0869141,0.0869141h-1.8095703
			c-0.0585938,0-0.0869141-0.0292969-0.0869141-0.0869141v-0.6787109c0-0.0576172,0.0283203-0.0869141,0.0869141-0.0869141
			h0.4179688c0.0341797,0,0.0517578-0.0175781,0.0517578-0.0527344v-4.1054688c0-0.0351562-0.0175781-0.0527344-0.0517578-0.0527344
			h-0.4179688c-0.0585938,0-0.0869141-0.0292969-0.0869141-0.0869141v-0.6787109
			c0-0.0576172,0.0283203-0.0869141,0.0869141-0.0869141h1.3046875c0.0751953,0,0.125,0.0292969,0.1484375,0.0869141
			l1.6523438,3.6884766h0.0351562l1.6269531-3.6884766C44.8888245,59.0674667,44.9376526,59.0381699,45.0128479,59.0381699z"/>
		<path class="st0" d="M48.9806213,60.665123c0.4287109,0,0.7939453,0.1025391,1.0957031,0.3085938
			s0.5107422,0.4892578,0.6269531,0.8486328c0.0917969,0.2841797,0.1386719,0.7041016,0.1386719,1.2617188
			c0,0.0576172-0.0322266,0.0869141-0.0957031,0.0869141H48.162262c-0.0351562,0-0.0517578,0.0175781-0.0517578,0.0517578
			c0,0.1044922,0.0195312,0.2119141,0.0605469,0.3222656c0.1445312,0.4228516,0.4580078,0.6347656,0.9394531,0.6347656
			c0.4121094,0,0.7392578-0.1328125,0.9833984-0.4003906c0.0458984-0.0458984,0.0898438-0.0517578,0.1308594-0.0175781
			l0.5126953,0.453125c0.0410156,0.0341797,0.0439453,0.0751953,0.0087891,0.1210938
			c-0.40625,0.4765625-0.9804688,0.7138672-1.7226562,0.7138672c-0.4404297,0-0.8134766-0.1025391-1.1181641-0.3085938
			c-0.3037109-0.2060547-0.5146484-0.4921875-0.6308594-0.8574219c-0.0986328-0.3076172-0.1474609-0.6494141-0.1474609-1.0263672
			c0-0.4003906,0.0458984-0.7451172,0.1396484-1.0351562c0.1152344-0.3652344,0.3261719-0.6494141,0.6298828-0.8525391
			C48.2013245,60.7666855,48.5626526,60.665123,48.9806213,60.665123z M48.9884338,61.4912949
			c-0.4287109,0-0.7041016,0.1796875-0.8261719,0.5400391c-0.0351562,0.1044922-0.0517578,0.2226562-0.0517578,0.3564453
			c0,0.0351562,0.0166016,0.0517578,0.0517578,0.0517578h1.6445312c0.0351562,0,0.0517578-0.0166016,0.0517578-0.0517578
			c0-0.1337891-0.0166016-0.2519531-0.0517578-0.3564453c-0.0585938-0.1689453-0.1601562-0.3007812-0.3046875-0.3964844
			S49.1856995,61.4912949,48.9884338,61.4912949z"/>
		<path class="st0" d="M54.1476135,60.665123c0.4404297,0,0.7929688,0.1445312,1.0566406,0.4345703
			s0.3964844,0.6650391,0.3964844,1.1230469v1.8261719c0,0.0351562,0.0166016,0.0527344,0.0517578,0.0527344h0.3564453
			c0.0585938,0,0.0869141,0.0292969,0.0869141,0.0869141v0.6787109c0,0.0576172-0.0283203,0.0869141-0.0869141,0.0869141h-1.8095703
			c-0.0576172,0-0.0869141-0.0292969-0.0869141-0.0869141v-0.6787109c0-0.0576172,0.0292969-0.0869141,0.0869141-0.0869141
			h0.3740234c0.0351562,0,0.0527344-0.0175781,0.0527344-0.0527344v-1.6005859c0-0.2783203-0.0673828-0.5-0.2001953-0.6650391
			c-0.1337891-0.1660156-0.328125-0.2480469-0.5830078-0.2480469c-0.2490234,0-0.4423828,0.0820312-0.578125,0.2480469
			c-0.1367188,0.1650391-0.2050781,0.3867188-0.2050781,0.6650391v1.6005859c0,0.0351562,0.0175781,0.0527344,0.0527344,0.0527344
			h0.3740234c0.0576172,0,0.0869141,0.0292969,0.0869141,0.0869141v0.6787109c0,0.0576172-0.0292969,0.0869141-0.0869141,0.0869141
			h-1.8271484c-0.0585938,0-0.0869141-0.0292969-0.0869141-0.0869141v-0.6787109
			c0-0.0576172,0.0283203-0.0869141,0.0869141-0.0869141h0.3740234c0.0351562,0,0.0517578-0.0175781,0.0517578-0.0527344V61.665123
			c0-0.0341797-0.0166016-0.0517578-0.0517578-0.0517578h-0.3740234c-0.0585938,0-0.0869141-0.0292969-0.0869141-0.0869141
			v-0.6787109c0-0.0576172,0.0283203-0.0869141,0.0869141-0.0869141h1.3134766c0.0576172,0,0.0869141,0.0292969,0.0869141,0.0869141
			v0.3046875h0.0087891C53.2950745,60.8272324,53.6544495,60.665123,54.1476135,60.665123z"/>
		<path class="st0" d="M58.427887,60.665123c0.5449219,0,1.0351562,0.0986328,1.4697266,0.2958984
			c0.046875,0.0234375,0.0703125,0.0634766,0.0703125,0.1220703v0.8691406c0,0.0585938-0.0292969,0.0878906-0.0869141,0.0878906
			h-0.7050781c-0.0585938,0-0.0869141-0.0292969-0.0869141-0.0878906v-0.3212891
			c0-0.0351562-0.0146484-0.0576172-0.0439453-0.0693359c-0.1503906-0.0644531-0.359375-0.0957031-0.6259766-0.0957031
			c-0.4697266,0-0.7050781,0.1416016-0.7050781,0.4257812c0,0.1337891,0.0507812,0.2363281,0.1523438,0.3085938
			c0.1015625,0.0732422,0.2861328,0.1240234,0.5527344,0.1523438l0.4609375,0.0527344
			c0.4697266,0.0517578,0.8095703,0.1835938,1.0175781,0.3955078c0.2089844,0.2119141,0.3134766,0.5,0.3134766,0.8652344
			c0,0.4355469-0.1552734,0.7744141-0.4658203,1.0185547c-0.3095703,0.2431641-0.7548828,0.3652344-1.3349609,0.3652344
			c-0.5917969,0-1.1132812-0.1103516-1.5664062-0.3310547c-0.0400391-0.0166016-0.0605469-0.0517578-0.0605469-0.1035156v-0.9404297
			c0-0.0576172,0.0292969-0.0869141,0.0869141-0.0869141h0.7392578c0.0585938,0,0.0869141,0.0292969,0.0869141,0.0869141v0.3828125
			c0,0.0292969,0.0146484,0.0498047,0.0439453,0.0615234c0.1972656,0.0751953,0.4404297,0.1132812,0.7304688,0.1132812
			c0.5224609,0,0.7832031-0.1630859,0.7832031-0.4873047c0-0.1455078-0.0517578-0.2558594-0.15625-0.3310547
			s-0.2929688-0.1269531-0.5654297-0.15625l-0.4619141-0.0527344c-0.8642578-0.0986328-1.2958984-0.5126953-1.2958984-1.2441406
			c0-0.3994141,0.1435547-0.7158203,0.4306641-0.9482422C57.4923401,60.7813339,57.8995667,60.665123,58.427887,60.665123z"/>
		<path class="st0" d="M62.8995667,60.665123c0.5800781,0,1.0615234,0.1103516,1.4443359,0.3300781
			c0.0458984,0.0234375,0.0693359,0.0615234,0.0693359,0.1132812v0.9570312c0,0.0585938-0.0292969,0.0869141-0.0869141,0.0869141
			h-0.7392578c-0.0585938,0-0.0869141-0.0283203-0.0869141-0.0869141v-0.3828125
			c0-0.0224609-0.0146484-0.0429688-0.0439453-0.0605469c-0.1162109-0.0576172-0.2929688-0.0869141-0.5302734-0.0869141
			c-0.453125,0-0.7402344,0.1826172-0.8613281,0.5478516c-0.0585938,0.1738281-0.0869141,0.4326172-0.0869141,0.7744141
			c0,0.3476562,0.0283203,0.609375,0.0869141,0.7832031c0.1210938,0.359375,0.4082031,0.5390625,0.8613281,0.5390625
			c0.2490234,0,0.4257812-0.0263672,0.5302734-0.078125c0.0292969-0.0117188,0.0439453-0.0322266,0.0439453-0.0605469V63.649498
			c0-0.0585938,0.0283203-0.0869141,0.0869141-0.0869141h0.7392578c0.0576172,0,0.0869141,0.0283203,0.0869141,0.0869141v0.9658203
			c0,0.0517578-0.0234375,0.0898438-0.0693359,0.1123047c-0.4121094,0.2148438-0.8935547,0.3222656-1.4443359,0.3222656
			c-0.9453125,0-1.5400391-0.3769531-1.7832031-1.1308594c-0.0869141-0.2607422-0.1308594-0.6152344-0.1308594-1.0615234
			c0-0.4287109,0.0439453-0.7744141,0.1308594-1.0351562c0.1210938-0.3710938,0.3378906-0.6572266,0.6474609-0.8574219
			C62.0743713,60.7647324,62.4532776,60.665123,62.8995667,60.665123z"/>
		<path class="st0" d="M65.3009338,59.0381699h1.3134766c0.0576172,0,0.0869141,0.0292969,0.0869141,0.0869141v2.0273438h0.0087891
			c0.2265625-0.3251953,0.5888672-0.4873047,1.0878906-0.4873047c0.4345703,0,0.7841797,0.1445312,1.0478516,0.4345703
			s0.3964844,0.6650391,0.3964844,1.1230469v1.8261719c0,0.0351562,0.0166016,0.0527344,0.0517578,0.0527344h0.3564453
			c0.0585938,0,0.0869141,0.0292969,0.0869141,0.0869141v0.6787109c0,0.0576172-0.0283203,0.0869141-0.0869141,0.0869141h-1.8095703
			c-0.0576172,0-0.0869141-0.0292969-0.0869141-0.0869141v-0.6787109c0-0.0576172,0.0292969-0.0869141,0.0869141-0.0869141
			h0.3740234c0.0351562,0,0.0527344-0.0175781,0.0527344-0.0527344v-1.6005859c0-0.2783203-0.0673828-0.5-0.2001953-0.6650391
			c-0.1337891-0.1660156-0.328125-0.2480469-0.5830078-0.2480469c-0.2490234,0-0.4423828,0.0820312-0.578125,0.2480469
			c-0.1367188,0.1650391-0.2050781,0.3867188-0.2050781,0.6650391v1.6005859c0,0.0351562,0.0175781,0.0527344,0.0527344,0.0527344
			h0.3740234c0.0576172,0,0.0869141,0.0292969,0.0869141,0.0869141v0.6787109c0,0.0576172-0.0292969,0.0869141-0.0869141,0.0869141
			h-1.8271484c-0.0585938,0-0.0869141-0.0292969-0.0869141-0.0869141v-0.6787109
			c0-0.0576172,0.0283203-0.0869141,0.0869141-0.0869141h0.3740234c0.0351562,0,0.0517578-0.0175781,0.0517578-0.0527344v-4.1054688
			c0-0.0351562-0.0166016-0.0527344-0.0517578-0.0527344h-0.3740234c-0.0585938,0-0.0869141-0.0292969-0.0869141-0.0869141
			v-0.6787109C65.2140198,59.0674667,65.2423401,59.0381699,65.3009338,59.0381699z"/>
		<path class="st0" d="M74.2267151,60.7608261h1.3222656c0.0576172,0,0.0869141,0.0292969,0.0869141,0.0869141v3.2011719
			c0,0.0351562,0.0175781,0.0527344,0.0517578,0.0527344h0.375c0.0576172,0,0.0869141,0.0292969,0.0869141,0.0869141v0.6787109
			c0,0.0576172-0.0292969,0.0869141-0.0869141,0.0869141h-1.3144531c-0.0576172,0-0.0869141-0.0292969-0.0869141-0.0869141
			v-0.3046875h-0.0087891c-0.2548828,0.3251953-0.6142578,0.4873047-1.078125,0.4873047
			c-0.4414062,0-0.7910156-0.1445312-1.0488281-0.4345703s-0.3867188-0.6640625-0.3867188-1.1230469V61.665123
			c0-0.0341797-0.0175781-0.0517578-0.0527344-0.0517578h-0.3740234c-0.0576172,0-0.0869141-0.0292969-0.0869141-0.0869141
			v-0.6787109c0-0.0576172,0.0292969-0.0869141,0.0869141-0.0869141h1.3134766c0.0585938,0,0.0869141,0.0292969,0.0869141,0.0869141
			v2.4189453c0,0.2783203,0.0654297,0.5,0.1962891,0.6650391s0.3232422,0.2480469,0.578125,0.2480469
			c0.2441406,0,0.4335938-0.0830078,0.5703125-0.2480469c0.1357422-0.1650391,0.2041016-0.3837891,0.2041016-0.65625V61.665123
			c0-0.0341797-0.0175781-0.0517578-0.0517578-0.0517578h-0.3828125c-0.0585938,0-0.0869141-0.0292969-0.0869141-0.0869141
			v-0.6787109C74.139801,60.790123,74.1681213,60.7608261,74.2267151,60.7608261z"/>
		<path class="st0" d="M79.3771057,60.665123c0.4404297,0,0.7929688,0.1445312,1.0566406,0.4345703
			s0.3964844,0.6650391,0.3964844,1.1230469v1.8261719c0,0.0351562,0.0166016,0.0527344,0.0517578,0.0527344h0.3564453
			c0.0585938,0,0.0869141,0.0292969,0.0869141,0.0869141v0.6787109c0,0.0576172-0.0283203,0.0869141-0.0869141,0.0869141h-1.8095703
			c-0.0576172,0-0.0869141-0.0292969-0.0869141-0.0869141v-0.6787109c0-0.0576172,0.0292969-0.0869141,0.0869141-0.0869141
			h0.3740234c0.0351562,0,0.0527344-0.0175781,0.0527344-0.0527344v-1.6005859c0-0.2783203-0.0673828-0.5-0.2001953-0.6650391
			c-0.1337891-0.1660156-0.328125-0.2480469-0.5830078-0.2480469c-0.2490234,0-0.4423828,0.0820312-0.578125,0.2480469
			c-0.1367188,0.1650391-0.2050781,0.3867188-0.2050781,0.6650391v1.6005859c0,0.0351562,0.0175781,0.0527344,0.0527344,0.0527344
			h0.3740234c0.0576172,0,0.0869141,0.0292969,0.0869141,0.0869141v0.6787109c0,0.0576172-0.0292969,0.0869141-0.0869141,0.0869141
			h-1.8271484c-0.0585938,0-0.0869141-0.0292969-0.0869141-0.0869141v-0.6787109
			c0-0.0576172,0.0283203-0.0869141,0.0869141-0.0869141h0.3740234c0.0351562,0,0.0517578-0.0175781,0.0517578-0.0527344V61.665123
			c0-0.0341797-0.0166016-0.0517578-0.0517578-0.0517578h-0.3740234c-0.0585938,0-0.0869141-0.0292969-0.0869141-0.0869141
			v-0.6787109c0-0.0576172,0.0283203-0.0869141,0.0869141-0.0869141h1.3134766c0.0576172,0,0.0869141,0.0292969,0.0869141,0.0869141
			v0.3046875h0.0087891C78.5245667,60.8272324,78.8839417,60.665123,79.3771057,60.665123z"/>
		<path class="st0" d="M84.318512,59.0381699h1.3134766c0.0576172,0,0.0869141,0.0292969,0.0869141,0.0869141v4.9238281
			c0,0.0351562,0.0175781,0.0527344,0.0527344,0.0527344h0.3740234c0.0576172,0,0.0869141,0.0292969,0.0869141,0.0869141v0.6787109
			c0,0.0576172-0.0292969,0.0869141-0.0869141,0.0869141h-1.3144531c-0.0576172,0-0.0869141-0.0292969-0.0869141-0.0869141
			v-0.3134766h-0.0087891c-0.2314453,0.3310547-0.6025391,0.4960938-1.1132812,0.4960938
			c-0.7480469,0-1.2324219-0.3359375-1.453125-1.0087891c-0.0986328-0.3017578-0.1474609-0.6962891-0.1474609-1.1835938
			s0.0488281-0.8818359,0.1474609-1.1835938c0.2207031-0.6728516,0.7050781-1.0087891,1.453125-1.0087891
			c0.5107422,0,0.8818359,0.1650391,1.1132812,0.4960938h0.0087891v-1.2177734c0-0.0351562-0.0166016-0.0527344-0.0517578-0.0527344
			H84.318512c-0.0585938,0-0.0869141-0.0292969-0.0869141-0.0869141v-0.6787109
			C84.2315979,59.0674667,84.2599182,59.0381699,84.318512,59.0381699z M83.874176,61.5352402
			c-0.3994141,0-0.6582031,0.1796875-0.7734375,0.5390625c-0.0585938,0.1796875-0.0878906,0.4414062-0.0878906,0.7832031
			s0.0292969,0.6035156,0.0878906,0.7832031c0.1152344,0.359375,0.3740234,0.5390625,0.7734375,0.5390625
			c0.40625,0,0.6669922-0.1796875,0.7832031-0.5390625c0.0585938-0.1796875,0.0869141-0.4414062,0.0869141-0.7832031
			s-0.0283203-0.6035156-0.0869141-0.7832031C84.5411682,61.7149277,84.280426,61.5352402,83.874176,61.5352402z"/>
		<path class="st0" d="M88.3644104,59.0381699h4.6806641c0.0576172,0,0.0869141,0.0292969,0.0869141,0.0869141v1.3925781
			c0,0.0576172-0.0292969,0.0869141-0.0869141,0.0869141h-0.7480469c-0.0585938,0-0.0869141-0.0292969-0.0869141-0.0869141
			v-0.5224609c0-0.0351562-0.0175781-0.0517578-0.0527344-0.0517578h-0.8876953
			c-0.0341797,0-0.0517578,0.0166016-0.0517578,0.0517578v4.0537109c0,0.0351562,0.0175781,0.0527344,0.0517578,0.0527344h0.453125
			c0.0576172,0,0.0869141,0.0292969,0.0869141,0.0869141v0.6787109c0,0.0576172-0.0292969,0.0869141-0.0869141,0.0869141H89.686676
			c-0.0576172,0-0.0869141-0.0292969-0.0869141-0.0869141v-0.6787109c0-0.0576172,0.0292969-0.0869141,0.0869141-0.0869141
			h0.4521484c0.0351562,0,0.0527344-0.0175781,0.0527344-0.0527344v-4.0537109c0-0.0351562-0.0175781-0.0517578-0.0527344-0.0517578
			h-0.8867188c-0.0351562,0-0.0527344,0.0166016-0.0527344,0.0517578v0.5224609
			c0,0.0576172-0.0292969,0.0869141-0.0869141,0.0869141h-0.7480469c-0.0585938,0-0.0869141-0.0292969-0.0869141-0.0869141
			v-1.3925781C88.2774963,59.0674667,88.3058167,59.0381699,88.3644104,59.0381699z"/>
		<path class="st0" d="M95.5333557,60.665123c0.4287109,0,0.7939453,0.1025391,1.0957031,0.3085938
			s0.5107422,0.4892578,0.6269531,0.8486328c0.0917969,0.2841797,0.1386719,0.7041016,0.1386719,1.2617188
			c0,0.0576172-0.0322266,0.0869141-0.0957031,0.0869141h-2.5839844c-0.0351562,0-0.0517578,0.0175781-0.0517578,0.0517578
			c0,0.1044922,0.0195312,0.2119141,0.0605469,0.3222656c0.1445312,0.4228516,0.4580078,0.6347656,0.9394531,0.6347656
			c0.4121094,0,0.7392578-0.1328125,0.9833984-0.4003906c0.0458984-0.0458984,0.0898438-0.0517578,0.1308594-0.0175781
			l0.5126953,0.453125c0.0410156,0.0341797,0.0439453,0.0751953,0.0087891,0.1210938
			c-0.40625,0.4765625-0.9804688,0.7138672-1.7226562,0.7138672c-0.4404297,0-0.8134766-0.1025391-1.1181641-0.3085938
			c-0.3037109-0.2060547-0.5146484-0.4921875-0.6308594-0.8574219c-0.0986328-0.3076172-0.1474609-0.6494141-0.1474609-1.0263672
			c0-0.4003906,0.0458984-0.7451172,0.1396484-1.0351562c0.1152344-0.3652344,0.3261719-0.6494141,0.6298828-0.8525391
			C94.7540588,60.7666855,95.115387,60.665123,95.5333557,60.665123z M95.5411682,61.4912949
			c-0.4287109,0-0.7041016,0.1796875-0.8261719,0.5400391c-0.0351562,0.1044922-0.0517578,0.2226562-0.0517578,0.3564453
			c0,0.0351562,0.0166016,0.0517578,0.0517578,0.0517578h1.6445312c0.0351562,0,0.0517578-0.0166016,0.0517578-0.0517578
			c0-0.1337891-0.0166016-0.2519531-0.0517578-0.3564453c-0.0585938-0.1689453-0.1601562-0.3007812-0.3046875-0.3964844
			S95.7384338,61.4912949,95.5411682,61.4912949z"/>
		<path class="st0" d="M100.1183167,60.665123c0.5800781,0,1.0615234,0.1103516,1.4443359,0.3300781
			c0.0458984,0.0234375,0.0693359,0.0615234,0.0693359,0.1132812v0.9570312c0,0.0585938-0.0292969,0.0869141-0.0869141,0.0869141
			h-0.7392578c-0.0585938,0-0.0869141-0.0283203-0.0869141-0.0869141v-0.3828125
			c0-0.0224609-0.0146484-0.0429688-0.0439453-0.0605469c-0.1162109-0.0576172-0.2929688-0.0869141-0.5302734-0.0869141
			c-0.453125,0-0.7402344,0.1826172-0.8613281,0.5478516c-0.0585938,0.1738281-0.0869141,0.4326172-0.0869141,0.7744141
			c0,0.3476562,0.0283203,0.609375,0.0869141,0.7832031c0.1210938,0.359375,0.4082031,0.5390625,0.8613281,0.5390625
			c0.2490234,0,0.4257812-0.0263672,0.5302734-0.078125c0.0292969-0.0117188,0.0439453-0.0322266,0.0439453-0.0605469V63.649498
			c0-0.0585938,0.0283203-0.0869141,0.0869141-0.0869141h0.7392578c0.0576172,0,0.0869141,0.0283203,0.0869141,0.0869141v0.9658203
			c0,0.0517578-0.0234375,0.0898438-0.0693359,0.1123047c-0.4121094,0.2148438-0.8935547,0.3222656-1.4443359,0.3222656
			c-0.9453125,0-1.5400391-0.3769531-1.7832031-1.1308594c-0.0869141-0.2607422-0.1308594-0.6152344-0.1308594-1.0615234
			c0-0.4287109,0.0439453-0.7744141,0.1308594-1.0351562c0.1210938-0.3710938,0.3378906-0.6572266,0.6474609-0.8574219
			C99.2931213,60.7647324,99.6720276,60.665123,100.1183167,60.665123z"/>
		<path class="st0" d="M102.5187073,59.0381699h1.3134766c0.0576172,0,0.0869141,0.0292969,0.0869141,0.0869141v2.0273438h0.0087891
			c0.2265625-0.3251953,0.5888672-0.4873047,1.0878906-0.4873047c0.4345703,0,0.7841797,0.1445312,1.0478516,0.4345703
			s0.3964844,0.6650391,0.3964844,1.1230469v1.8261719c0,0.0351562,0.0166016,0.0527344,0.0517578,0.0527344h0.3564453
			c0.0585938,0,0.0869141,0.0292969,0.0869141,0.0869141v0.6787109c0,0.0576172-0.0283203,0.0869141-0.0869141,0.0869141h-1.8095703
			c-0.0576172,0-0.0869141-0.0292969-0.0869141-0.0869141v-0.6787109c0-0.0576172,0.0292969-0.0869141,0.0869141-0.0869141
			h0.3740234c0.0351562,0,0.0527344-0.0175781,0.0527344-0.0527344v-1.6005859c0-0.2783203-0.0673828-0.5-0.2001953-0.6650391
			c-0.1337891-0.1660156-0.328125-0.2480469-0.5830078-0.2480469c-0.2490234,0-0.4423828,0.0820312-0.578125,0.2480469
			c-0.1367188,0.1650391-0.2050781,0.3867188-0.2050781,0.6650391v1.6005859c0,0.0351562,0.0175781,0.0527344,0.0527344,0.0527344
			h0.3740234c0.0576172,0,0.0869141,0.0292969,0.0869141,0.0869141v0.6787109c0,0.0576172-0.0292969,0.0869141-0.0869141,0.0869141
			h-1.8271484c-0.0585938,0-0.0869141-0.0292969-0.0869141-0.0869141v-0.6787109
			c0-0.0576172,0.0283203-0.0869141,0.0869141-0.0869141h0.3740234c0.0351562,0,0.0517578-0.0175781,0.0517578-0.0527344v-4.1054688
			c0-0.0351562-0.0166016-0.0527344-0.0517578-0.0527344h-0.3740234c-0.0585938,0-0.0869141-0.0292969-0.0869141-0.0869141
			v-0.6787109C102.4317932,59.0674667,102.4601135,59.0381699,102.5187073,59.0381699z"/>
		<path class="st0" d="M110.139801,60.665123c0.4404297,0,0.7929688,0.1445312,1.0566406,0.4345703
			s0.3964844,0.6650391,0.3964844,1.1230469v1.8261719c0,0.0351562,0.0166016,0.0527344,0.0517578,0.0527344h0.3564453
			c0.0585938,0,0.0869141,0.0292969,0.0869141,0.0869141v0.6787109c0,0.0576172-0.0283203,0.0869141-0.0869141,0.0869141h-1.8095703
			c-0.0576172,0-0.0869141-0.0292969-0.0869141-0.0869141v-0.6787109c0-0.0576172,0.0292969-0.0869141,0.0869141-0.0869141
			h0.3740234c0.0351562,0,0.0527344-0.0175781,0.0527344-0.0527344v-1.6005859c0-0.2783203-0.0673828-0.5-0.2001953-0.6650391
			c-0.1337891-0.1660156-0.328125-0.2480469-0.5830078-0.2480469c-0.2490234,0-0.4423828,0.0820312-0.578125,0.2480469
			c-0.1367188,0.1650391-0.2050781,0.3867188-0.2050781,0.6650391v1.6005859c0,0.0351562,0.0175781,0.0527344,0.0527344,0.0527344
			h0.3740234c0.0576172,0,0.0869141,0.0292969,0.0869141,0.0869141v0.6787109c0,0.0576172-0.0292969,0.0869141-0.0869141,0.0869141
			h-1.8271484c-0.0585938,0-0.0869141-0.0292969-0.0869141-0.0869141v-0.6787109
			c0-0.0576172,0.0283203-0.0869141,0.0869141-0.0869141h0.3740234c0.0351562,0,0.0517578-0.0175781,0.0517578-0.0527344V61.665123
			c0-0.0341797-0.0166016-0.0517578-0.0517578-0.0517578h-0.3740234c-0.0585938,0-0.0869141-0.0292969-0.0869141-0.0869141
			v-0.6787109c0-0.0576172,0.0283203-0.0869141,0.0869141-0.0869141h1.3134766c0.0576172,0,0.0869141,0.0292969,0.0869141,0.0869141
			v0.3046875h0.0087891C109.287262,60.8272324,109.646637,60.665123,110.139801,60.665123z"/>
		<path class="st0" d="M112.7853088,60.7608261h1.3134766c0.0576172,0,0.0869141,0.0292969,0.0869141,0.0869141v3.2011719
			c0,0.0351562,0.0175781,0.0527344,0.0527344,0.0527344h0.3740234c0.0576172,0,0.0869141,0.0292969,0.0869141,0.0869141v0.6787109
			c0,0.0576172-0.0292969,0.0869141-0.0869141,0.0869141h-1.8271484c-0.0585938,0-0.0869141-0.0292969-0.0869141-0.0869141
			v-0.6787109c0-0.0576172,0.0283203-0.0869141,0.0869141-0.0869141h0.3740234c0.0351562,0,0.0517578-0.0175781,0.0517578-0.0527344
			V61.665123c0-0.0341797-0.0166016-0.0517578-0.0517578-0.0517578h-0.3740234
			c-0.0585938,0-0.0869141-0.0292969-0.0869141-0.0869141v-0.6787109
			C112.6983948,60.790123,112.7267151,60.7608261,112.7853088,60.7608261z M113.2989807,59.0381699h0.7998047
			c0.0576172,0,0.0869141,0.0292969,0.0869141,0.0869141v0.7568359c0,0.0585938-0.0292969,0.0869141-0.0869141,0.0869141h-0.7998047
			c-0.0585938,0-0.0878906-0.0283203-0.0878906-0.0869141v-0.7568359
			C113.2110901,59.0674667,113.240387,59.0381699,113.2989807,59.0381699z"/>
		<path class="st0" d="M115.4034729,59.0381699h1.3134766c0.0576172,0,0.0869141,0.0292969,0.0869141,0.0869141v3.3408203
			l1.4179688-1.6181641c0.0527344-0.0576172,0.1074219-0.0869141,0.1660156-0.0869141h0.8867188
			c0.0585938,0,0.0869141,0.0292969,0.0869141,0.0869141v0.6787109c0,0.0576172-0.0283203,0.0869141-0.0869141,0.0869141h-0.5654297
			c-0.0341797,0-0.0664062,0.0175781-0.0957031,0.0517578l-0.5917969,0.6699219l1.0097656,1.7138672
			c0.0234375,0.0351562,0.0517578,0.0527344,0.0869141,0.0527344h0.4179688c0.0576172,0,0.0869141,0.0292969,0.0869141,0.0869141
			v0.6787109c0,0.0576172-0.0292969,0.0869141-0.0869141,0.0869141h-0.9658203
			c-0.0585938,0-0.1044922-0.0292969-0.1396484-0.0869141l-1.0527344-1.8095703l-0.5742188,0.6523438v0.3388672
			c0,0.0351562,0.0175781,0.0527344,0.0527344,0.0527344h0.3740234c0.0576172,0,0.0869141,0.0292969,0.0869141,0.0869141v0.6787109
			c0,0.0576172-0.0292969,0.0869141-0.0869141,0.0869141h-1.8271484c-0.0585938,0-0.0869141-0.0292969-0.0869141-0.0869141
			v-0.6787109c0-0.0576172,0.0283203-0.0869141,0.0869141-0.0869141h0.3740234c0.0351562,0,0.0517578-0.0175781,0.0517578-0.0527344
			v-4.1054688c0-0.0351562-0.0166016-0.0527344-0.0517578-0.0527344h-0.3740234
			c-0.0585938,0-0.0869141-0.0292969-0.0869141-0.0869141v-0.6787109
			C115.3165588,59.0674667,115.3448792,59.0381699,115.4034729,59.0381699z"/>
		<path class="st0" d="M120.4405823,63.892662h0.8701172c0.0576172,0,0.0869141,0.0292969,0.0869141,0.0869141v0.8876953
			c0,0.0576172-0.0292969,0.0869141-0.0869141,0.0869141h-0.8701172c-0.0576172,0-0.0869141-0.0292969-0.0869141-0.0869141
			v-0.8876953C120.3536682,63.9219589,120.3829651,63.892662,120.4405823,63.892662z"/>
	</g>
</g>
<g id="Vermassung" class="st2">
	<path class="st3" d="M11.4340153,43.7142868v2.6435547H4.991632v3.4433594h5.7763677v2.6220703H4.991632v3.9980469h6.4423833
		v2.6220703H1.8812804V43.7142868H11.4340153z"/>
	<rect x="-0.0001587" y="7.2340713" class="st3" width="4.2601218" height="4.2601218"/>
	<rect x="5.98558" y="0.0047675" class="st3" width="4.2601218" height="4.2601218"/>
	<rect x="7.2741766" y="7.2756386" class="st3" width="4.2601218" height="4.2601218"/>
	<rect x="7.2276063" y="24.1586533" class="st3" width="4.2601218" height="4.2601218"/>
</g>
</svg>
