<?xml version="1.0" encoding="utf-8" standalone="no"?>
<!DOCTYPE svg PUBLIC "-//W3C//DTD SVG 1.1//EN"
  "http://www.w3.org/Graphics/SVG/1.1/DTD/svg11.dtd">
<svg height="180pt" version="1.1" viewBox="0 0 841.68 180" width="841.68pt" xmlns="http://www.w3.org/2000/svg" xmlns:xlink="http://www.w3.org/1999/xlink">
 <metadata>
  <rdf:RDF xmlns:cc="http://creativecommons.org/ns#" xmlns:dc="http://purl.org/dc/elements/1.1/" xmlns:rdf="http://www.w3.org/1999/02/22-rdf-syntax-ns#">
   <cc:Work>
    <dc:type rdf:resource="http://purl.org/dc/dcmitype/StillImage"/>
    <dc:date>2021-10-16T19:12:50.715787</dc:date>
    <dc:format>image/svg+xml</dc:format>
    <dc:creator>
     <cc:Agent>
      <dc:title>Matplotlib v3.4.3, https://matplotlib.org/</dc:title>
     </cc:Agent>
    </dc:creator>
   </cc:Work>
  </rdf:RDF>
 </metadata>
 <defs>
  <style type="text/css">*{stroke-linecap:butt;stroke-linejoin:round;}</style>
 </defs>
 <g id="figure_1">
  <g id="patch_1">
   <path d="M 0 180
L 841.68 180
L 841.68 0
L 0 0
z
" style="fill:none;"/>
  </g>
  <g id="axes_1">
   <g id="patch_2">
    <path d="M 60.175 138.2
L 818.13 138.2
L 818.13 14.8
L 60.175 14.8
z
" style="fill:#ffffff;"/>
   </g>
   <g id="patch_3">
    <path clip-path="url(#p4647c374d9)" d="M 60.175 138.2
L 60.175 14.8
L 98.07275 14.8
L 98.07275 138.2
z
" style="fill:#ff0000;opacity:0.2;"/>
   </g>
   <g id="patch_4">
    <path clip-path="url(#p4647c374d9)" d="M 249.66375 138.2
L 249.66375 14.8
L 287.5615 14.8
L 287.5615 138.2
z
" style="fill:#0000ff;opacity:0.2;"/>
   </g>
   <g id="matplotlib.axis_1">
    <g id="xtick_1">
     <g id="line2d_1">
      <path clip-path="url(#p4647c374d9)" d="M 60.175 138.2
L 60.175 14.8
" style="fill:none;stroke:#b0b0b0;stroke-linecap:square;stroke-width:0.8;"/>
     </g>
     <g id="line2d_2">
      <defs>
       <path d="M 0 0
L 0 3.5
" id="m700bf8a862" style="stroke:#000000;stroke-width:0.8;"/>
      </defs>
      <g>
       <use style="stroke:#000000;stroke-width:0.8;" x="60.175" xlink:href="#m700bf8a862" y="138.2"/>
      </g>
     </g>
     <g id="text_1">
      <!-- 0 -->
      <g transform="translate(56.99375 152.798438)scale(0.1 -0.1)">
       <defs>
        <path d="M 2034 4250
Q 1547 4250 1301 3770
Q 1056 3291 1056 2328
Q 1056 1369 1301 889
Q 1547 409 2034 409
Q 2525 409 2770 889
Q 3016 1369 3016 2328
Q 3016 3291 2770 3770
Q 2525 4250 2034 4250
z
M 2034 4750
Q 2819 4750 3233 4129
Q 3647 3509 3647 2328
Q 3647 1150 3233 529
Q 2819 -91 2034 -91
Q 1250 -91 836 529
Q 422 1150 422 2328
Q 422 3509 836 4129
Q 1250 4750 2034 4750
z
" id="DejaVuSans-30" transform="scale(0.015625)"/>
       </defs>
       <use xlink:href="#DejaVuSans-30"/>
      </g>
     </g>
    </g>
    <g id="xtick_2">
     <g id="line2d_3">
      <path clip-path="url(#p4647c374d9)" d="M 211.766 138.2
L 211.766 14.8
" style="fill:none;stroke:#b0b0b0;stroke-linecap:square;stroke-width:0.8;"/>
     </g>
     <g id="line2d_4">
      <g>
       <use style="stroke:#000000;stroke-width:0.8;" x="211.766" xlink:href="#m700bf8a862" y="138.2"/>
      </g>
     </g>
     <g id="text_2">
      <!-- 200 -->
      <g transform="translate(202.22225 152.798438)scale(0.1 -0.1)">
       <defs>
        <path d="M 1228 531
L 3431 531
L 3431 0
L 469 0
L 469 531
Q 828 903 1448 1529
Q 2069 2156 2228 2338
Q 2531 2678 2651 2914
Q 2772 3150 2772 3378
Q 2772 3750 2511 3984
Q 2250 4219 1831 4219
Q 1534 4219 1204 4116
Q 875 4013 500 3803
L 500 4441
Q 881 4594 1212 4672
Q 1544 4750 1819 4750
Q 2544 4750 2975 4387
Q 3406 4025 3406 3419
Q 3406 3131 3298 2873
Q 3191 2616 2906 2266
Q 2828 2175 2409 1742
Q 1991 1309 1228 531
z
" id="DejaVuSans-32" transform="scale(0.015625)"/>
       </defs>
       <use xlink:href="#DejaVuSans-32"/>
       <use x="63.623047" xlink:href="#DejaVuSans-30"/>
       <use x="127.246094" xlink:href="#DejaVuSans-30"/>
      </g>
     </g>
    </g>
    <g id="xtick_3">
     <g id="line2d_5">
      <path clip-path="url(#p4647c374d9)" d="M 363.357 138.2
L 363.357 14.8
" style="fill:none;stroke:#b0b0b0;stroke-linecap:square;stroke-width:0.8;"/>
     </g>
     <g id="line2d_6">
      <g>
       <use style="stroke:#000000;stroke-width:0.8;" x="363.357" xlink:href="#m700bf8a862" y="138.2"/>
      </g>
     </g>
     <g id="text_3">
      <!-- 400 -->
      <g transform="translate(353.81325 152.798438)scale(0.1 -0.1)">
       <defs>
        <path d="M 2419 4116
L 825 1625
L 2419 1625
L 2419 4116
z
M 2253 4666
L 3047 4666
L 3047 1625
L 3713 1625
L 3713 1100
L 3047 1100
L 3047 0
L 2419 0
L 2419 1100
L 313 1100
L 313 1709
L 2253 4666
z
" id="DejaVuSans-34" transform="scale(0.015625)"/>
       </defs>
       <use xlink:href="#DejaVuSans-34"/>
       <use x="63.623047" xlink:href="#DejaVuSans-30"/>
       <use x="127.246094" xlink:href="#DejaVuSans-30"/>
      </g>
     </g>
    </g>
    <g id="xtick_4">
     <g id="line2d_7">
      <path clip-path="url(#p4647c374d9)" d="M 514.948 138.2
L 514.948 14.8
" style="fill:none;stroke:#b0b0b0;stroke-linecap:square;stroke-width:0.8;"/>
     </g>
     <g id="line2d_8">
      <g>
       <use style="stroke:#000000;stroke-width:0.8;" x="514.948" xlink:href="#m700bf8a862" y="138.2"/>
      </g>
     </g>
     <g id="text_4">
      <!-- 600 -->
      <g transform="translate(505.40425 152.798438)scale(0.1 -0.1)">
       <defs>
        <path d="M 2113 2584
Q 1688 2584 1439 2293
Q 1191 2003 1191 1497
Q 1191 994 1439 701
Q 1688 409 2113 409
Q 2538 409 2786 701
Q 3034 994 3034 1497
Q 3034 2003 2786 2293
Q 2538 2584 2113 2584
z
M 3366 4563
L 3366 3988
Q 3128 4100 2886 4159
Q 2644 4219 2406 4219
Q 1781 4219 1451 3797
Q 1122 3375 1075 2522
Q 1259 2794 1537 2939
Q 1816 3084 2150 3084
Q 2853 3084 3261 2657
Q 3669 2231 3669 1497
Q 3669 778 3244 343
Q 2819 -91 2113 -91
Q 1303 -91 875 529
Q 447 1150 447 2328
Q 447 3434 972 4092
Q 1497 4750 2381 4750
Q 2619 4750 2861 4703
Q 3103 4656 3366 4563
z
" id="DejaVuSans-36" transform="scale(0.015625)"/>
       </defs>
       <use xlink:href="#DejaVuSans-36"/>
       <use x="63.623047" xlink:href="#DejaVuSans-30"/>
       <use x="127.246094" xlink:href="#DejaVuSans-30"/>
      </g>
     </g>
    </g>
    <g id="xtick_5">
     <g id="line2d_9">
      <path clip-path="url(#p4647c374d9)" d="M 666.539 138.2
L 666.539 14.8
" style="fill:none;stroke:#b0b0b0;stroke-linecap:square;stroke-width:0.8;"/>
     </g>
     <g id="line2d_10">
      <g>
       <use style="stroke:#000000;stroke-width:0.8;" x="666.539" xlink:href="#m700bf8a862" y="138.2"/>
      </g>
     </g>
     <g id="text_5">
      <!-- 800 -->
      <g transform="translate(656.99525 152.798438)scale(0.1 -0.1)">
       <defs>
        <path d="M 2034 2216
Q 1584 2216 1326 1975
Q 1069 1734 1069 1313
Q 1069 891 1326 650
Q 1584 409 2034 409
Q 2484 409 2743 651
Q 3003 894 3003 1313
Q 3003 1734 2745 1975
Q 2488 2216 2034 2216
z
M 1403 2484
Q 997 2584 770 2862
Q 544 3141 544 3541
Q 544 4100 942 4425
Q 1341 4750 2034 4750
Q 2731 4750 3128 4425
Q 3525 4100 3525 3541
Q 3525 3141 3298 2862
Q 3072 2584 2669 2484
Q 3125 2378 3379 2068
Q 3634 1759 3634 1313
Q 3634 634 3220 271
Q 2806 -91 2034 -91
Q 1263 -91 848 271
Q 434 634 434 1313
Q 434 1759 690 2068
Q 947 2378 1403 2484
z
M 1172 3481
Q 1172 3119 1398 2916
Q 1625 2713 2034 2713
Q 2441 2713 2670 2916
Q 2900 3119 2900 3481
Q 2900 3844 2670 4047
Q 2441 4250 2034 4250
Q 1625 4250 1398 4047
Q 1172 3844 1172 3481
z
" id="DejaVuSans-38" transform="scale(0.015625)"/>
       </defs>
       <use xlink:href="#DejaVuSans-38"/>
       <use x="63.623047" xlink:href="#DejaVuSans-30"/>
       <use x="127.246094" xlink:href="#DejaVuSans-30"/>
      </g>
     </g>
    </g>
    <g id="xtick_6">
     <g id="line2d_11">
      <path clip-path="url(#p4647c374d9)" d="M 818.13 138.2
L 818.13 14.8
" style="fill:none;stroke:#b0b0b0;stroke-linecap:square;stroke-width:0.8;"/>
     </g>
     <g id="line2d_12">
      <g>
       <use style="stroke:#000000;stroke-width:0.8;" x="818.13" xlink:href="#m700bf8a862" y="138.2"/>
      </g>
     </g>
     <g id="text_6">
      <!-- 1000 -->
      <g transform="translate(805.405 152.798438)scale(0.1 -0.1)">
       <defs>
        <path d="M 794 531
L 1825 531
L 1825 4091
L 703 3866
L 703 4441
L 1819 4666
L 2450 4666
L 2450 531
L 3481 531
L 3481 0
L 794 0
L 794 531
z
" id="DejaVuSans-31" transform="scale(0.015625)"/>
       </defs>
       <use xlink:href="#DejaVuSans-31"/>
       <use x="63.623047" xlink:href="#DejaVuSans-30"/>
       <use x="127.246094" xlink:href="#DejaVuSans-30"/>
       <use x="190.869141" xlink:href="#DejaVuSans-30"/>
      </g>
     </g>
    </g>
    <g id="text_7">
     <!-- Samples -->
     <g transform="translate(417.799375 166.476562)scale(0.1 -0.1)">
      <defs>
       <path d="M 3425 4513
L 3425 3897
Q 3066 4069 2747 4153
Q 2428 4238 2131 4238
Q 1616 4238 1336 4038
Q 1056 3838 1056 3469
Q 1056 3159 1242 3001
Q 1428 2844 1947 2747
L 2328 2669
Q 3034 2534 3370 2195
Q 3706 1856 3706 1288
Q 3706 609 3251 259
Q 2797 -91 1919 -91
Q 1588 -91 1214 -16
Q 841 59 441 206
L 441 856
Q 825 641 1194 531
Q 1563 422 1919 422
Q 2459 422 2753 634
Q 3047 847 3047 1241
Q 3047 1584 2836 1778
Q 2625 1972 2144 2069
L 1759 2144
Q 1053 2284 737 2584
Q 422 2884 422 3419
Q 422 4038 858 4394
Q 1294 4750 2059 4750
Q 2388 4750 2728 4690
Q 3069 4631 3425 4513
z
" id="DejaVuSans-53" transform="scale(0.015625)"/>
       <path d="M 2194 1759
Q 1497 1759 1228 1600
Q 959 1441 959 1056
Q 959 750 1161 570
Q 1363 391 1709 391
Q 2188 391 2477 730
Q 2766 1069 2766 1631
L 2766 1759
L 2194 1759
z
M 3341 1997
L 3341 0
L 2766 0
L 2766 531
Q 2569 213 2275 61
Q 1981 -91 1556 -91
Q 1019 -91 701 211
Q 384 513 384 1019
Q 384 1609 779 1909
Q 1175 2209 1959 2209
L 2766 2209
L 2766 2266
Q 2766 2663 2505 2880
Q 2244 3097 1772 3097
Q 1472 3097 1187 3025
Q 903 2953 641 2809
L 641 3341
Q 956 3463 1253 3523
Q 1550 3584 1831 3584
Q 2591 3584 2966 3190
Q 3341 2797 3341 1997
z
" id="DejaVuSans-61" transform="scale(0.015625)"/>
       <path d="M 3328 2828
Q 3544 3216 3844 3400
Q 4144 3584 4550 3584
Q 5097 3584 5394 3201
Q 5691 2819 5691 2113
L 5691 0
L 5113 0
L 5113 2094
Q 5113 2597 4934 2840
Q 4756 3084 4391 3084
Q 3944 3084 3684 2787
Q 3425 2491 3425 1978
L 3425 0
L 2847 0
L 2847 2094
Q 2847 2600 2669 2842
Q 2491 3084 2119 3084
Q 1678 3084 1418 2786
Q 1159 2488 1159 1978
L 1159 0
L 581 0
L 581 3500
L 1159 3500
L 1159 2956
Q 1356 3278 1631 3431
Q 1906 3584 2284 3584
Q 2666 3584 2933 3390
Q 3200 3197 3328 2828
z
" id="DejaVuSans-6d" transform="scale(0.015625)"/>
       <path d="M 1159 525
L 1159 -1331
L 581 -1331
L 581 3500
L 1159 3500
L 1159 2969
Q 1341 3281 1617 3432
Q 1894 3584 2278 3584
Q 2916 3584 3314 3078
Q 3713 2572 3713 1747
Q 3713 922 3314 415
Q 2916 -91 2278 -91
Q 1894 -91 1617 61
Q 1341 213 1159 525
z
M 3116 1747
Q 3116 2381 2855 2742
Q 2594 3103 2138 3103
Q 1681 3103 1420 2742
Q 1159 2381 1159 1747
Q 1159 1113 1420 752
Q 1681 391 2138 391
Q 2594 391 2855 752
Q 3116 1113 3116 1747
z
" id="DejaVuSans-70" transform="scale(0.015625)"/>
       <path d="M 603 4863
L 1178 4863
L 1178 0
L 603 0
L 603 4863
z
" id="DejaVuSans-6c" transform="scale(0.015625)"/>
       <path d="M 3597 1894
L 3597 1613
L 953 1613
Q 991 1019 1311 708
Q 1631 397 2203 397
Q 2534 397 2845 478
Q 3156 559 3463 722
L 3463 178
Q 3153 47 2828 -22
Q 2503 -91 2169 -91
Q 1331 -91 842 396
Q 353 884 353 1716
Q 353 2575 817 3079
Q 1281 3584 2069 3584
Q 2775 3584 3186 3129
Q 3597 2675 3597 1894
z
M 3022 2063
Q 3016 2534 2758 2815
Q 2500 3097 2075 3097
Q 1594 3097 1305 2825
Q 1016 2553 972 2059
L 3022 2063
z
" id="DejaVuSans-65" transform="scale(0.015625)"/>
       <path d="M 2834 3397
L 2834 2853
Q 2591 2978 2328 3040
Q 2066 3103 1784 3103
Q 1356 3103 1142 2972
Q 928 2841 928 2578
Q 928 2378 1081 2264
Q 1234 2150 1697 2047
L 1894 2003
Q 2506 1872 2764 1633
Q 3022 1394 3022 966
Q 3022 478 2636 193
Q 2250 -91 1575 -91
Q 1294 -91 989 -36
Q 684 19 347 128
L 347 722
Q 666 556 975 473
Q 1284 391 1588 391
Q 1994 391 2212 530
Q 2431 669 2431 922
Q 2431 1156 2273 1281
Q 2116 1406 1581 1522
L 1381 1569
Q 847 1681 609 1914
Q 372 2147 372 2553
Q 372 3047 722 3315
Q 1072 3584 1716 3584
Q 2034 3584 2315 3537
Q 2597 3491 2834 3397
z
" id="DejaVuSans-73" transform="scale(0.015625)"/>
      </defs>
      <use xlink:href="#DejaVuSans-53"/>
      <use x="63.476562" xlink:href="#DejaVuSans-61"/>
      <use x="124.755859" xlink:href="#DejaVuSans-6d"/>
      <use x="222.167969" xlink:href="#DejaVuSans-70"/>
      <use x="285.644531" xlink:href="#DejaVuSans-6c"/>
      <use x="313.427734" xlink:href="#DejaVuSans-65"/>
      <use x="374.951172" xlink:href="#DejaVuSans-73"/>
     </g>
    </g>
   </g>
   <g id="matplotlib.axis_2">
    <g id="ytick_1">
     <g id="line2d_13">
      <path clip-path="url(#p4647c374d9)" d="M 60.175 138.2
L 818.13 138.2
" style="fill:none;stroke:#b0b0b0;stroke-linecap:square;stroke-width:0.8;"/>
     </g>
     <g id="line2d_14">
      <defs>
       <path d="M 0 0
L -3.5 0
" id="m38d478eef4" style="stroke:#000000;stroke-width:0.8;"/>
      </defs>
      <g>
       <use style="stroke:#000000;stroke-width:0.8;" x="60.175" xlink:href="#m38d478eef4" y="138.2"/>
      </g>
     </g>
     <g id="text_8">
      <!-- −1.0 -->
      <g transform="translate(28.892188 141.999219)scale(0.1 -0.1)">
       <defs>
        <path d="M 678 2272
L 4684 2272
L 4684 1741
L 678 1741
L 678 2272
z
" id="DejaVuSans-2212" transform="scale(0.015625)"/>
        <path d="M 684 794
L 1344 794
L 1344 0
L 684 0
L 684 794
z
" id="DejaVuSans-2e" transform="scale(0.015625)"/>
       </defs>
       <use xlink:href="#DejaVuSans-2212"/>
       <use x="83.789062" xlink:href="#DejaVuSans-31"/>
       <use x="147.412109" xlink:href="#DejaVuSans-2e"/>
       <use x="179.199219" xlink:href="#DejaVuSans-30"/>
      </g>
     </g>
    </g>
    <g id="ytick_2">
     <g id="line2d_15">
      <path clip-path="url(#p4647c374d9)" d="M 60.175 107.35
L 818.13 107.35
" style="fill:none;stroke:#b0b0b0;stroke-linecap:square;stroke-width:0.8;"/>
     </g>
     <g id="line2d_16">
      <g>
       <use style="stroke:#000000;stroke-width:0.8;" x="60.175" xlink:href="#m38d478eef4" y="107.35"/>
      </g>
     </g>
     <g id="text_9">
      <!-- −0.5 -->
      <g transform="translate(28.892188 111.149219)scale(0.1 -0.1)">
       <defs>
        <path d="M 691 4666
L 3169 4666
L 3169 4134
L 1269 4134
L 1269 2991
Q 1406 3038 1543 3061
Q 1681 3084 1819 3084
Q 2600 3084 3056 2656
Q 3513 2228 3513 1497
Q 3513 744 3044 326
Q 2575 -91 1722 -91
Q 1428 -91 1123 -41
Q 819 9 494 109
L 494 744
Q 775 591 1075 516
Q 1375 441 1709 441
Q 2250 441 2565 725
Q 2881 1009 2881 1497
Q 2881 1984 2565 2268
Q 2250 2553 1709 2553
Q 1456 2553 1204 2497
Q 953 2441 691 2322
L 691 4666
z
" id="DejaVuSans-35" transform="scale(0.015625)"/>
       </defs>
       <use xlink:href="#DejaVuSans-2212"/>
       <use x="83.789062" xlink:href="#DejaVuSans-30"/>
       <use x="147.412109" xlink:href="#DejaVuSans-2e"/>
       <use x="179.199219" xlink:href="#DejaVuSans-35"/>
      </g>
     </g>
    </g>
    <g id="ytick_3">
     <g id="line2d_17">
      <path clip-path="url(#p4647c374d9)" d="M 60.175 76.5
L 818.13 76.5
" style="fill:none;stroke:#b0b0b0;stroke-linecap:square;stroke-width:0.8;"/>
     </g>
     <g id="line2d_18">
      <g>
       <use style="stroke:#000000;stroke-width:0.8;" x="60.175" xlink:href="#m38d478eef4" y="76.5"/>
      </g>
     </g>
     <g id="text_10">
      <!-- 0.0 -->
      <g transform="translate(37.271875 80.299219)scale(0.1 -0.1)">
       <use xlink:href="#DejaVuSans-30"/>
       <use x="63.623047" xlink:href="#DejaVuSans-2e"/>
       <use x="95.410156" xlink:href="#DejaVuSans-30"/>
      </g>
     </g>
    </g>
    <g id="ytick_4">
     <g id="line2d_19">
      <path clip-path="url(#p4647c374d9)" d="M 60.175 45.65
L 818.13 45.65
" style="fill:none;stroke:#b0b0b0;stroke-linecap:square;stroke-width:0.8;"/>
     </g>
     <g id="line2d_20">
      <g>
       <use style="stroke:#000000;stroke-width:0.8;" x="60.175" xlink:href="#m38d478eef4" y="45.65"/>
      </g>
     </g>
     <g id="text_11">
      <!-- 0.5 -->
      <g transform="translate(37.271875 49.449219)scale(0.1 -0.1)">
       <use xlink:href="#DejaVuSans-30"/>
       <use x="63.623047" xlink:href="#DejaVuSans-2e"/>
       <use x="95.410156" xlink:href="#DejaVuSans-35"/>
      </g>
     </g>
    </g>
    <g id="ytick_5">
     <g id="line2d_21">
      <path clip-path="url(#p4647c374d9)" d="M 60.175 14.8
L 818.13 14.8
" style="fill:none;stroke:#b0b0b0;stroke-linecap:square;stroke-width:0.8;"/>
     </g>
     <g id="line2d_22">
      <g>
       <use style="stroke:#000000;stroke-width:0.8;" x="60.175" xlink:href="#m38d478eef4" y="14.8"/>
      </g>
     </g>
     <g id="text_12">
      <!-- 1.0 -->
      <g transform="translate(37.271875 18.599219)scale(0.1 -0.1)">
       <use xlink:href="#DejaVuSans-31"/>
       <use x="63.623047" xlink:href="#DejaVuSans-2e"/>
       <use x="95.410156" xlink:href="#DejaVuSans-30"/>
      </g>
     </g>
    </g>
    <g id="text_13">
     <!-- $y_{surv}(t)$ -->
     <g transform="translate(22.792188 93.05)rotate(-90)scale(0.1 -0.1)">
      <defs>
       <path d="M 1588 -325
Q 1188 -997 936 -1164
Q 684 -1331 294 -1331
L -159 -1331
L -63 -850
L 269 -850
Q 509 -850 678 -719
Q 847 -588 1056 -206
L 1234 128
L 459 3500
L 1069 3500
L 1650 819
L 3256 3500
L 3859 3500
L 1588 -325
z
" id="DejaVuSans-Oblique-79" transform="scale(0.015625)"/>
       <path d="M 3200 3397
L 3091 2853
Q 2863 2978 2609 3040
Q 2356 3103 2088 3103
Q 1634 3103 1373 2948
Q 1113 2794 1113 2528
Q 1113 2219 1719 2053
Q 1766 2041 1788 2034
L 1972 1978
Q 2547 1819 2739 1644
Q 2931 1469 2931 1166
Q 2931 609 2489 259
Q 2047 -91 1331 -91
Q 1053 -91 747 -37
Q 441 16 72 128
L 184 722
Q 500 559 806 475
Q 1113 391 1394 391
Q 1816 391 2080 572
Q 2344 753 2344 1031
Q 2344 1331 1650 1516
L 1591 1531
L 1394 1581
Q 956 1697 753 1886
Q 550 2075 550 2369
Q 550 2928 970 3256
Q 1391 3584 2113 3584
Q 2397 3584 2667 3537
Q 2938 3491 3200 3397
z
" id="DejaVuSans-Oblique-73" transform="scale(0.015625)"/>
       <path d="M 428 1388
L 838 3500
L 1416 3500
L 1006 1409
Q 975 1256 961 1147
Q 947 1038 947 966
Q 947 700 1109 554
Q 1272 409 1569 409
Q 2031 409 2368 721
Q 2706 1034 2809 1563
L 3194 3500
L 3769 3500
L 3091 0
L 2516 0
L 2631 550
Q 2388 244 2052 76
Q 1716 -91 1338 -91
Q 878 -91 622 161
Q 366 413 366 863
Q 366 956 381 1097
Q 397 1238 428 1388
z
" id="DejaVuSans-Oblique-75" transform="scale(0.015625)"/>
       <path d="M 2853 2969
Q 2766 3016 2653 3041
Q 2541 3066 2413 3066
Q 1953 3066 1609 2717
Q 1266 2369 1153 1784
L 800 0
L 225 0
L 909 3500
L 1484 3500
L 1375 2956
Q 1603 3259 1920 3421
Q 2238 3584 2597 3584
Q 2691 3584 2781 3573
Q 2872 3563 2963 3538
L 2853 2969
z
" id="DejaVuSans-Oblique-72" transform="scale(0.015625)"/>
       <path d="M 459 3500
L 1069 3500
L 1581 525
L 3256 3500
L 3866 3500
L 1875 0
L 1100 0
L 459 3500
z
" id="DejaVuSans-Oblique-76" transform="scale(0.015625)"/>
       <path d="M 1984 4856
Q 1566 4138 1362 3434
Q 1159 2731 1159 2009
Q 1159 1288 1364 580
Q 1569 -128 1984 -844
L 1484 -844
Q 1016 -109 783 600
Q 550 1309 550 2009
Q 550 2706 781 3412
Q 1013 4119 1484 4856
L 1984 4856
z
" id="DejaVuSans-28" transform="scale(0.015625)"/>
       <path d="M 2706 3500
L 2619 3053
L 1472 3053
L 1100 1153
Q 1081 1047 1072 975
Q 1063 903 1063 863
Q 1063 663 1183 572
Q 1303 481 1569 481
L 2150 481
L 2053 0
L 1503 0
Q 991 0 739 200
Q 488 400 488 806
Q 488 878 497 964
Q 506 1050 525 1153
L 897 3053
L 409 3053
L 500 3500
L 978 3500
L 1172 4494
L 1747 4494
L 1556 3500
L 2706 3500
z
" id="DejaVuSans-Oblique-74" transform="scale(0.015625)"/>
       <path d="M 513 4856
L 1013 4856
Q 1481 4119 1714 3412
Q 1947 2706 1947 2009
Q 1947 1309 1714 600
Q 1481 -109 1013 -844
L 513 -844
Q 928 -128 1133 580
Q 1338 1288 1338 2009
Q 1338 2731 1133 3434
Q 928 4138 513 4856
z
" id="DejaVuSans-29" transform="scale(0.015625)"/>
      </defs>
      <use transform="translate(0 0.125)" xlink:href="#DejaVuSans-Oblique-79"/>
      <use transform="translate(59.179688 -16.28125)scale(0.7)" xlink:href="#DejaVuSans-Oblique-73"/>
      <use transform="translate(95.649414 -16.28125)scale(0.7)" xlink:href="#DejaVuSans-Oblique-75"/>
      <use transform="translate(140.014648 -16.28125)scale(0.7)" xlink:href="#DejaVuSans-Oblique-72"/>
      <use transform="translate(168.793945 -16.28125)scale(0.7)" xlink:href="#DejaVuSans-Oblique-76"/>
      <use transform="translate(212.954102 0.125)" xlink:href="#DejaVuSans-28"/>
      <use transform="translate(251.967773 0.125)" xlink:href="#DejaVuSans-Oblique-74"/>
      <use transform="translate(291.176758 0.125)" xlink:href="#DejaVuSans-29"/>
     </g>
    </g>
   </g>
   <g id="line2d_23">
    <path clip-path="url(#p4647c374d9)" d="M 60.175 76.240274
L 60.932955 55.150218
L 61.69091 48.094788
L 62.448865 56.589319
L 63.20682 41.262779
L 63.964775 83.330375
L 64.72273 82.030964
L 65.480685 122.823731
L 66.23864 104.833336
L 66.996595 95.217694
L 67.75455 62.100577
L 68.512505 54.871398
L 69.27046 50.776451
L 70.028415 38.758891
L 70.78637 56.973037
L 71.544325 64.195335
L 72.30228 96.108238
L 73.060235 105.202635
L 73.81819 106.748171
L 74.576145 102.334141
L 75.3341 70.746086
L 76.092055 53.771272
L 76.85001 41.236966
L 77.607965 49.44487
L 78.36592 51.458574
L 79.123875 68.992413
L 79.88183 94.895183
L 80.639785 111.387124
L 81.39774 106.913698
L 82.155695 104.807056
L 82.91365 86.452241
L 83.671605 53.398666
L 84.42956 58.83609
L 85.187515 59.754001
L 85.94547 55.431023
L 86.703425 76.008318
L 87.46138 107.825428
L 88.219335 100.151558
L 88.97729 105.921641
L 89.735245 86.71353
L 90.4932 78.495348
L 91.251155 55.980717
L 92.00911 57.923358
L 92.767065 50.375883
L 93.52502 50.821107
L 94.282975 82.834223
L 95.04093 88.95551
L 95.798885 102.605562
L 96.55684 111.864662
L 97.314795 81.797107
L 98.07275 72.334381
L 98.830705 71.724972
L 99.58866 70.792962
L 100.346615 90.148423
L 101.10457 75.583733
L 101.862525 70.77838
L 102.62048 76.765199
L 103.378435 70.195303
L 104.13639 75.704119
L 104.894345 73.867023
L 105.6523 73.39419
L 106.410255 74.902071
L 107.16821 80.181067
L 107.926165 68.130998
L 108.68412 75.075906
L 109.442075 76.088614
L 110.20003 76.093108
L 110.957985 80.055201
L 111.71594 86.018991
L 112.473895 87.437426
L 113.23185 77.825587
L 113.989805 83.098303
L 114.74776 73.298949
L 115.505715 73.077159
L 116.26367 69.31623
L 117.021625 77.145329
L 117.77958 76.866309
L 118.537535 73.442389
L 119.29549 94.516264
L 120.053445 87.700891
L 120.8114 73.978589
L 121.569355 74.447196
L 122.32731 94.560487
L 123.085265 76.265636
L 123.84322 79.40144
L 124.601175 79.0485
L 125.35913 74.288656
L 126.117085 76.958343
L 126.87504 71.331737
L 127.632995 80.254363
L 128.39095 81.408207
L 129.148905 77.605903
L 129.90686 75.419616
L 130.664815 82.442543
L 131.42277 83.297558
L 132.180725 77.077865
L 132.93868 74.76556
L 133.696635 73.90137
L 134.45459 78.241219
L 135.212545 75.252974
L 135.9705 66.745872
L 136.728455 77.197281
L 137.48641 72.822335
L 138.244365 77.855689
L 139.00232 77.892811
L 139.760275 78.773875
L 140.51823 75.375379
L 141.276185 76.534508
L 142.03414 75.478534
L 142.792095 75.679789
L 143.55005 78.802809
L 144.308005 79.678158
L 145.06596 82.685099
L 145.823915 82.26645
L 146.58187 68.555101
L 147.339825 70.843594
L 148.09778 86.821079
L 148.855735 70.832822
L 150.371645 78.924746
L 151.1296 83.968512
L 151.887555 62.351149
L 152.64551 85.489744
L 153.403465 81.925637
L 154.16142 77.141524
L 154.919375 89.258007
L 155.67733 84.787226
L 156.435285 69.298538
L 157.19324 78.16912
L 157.951195 64.171003
L 158.70915 73.525507
L 159.467105 81.051526
L 160.22506 69.701345
L 160.983015 74.276609
L 161.74097 73.921305
L 162.498925 80.989367
L 163.25688 81.612402
L 164.014835 73.978034
L 164.77279 77.495763
L 165.530745 71.79147
L 166.2887 83.13543
L 167.046655 80.038733
L 167.80461 84.425816
L 168.562565 80.056382
L 169.32052 82.551173
L 170.078475 82.562611
L 170.83643 72.3511
L 171.594385 74.384091
L 172.35234 74.400883
L 173.110295 64.315307
L 173.86825 71.465024
L 174.626205 72.357617
L 176.142115 87.768952
L 176.90007 72.427093
L 177.658025 78.488508
L 178.41598 88.166838
L 179.173935 83.648958
L 179.93189 68.962112
L 180.689845 83.668037
L 181.4478 77.817068
L 182.205755 75.966288
L 182.96371 85.358212
L 183.721665 73.395455
L 184.47962 79.220764
L 185.237575 72.795441
L 185.99553 64.967855
L 186.753485 66.210441
L 187.51144 75.169887
L 188.269395 70.9551
L 189.02735 77.497458
L 189.785305 85.022593
L 191.301215 75.051909
L 192.05917 60.114812
L 192.817125 62.877437
L 193.57508 88.863047
L 194.333035 73.603525
L 195.09099 78.980244
L 195.848945 70.629837
L 196.6069 83.690054
L 197.364855 70.421926
L 198.12281 75.471287
L 198.880765 78.922253
L 199.63872 78.169106
L 200.396675 74.892753
L 201.15463 83.031304
L 201.912585 68.372236
L 202.67054 72.216566
L 203.428495 71.374978
L 204.18645 70.143696
L 204.944405 77.613071
L 205.70236 76.158519
L 206.460315 64.207599
L 207.21827 88.106252
L 207.976225 79.471702
L 208.73418 60.748252
L 209.492135 75.136364
L 210.25009 74.382216
L 211.008045 86.815335
L 211.766 75.091953
L 212.523955 80.769122
L 213.28191 83.548724
L 214.039865 87.929882
L 214.79782 86.749393
L 215.555775 66.411061
L 216.31373 68.382836
L 217.071685 68.189548
L 217.82964 81.00495
L 218.587595 79.414201
L 219.34555 76.516259
L 220.103505 69.850229
L 220.86146 79.706293
L 221.619415 67.166816
L 222.37737 72.105788
L 223.135325 69.768712
L 223.89328 71.576305
L 224.651235 70.912444
L 225.40919 78.543949
L 226.167145 74.545182
L 226.9251 83.034509
L 227.683055 74.058886
L 228.44101 73.972394
L 229.198965 69.464181
L 229.95692 76.805576
L 230.714875 67.136431
L 231.47283 75.362047
L 232.230785 80.219798
L 232.98874 67.914804
L 233.746695 70.229346
L 234.50465 88.496322
L 235.262605 79.335046
L 236.02056 75.487047
L 236.778515 79.703093
L 237.53647 85.358281
L 238.294425 76.442692
L 239.05238 68.95292
L 239.810335 70.617336
L 240.56829 87.65773
L 241.326245 68.180888
L 242.0842 71.878248
L 242.842155 81.139241
L 243.60011 72.668238
L 244.358065 79.634392
L 245.11602 76.412964
L 245.873975 72.437348
L 246.63193 69.07346
L 247.389885 77.591803
L 248.14784 78.491072
L 248.905795 77.233801
L 249.66375 74.732186
L 250.421705 59.532033
L 251.17966 71.56242
L 251.937615 79.691995
L 252.69557 77.519904
L 253.453525 78.888264
L 254.21148 69.908754
L 254.969435 56.755904
L 255.72739 74.998178
L 256.485345 75.711074
L 257.2433 83.11706
L 258.001255 54.823832
L 258.75921 55.252191
L 260.27512 82.00919
L 261.033075 70.088773
L 261.79103 68.344857
L 262.548985 56.50852
L 263.30694 63.525237
L 264.064895 75.914547
L 264.82285 72.117172
L 265.580805 72.569451
L 266.33876 55.482603
L 267.096715 47.878789
L 267.85467 86.466923
L 268.612625 82.661981
L 269.37058 77.208334
L 270.128535 61.629259
L 270.88649 58.131166
L 272.4024 80.943847
L 273.160355 71.862522
L 273.91831 60.939177
L 274.676265 74.250072
L 275.43422 63.156258
L 276.192175 67.696967
L 276.95013 81.096294
L 277.708085 63.212033
L 278.46604 58.137996
L 279.223995 66.413449
L 279.98195 84.677454
L 280.739905 86.24758
L 281.49786 83.713529
L 282.255815 65.884996
L 283.01377 57.873905
L 283.771725 69.659446
L 284.52968 84.6004
L 286.04559 73.74041
L 286.803545 71.112087
L 287.5615 67.213938
L 288.319455 81.12154
L 289.07741 79.999399
L 289.835365 70.15929
L 290.59332 77.572464
L 291.351275 80.038109
L 292.10923 69.598217
L 292.867185 81.477355
L 293.62514 82.179398
L 294.383095 79.323884
L 295.14105 82.201389
L 295.899005 74.015018
L 296.65696 70.588483
L 297.414915 80.524891
L 298.930825 64.050225
L 299.68878 75.33019
L 300.446735 55.110503
L 301.20469 89.872926
L 303.478555 75.726947
L 304.23651 80.847324
L 304.994465 74.918925
L 305.75242 88.443924
L 306.510375 71.768128
L 307.26833 73.711435
L 308.026285 70.492376
L 308.78424 80.485785
L 310.30015 73.376345
L 311.058105 78.032656
L 311.81606 84.484128
L 312.574015 76.500709
L 313.33197 78.218669
L 314.089925 77.049492
L 314.84788 76.632422
L 315.605835 87.475098
L 316.36379 79.265697
L 317.121745 81.583222
L 317.8797 81.29938
L 318.637655 67.965899
L 319.39561 70.51283
L 320.153565 70.32167
L 320.91152 76.420611
L 321.669475 72.166248
L 322.42743 84.241835
L 323.185385 66.416252
L 323.94334 84.402074
L 324.701295 79.931795
L 325.45925 70.124727
L 326.217205 65.893117
L 326.97516 73.763681
L 327.733115 67.859554
L 328.49107 74.58146
L 329.249025 78.926199
L 330.00698 78.857905
L 330.764935 66.82682
L 331.52289 72.621276
L 332.280845 72.93965
L 333.0388 78.336107
L 333.796755 80.928659
L 334.55471 83.031283
L 335.312665 74.164546
L 336.07062 81.188094
L 336.828575 77.161111
L 337.58653 76.650198
L 338.344485 70.846704
L 339.10244 73.676262
L 339.860395 67.490697
L 340.61835 76.488505
L 341.376305 67.831499
L 342.13426 72.383475
L 342.892215 74.408965
L 343.65017 89.821414
L 344.408125 68.022067
L 345.16608 83.342759
L 345.924035 74.97197
L 346.68199 83.688582
L 347.439945 67.905189
L 348.1979 85.233746
L 348.955855 74.861169
L 349.71381 75.841475
L 350.471765 79.989188
L 351.22972 83.249771
L 351.987675 81.401218
L 352.74563 85.322353
L 353.503585 79.901561
L 354.26154 68.880377
L 355.019495 80.719022
L 355.77745 64.861451
L 356.535405 71.941248
L 357.29336 77.015
L 358.051315 85.206036
L 358.80927 82.003623
L 359.567225 74.025543
L 360.32518 81.060823
L 361.083135 81.380734
L 361.84109 74.565262
L 362.599045 77.2866
L 363.357 83.469014
L 364.114955 79.790116
L 364.87291 69.65685
L 365.630865 73.794406
L 366.38882 74.91763
L 367.146775 70.41302
L 367.90473 68.340055
L 368.662685 73.597648
L 369.42064 75.085385
L 370.178595 81.996325
L 370.93655 72.860552
L 371.694505 84.520521
L 372.45246 67.120324
L 373.210415 57.556332
L 373.96837 79.363795
L 374.726325 77.609265
L 375.48428 73.938802
L 376.242235 79.630771
L 377.00019 79.3615
L 377.758145 78.953379
L 378.5161 76.826741
L 379.274055 84.762542
L 380.03201 79.659848
L 380.789965 71.709391
L 381.54792 86.143217
L 382.305875 87.122352
L 383.06383 63.054644
L 383.821785 93.092958
L 384.57974 69.416621
L 385.337695 74.38981
L 386.09565 76.779342
L 386.853605 76.003506
L 387.61156 80.83557
L 388.369515 83.121383
L 389.12747 75.421323
L 389.885425 73.471729
L 390.64338 74.53262
L 391.401335 78.000285
L 392.15929 84.513586
L 392.917245 77.303715
L 393.6752 79.352827
L 394.433155 80.645312
L 395.19111 76.341284
L 395.949065 69.130144
L 396.70702 78.944474
L 397.464975 82.392543
L 398.22293 77.980913
L 398.980885 88.701967
L 399.73884 73.401608
L 400.496795 74.908998
L 401.25475 72.208727
L 402.012705 85.076546
L 402.77066 80.02453
L 403.528615 73.356167
L 405.044525 78.054005
L 405.80248 93.988323
L 406.560435 80.181512
L 407.31839 89.334967
L 408.076345 82.789718
L 408.8343 87.545807
L 409.592255 81.544054
L 410.35021 72.708092
L 411.108165 88.543433
L 411.86612 72.663267
L 412.624075 74.536449
L 413.38203 86.098659
L 414.139985 87.722793
L 414.89794 82.948025
L 416.41385 78.678581
L 417.171805 78.85377
L 417.92976 71.985715
L 418.687715 79.459236
L 419.44567 74.75834
L 420.203625 75.312431
L 420.96158 80.558244
L 421.719535 82.529694
L 422.47749 71.097646
L 423.235445 79.265472
L 423.9934 74.077077
L 424.751355 72.901588
L 425.50931 76.886635
L 426.267265 69.262111
L 427.02522 83.028146
L 427.783175 67.40739
L 428.54113 82.757137
L 429.299085 63.911275
L 430.05704 83.489497
L 430.814995 71.800185
L 431.57295 74.400856
L 432.330905 81.414166
L 433.08886 78.722086
L 433.846815 72.85954
L 434.60477 68.0091
L 435.362725 86.814417
L 436.12068 76.008717
L 436.878635 89.222791
L 437.63659 67.664013
L 438.394545 76.473647
L 439.1525 89.907948
L 439.910455 81.575724
L 440.66841 66.886543
L 441.426365 89.566983
L 442.18432 69.310825
L 442.942275 80.568753
L 443.70023 76.733333
L 444.458185 82.978361
L 445.21614 69.638165
L 445.974095 76.583653
L 446.73205 76.39869
L 447.490005 84.505942
L 448.24796 85.046241
L 449.76387 73.077536
L 450.521825 89.450799
L 451.27978 89.267853
L 452.037735 74.341672
L 452.79569 85.048808
L 453.553645 81.827919
L 454.3116 87.276851
L 455.069555 78.627816
L 456.585465 67.193418
L 457.34342 76.218653
L 458.101375 74.236339
L 458.85933 82.799697
L 459.617285 63.828806
L 460.37524 76.973589
L 461.133195 85.536772
L 461.89115 65.347639
L 462.649105 79.789569
L 463.40706 79.07626
L 464.165015 68.897333
L 464.92297 82.762769
L 465.680925 80.024864
L 466.43888 75.975983
L 467.196835 91.303379
L 467.95479 82.388443
L 468.712745 69.592029
L 469.4707 75.360732
L 470.228655 73.361906
L 470.98661 78.767765
L 471.744565 77.069943
L 472.50252 90.803204
L 473.260475 70.043237
L 474.01843 72.107731
L 474.776385 93.380425
L 475.53434 80.968796
L 476.292295 80.662674
L 477.05025 77.406214
L 477.808205 70.331803
L 478.56616 84.568637
L 479.324115 82.212392
L 480.08207 69.050936
L 480.840025 70.249502
L 481.59798 81.427807
L 482.355935 79.961541
L 483.11389 76.332472
L 483.871845 78.859814
L 484.6298 72.847143
L 485.387755 72.145516
L 486.903665 78.736723
L 487.66162 77.769275
L 488.419575 72.581593
L 489.17753 84.589869
L 489.935485 78.817598
L 490.69344 74.816153
L 491.451395 76.179369
L 492.20935 79.492126
L 492.967305 71.016813
L 493.72526 77.77972
L 494.483215 66.951494
L 495.24117 76.524951
L 495.999125 73.967462
L 496.75708 82.181267
L 497.515035 78.702208
L 498.27299 85.329334
L 499.030945 72.836422
L 499.7889 84.187717
L 500.546855 78.920547
L 501.30481 75.656295
L 502.062765 68.979652
L 502.82072 89.438406
L 503.578675 62.734866
L 504.33663 77.234669
L 505.094585 82.692857
L 505.85254 76.894816
L 506.610495 77.84012
L 507.36845 87.942105
L 508.126405 81.450133
L 508.88436 71.309695
L 509.642315 69.193523
L 510.40027 83.761931
L 511.158225 76.611627
L 511.91618 52.825859
L 512.674135 67.04289
L 513.43209 76.658757
L 514.190045 77.847534
L 514.948 85.096322
L 515.705955 78.772931
L 516.46391 75.582331
L 517.221865 82.344209
L 517.97982 69.441132
L 518.737775 81.189545
L 519.49573 78.349238
L 520.253685 57.500988
L 521.01164 80.72712
L 521.769595 87.449568
L 522.52755 91.872323
L 523.285505 88.006983
L 524.04346 60.543948
L 524.801415 70.588057
L 525.55937 73.319604
L 526.317325 68.728548
L 527.07528 58.611379
L 527.833235 84.172879
L 528.59119 83.229128
L 529.349145 75.661275
L 530.1071 73.861415
L 530.865055 67.52029
L 531.62301 88.809653
L 532.380965 84.69136
L 533.13892 75.048849
L 533.896875 79.549656
L 534.65483 75.961115
L 535.412785 75.253655
L 536.928695 83.032494
L 537.68665 71.782297
L 538.444605 70.256192
L 539.20256 74.555609
L 539.960515 82.573757
L 540.71847 82.560097
L 541.476425 87.653026
L 542.23438 87.356954
L 542.992335 75.264287
L 544.508245 66.856643
L 545.2662 68.983657
L 546.024155 67.137274
L 546.78211 77.361184
L 547.540065 83.00088
L 548.29802 87.727411
L 549.055975 63.473031
L 549.81393 77.443743
L 550.571885 85.437799
L 551.32984 86.49271
L 552.087795 82.299099
L 552.84575 73.608082
L 553.603705 70.966814
L 554.36166 72.267442
L 555.119615 82.099536
L 555.87757 68.654474
L 557.39348 74.556718
L 558.151435 66.162719
L 558.90939 79.887668
L 559.667345 80.982972
L 560.4253 65.947719
L 561.183255 82.301083
L 561.94121 89.167777
L 562.699165 73.016307
L 563.45712 76.664124
L 564.215075 73.667669
L 564.97303 77.423054
L 565.730985 73.632336
L 566.48894 78.883933
L 567.246895 70.538477
L 568.762805 74.029864
L 569.52076 87.117144
L 570.278715 72.616881
L 571.03667 79.305471
L 571.794625 62.331074
L 572.55258 80.160487
L 573.310535 66.375609
L 574.06849 74.767367
L 574.826445 72.439378
L 575.5844 78.380635
L 576.342355 68.119366
L 577.10031 66.355021
L 578.61622 86.106418
L 579.374175 90.113587
L 580.13213 77.000531
L 580.890085 81.434888
L 581.64804 77.083707
L 582.405995 69.247303
L 583.16395 70.374196
L 583.921905 83.540523
L 584.67986 73.5955
L 585.437815 77.816407
L 586.19577 56.795738
L 586.953725 69.230797
L 587.71168 84.387834
L 588.469635 64.985424
L 589.22759 89.826392
L 589.985545 73.753244
L 590.7435 78.001412
L 591.501455 71.681142
L 592.25941 75.440627
L 593.017365 85.689141
L 593.77532 62.311828
L 594.533275 83.3855
L 595.29123 78.790097
L 596.049185 78.00113
L 596.80714 79.184715
L 597.565095 78.653968
L 598.32305 65.944559
L 599.081005 80.200678
L 599.83896 88.551142
L 600.596915 67.728841
L 601.35487 73.361383
L 602.112825 62.473227
L 602.87078 66.411165
L 603.628735 74.55838
L 604.38669 80.43487
L 605.144645 80.935009
L 605.9026 68.884575
L 606.660555 74.664412
L 607.41851 76.574771
L 608.176465 64.129722
L 608.93442 77.610448
L 609.692375 74.49138
L 610.45033 84.175256
L 611.208285 81.957287
L 611.96624 88.846686
L 612.724195 85.602755
L 613.48215 71.89091
L 614.240105 77.625579
L 614.99806 82.453196
L 615.756015 71.422288
L 616.51397 78.522359
L 617.271925 68.76332
L 618.02988 65.754574
L 618.787835 86.315227
L 619.54579 73.77078
L 620.303745 69.397774
L 621.0617 84.995263
L 621.819655 83.609822
L 622.57761 69.183475
L 624.09352 80.926356
L 624.851475 74.384041
L 625.60943 74.080509
L 626.367385 83.904063
L 627.12534 68.618923
L 627.883295 81.090784
L 628.64125 81.968461
L 629.399205 77.965743
L 630.15716 64.010766
L 631.67307 79.978145
L 632.431025 79.189635
L 633.18898 74.542073
L 633.946935 63.688862
L 634.70489 78.181077
L 635.462845 73.995839
L 636.2208 83.26439
L 636.978755 79.8533
L 637.73671 66.063043
L 638.494665 88.692098
L 639.25262 80.411868
L 640.010575 67.890393
L 640.76853 78.531197
L 641.526485 61.996834
L 642.28444 75.303208
L 643.042395 84.264167
L 643.80035 76.903401
L 644.558305 71.991233
L 645.31626 72.732736
L 646.074215 80.215959
L 646.83217 82.9908
L 647.590125 72.642849
L 648.34808 78.122318
L 649.106035 75.063364
L 649.86399 67.289756
L 650.621945 68.600021
L 651.3799 85.067955
L 652.137855 84.274726
L 652.89581 72.622263
L 653.653765 68.356023
L 654.41172 85.255502
L 655.169675 80.889545
L 655.92763 78.833425
L 656.685585 80.469399
L 658.201495 88.587087
L 658.95945 70.021072
L 659.717405 64.173358
L 660.47536 81.205328
L 661.99127 74.466821
L 662.749225 77.467869
L 663.50718 75.726739
L 664.265135 77.984543
L 665.02309 71.855867
L 665.781045 76.357976
L 666.539 73.512917
L 667.296955 60.609841
L 668.05491 91.723942
L 668.812865 74.391638
L 669.57082 70.224725
L 670.328775 84.225364
L 671.08673 66.550256
L 671.844685 75.987036
L 672.60264 81.538762
L 673.360595 71.428231
L 674.11855 71.810984
L 674.876505 73.611792
L 675.63446 84.152245
L 676.392415 75.780044
L 677.908325 88.848156
L 678.66628 79.828476
L 679.424235 86.885495
L 680.18219 73.747436
L 680.940145 80.384656
L 681.6981 69.277474
L 682.456055 82.549486
L 683.21401 77.571764
L 683.971965 76.148649
L 684.72992 64.599891
L 685.487875 59.146596
L 686.24583 70.952506
L 687.003785 86.567208
L 687.76174 72.367715
L 688.519695 82.20008
L 689.27765 77.725142
L 690.035605 63.658086
L 690.79356 72.453165
L 691.551515 64.524618
L 692.30947 75.500253
L 693.067425 69.083635
L 693.82538 80.444255
L 694.583335 88.734828
L 695.34129 78.731888
L 696.099245 58.313783
L 696.8572 74.923602
L 697.615155 77.831177
L 698.37311 93.762045
L 699.131065 69.220809
L 699.88902 72.392691
L 700.646975 79.199273
L 701.40493 77.271412
L 702.162885 80.975291
L 702.92084 89.696197
L 703.678795 84.988438
L 704.43675 78.190881
L 705.194705 76.320907
L 705.95266 85.534551
L 706.710615 75.127565
L 707.46857 78.687161
L 708.226525 66.824477
L 708.98448 81.91691
L 709.742435 72.911125
L 710.50039 73.58395
L 711.258345 74.719799
L 712.0163 73.897917
L 712.774255 69.803034
L 713.53221 67.71105
L 714.290165 71.570639
L 715.04812 88.919778
L 715.806075 61.450736
L 716.56403 95.105976
L 717.321985 66.868336
L 718.07994 72.475548
L 718.837895 80.183581
L 719.59585 79.230887
L 720.353805 86.579075
L 721.11176 81.170951
L 721.869715 59.706748
L 722.62767 80.688593
L 723.385625 81.512413
L 724.14358 71.872871
L 724.901535 69.187506
L 725.65949 85.655165
L 726.417445 84.953207
L 727.1754 70.214992
L 728.69131 88.859971
L 729.449265 61.811002
L 730.20722 76.491529
L 730.965175 82.34221
L 731.72313 74.639857
L 732.481085 72.527566
L 733.23904 79.191201
L 733.996995 74.45685
L 734.75495 76.484785
L 735.512905 74.990851
L 736.27086 74.680034
L 737.028815 71.571839
L 737.78677 77.760409
L 738.544725 77.449427
L 739.30268 79.00758
L 740.060635 78.305033
L 740.81859 75.636951
L 741.576545 93.898713
L 742.3345 73.566674
L 743.092455 78.689051
L 743.85041 72.809268
L 744.608365 63.390332
L 746.124275 89.701129
L 746.88223 71.297585
L 747.640185 78.477079
L 748.39814 70.035508
L 749.156095 83.48898
L 749.91405 81.903915
L 750.672005 65.170965
L 751.42996 87.219155
L 752.187915 70.673922
L 752.94587 86.270695
L 753.703825 78.323813
L 754.46178 77.105912
L 755.219735 80.788926
L 755.97769 88.302804
L 756.735645 74.156039
L 757.4936 81.85599
L 758.251555 70.356511
L 759.00951 73.536836
L 759.767465 75.408853
L 760.52542 71.252153
L 761.283375 79.533951
L 762.04133 85.104499
L 762.799285 72.189106
L 763.55724 65.826586
L 764.315195 79.057016
L 765.07315 83.341067
L 765.831105 73.308725
L 766.58906 75.340388
L 767.347015 84.527594
L 768.10497 83.270996
L 768.862925 73.129104
L 769.62088 81.429395
L 770.378835 65.117887
L 771.13679 64.100742
L 771.894745 72.911255
L 772.6527 75.507606
L 773.410655 84.101038
L 774.16861 71.408895
L 774.926565 86.223995
L 775.68452 77.297579
L 776.442475 66.683512
L 777.20043 80.251728
L 777.958385 79.517495
L 778.71634 67.902275
L 779.474295 75.528712
L 780.23225 81.660642
L 780.990205 71.540723
L 781.74816 53.87472
L 782.506115 70.934417
L 783.26407 72.773029
L 784.022025 78.697843
L 784.77998 78.194451
L 785.537935 65.55878
L 786.29589 74.914345
L 787.053845 73.224725
L 787.8118 76.998328
L 788.569755 89.455756
L 789.32771 83.508049
L 790.085665 89.055856
L 790.84362 74.391145
L 791.601575 80.676125
L 792.35953 77.476238
L 793.117485 90.024165
L 793.87544 83.876289
L 794.633395 82.765122
L 795.39135 59.55546
L 796.149305 77.219292
L 796.90726 70.093507
L 797.665215 72.491986
L 798.42317 84.327865
L 799.181125 74.466415
L 800.697035 85.295399
L 801.45499 83.616131
L 802.212945 74.542368
L 802.9709 72.749642
L 803.728855 77.202673
L 804.48681 75.576844
L 805.244765 79.198481
L 806.00272 71.566182
L 806.760675 74.403937
L 807.51863 78.744752
L 808.276585 72.749627
L 809.03454 75.370227
L 809.792495 84.936001
L 810.55045 76.686971
L 811.308405 83.095095
L 812.06636 86.61296
L 812.824315 73.827976
L 813.58227 78.553365
L 814.340225 75.132712
L 815.09818 81.943776
L 815.856135 84.462277
L 816.61409 81.357963
L 817.372045 59.316554
L 817.372045 59.316554
" style="fill:none;stroke:#1f77b4;stroke-linecap:square;stroke-width:1.5;"/>
   </g>
   <g id="patch_5">
    <path d="M 60.175 138.2
L 60.175 14.8
" style="fill:none;stroke:#000000;stroke-linecap:square;stroke-linejoin:miter;stroke-width:0.8;"/>
   </g>
   <g id="patch_6">
    <path d="M 818.13 138.2
L 818.13 14.8
" style="fill:none;stroke:#000000;stroke-linecap:square;stroke-linejoin:miter;stroke-width:0.8;"/>
   </g>
   <g id="patch_7">
    <path d="M 60.175 138.2
L 818.13 138.2
" style="fill:none;stroke:#000000;stroke-linecap:square;stroke-linejoin:miter;stroke-width:0.8;"/>
   </g>
   <g id="patch_8">
    <path d="M 60.175 14.8
L 818.13 14.8
" style="fill:none;stroke:#000000;stroke-linecap:square;stroke-linejoin:miter;stroke-width:0.8;"/>
   </g>
   <g id="legend_1">
    <g id="patch_9">
     <path d="M 719.322187 52.15625
L 811.13 52.15625
Q 813.13 52.15625 813.13 50.15625
L 813.13 21.8
Q 813.13 19.8 811.13 19.8
L 719.322187 19.8
Q 717.322187 19.8 717.322187 21.8
L 717.322187 50.15625
Q 717.322187 52.15625 719.322187 52.15625
z
" style="fill:#ffffff;opacity:0.8;stroke:#cccccc;stroke-linejoin:miter;"/>
    </g>
    <g id="patch_10">
     <path d="M 721.322187 31.398438
L 741.322187 31.398438
L 741.322187 24.398438
L 721.322187 24.398438
z
" style="fill:#ff0000;opacity:0.2;"/>
    </g>
    <g id="text_14">
     <!-- Direktsignal -->
     <g transform="translate(749.322187 31.398438)scale(0.1 -0.1)">
      <defs>
       <path d="M 1259 4147
L 1259 519
L 2022 519
Q 2988 519 3436 956
Q 3884 1394 3884 2338
Q 3884 3275 3436 3711
Q 2988 4147 2022 4147
L 1259 4147
z
M 628 4666
L 1925 4666
Q 3281 4666 3915 4102
Q 4550 3538 4550 2338
Q 4550 1131 3912 565
Q 3275 0 1925 0
L 628 0
L 628 4666
z
" id="DejaVuSans-44" transform="scale(0.015625)"/>
       <path d="M 603 3500
L 1178 3500
L 1178 0
L 603 0
L 603 3500
z
M 603 4863
L 1178 4863
L 1178 4134
L 603 4134
L 603 4863
z
" id="DejaVuSans-69" transform="scale(0.015625)"/>
       <path d="M 2631 2963
Q 2534 3019 2420 3045
Q 2306 3072 2169 3072
Q 1681 3072 1420 2755
Q 1159 2438 1159 1844
L 1159 0
L 581 0
L 581 3500
L 1159 3500
L 1159 2956
Q 1341 3275 1631 3429
Q 1922 3584 2338 3584
Q 2397 3584 2469 3576
Q 2541 3569 2628 3553
L 2631 2963
z
" id="DejaVuSans-72" transform="scale(0.015625)"/>
       <path d="M 581 4863
L 1159 4863
L 1159 1991
L 2875 3500
L 3609 3500
L 1753 1863
L 3688 0
L 2938 0
L 1159 1709
L 1159 0
L 581 0
L 581 4863
z
" id="DejaVuSans-6b" transform="scale(0.015625)"/>
       <path d="M 1172 4494
L 1172 3500
L 2356 3500
L 2356 3053
L 1172 3053
L 1172 1153
Q 1172 725 1289 603
Q 1406 481 1766 481
L 2356 481
L 2356 0
L 1766 0
Q 1100 0 847 248
Q 594 497 594 1153
L 594 3053
L 172 3053
L 172 3500
L 594 3500
L 594 4494
L 1172 4494
z
" id="DejaVuSans-74" transform="scale(0.015625)"/>
       <path d="M 2906 1791
Q 2906 2416 2648 2759
Q 2391 3103 1925 3103
Q 1463 3103 1205 2759
Q 947 2416 947 1791
Q 947 1169 1205 825
Q 1463 481 1925 481
Q 2391 481 2648 825
Q 2906 1169 2906 1791
z
M 3481 434
Q 3481 -459 3084 -895
Q 2688 -1331 1869 -1331
Q 1566 -1331 1297 -1286
Q 1028 -1241 775 -1147
L 775 -588
Q 1028 -725 1275 -790
Q 1522 -856 1778 -856
Q 2344 -856 2625 -561
Q 2906 -266 2906 331
L 2906 616
Q 2728 306 2450 153
Q 2172 0 1784 0
Q 1141 0 747 490
Q 353 981 353 1791
Q 353 2603 747 3093
Q 1141 3584 1784 3584
Q 2172 3584 2450 3431
Q 2728 3278 2906 2969
L 2906 3500
L 3481 3500
L 3481 434
z
" id="DejaVuSans-67" transform="scale(0.015625)"/>
       <path d="M 3513 2113
L 3513 0
L 2938 0
L 2938 2094
Q 2938 2591 2744 2837
Q 2550 3084 2163 3084
Q 1697 3084 1428 2787
Q 1159 2491 1159 1978
L 1159 0
L 581 0
L 581 3500
L 1159 3500
L 1159 2956
Q 1366 3272 1645 3428
Q 1925 3584 2291 3584
Q 2894 3584 3203 3211
Q 3513 2838 3513 2113
z
" id="DejaVuSans-6e" transform="scale(0.015625)"/>
      </defs>
      <use xlink:href="#DejaVuSans-44"/>
      <use x="77.001953" xlink:href="#DejaVuSans-69"/>
      <use x="104.785156" xlink:href="#DejaVuSans-72"/>
      <use x="143.648438" xlink:href="#DejaVuSans-65"/>
      <use x="205.171875" xlink:href="#DejaVuSans-6b"/>
      <use x="263.082031" xlink:href="#DejaVuSans-74"/>
      <use x="302.291016" xlink:href="#DejaVuSans-73"/>
      <use x="354.390625" xlink:href="#DejaVuSans-69"/>
      <use x="382.173828" xlink:href="#DejaVuSans-67"/>
      <use x="445.650391" xlink:href="#DejaVuSans-6e"/>
      <use x="509.029297" xlink:href="#DejaVuSans-61"/>
      <use x="570.308594" xlink:href="#DejaVuSans-6c"/>
     </g>
    </g>
    <g id="patch_11">
     <path d="M 721.322187 46.076562
L 741.322187 46.076562
L 741.322187 39.076562
L 721.322187 39.076562
z
" style="fill:#0000ff;opacity:0.2;"/>
    </g>
    <g id="text_15">
     <!-- Zielecho -->
     <g transform="translate(749.322187 46.076562)scale(0.1 -0.1)">
      <defs>
       <path d="M 359 4666
L 4025 4666
L 4025 4184
L 1075 531
L 4097 531
L 4097 0
L 288 0
L 288 481
L 3238 4134
L 359 4134
L 359 4666
z
" id="DejaVuSans-5a" transform="scale(0.015625)"/>
       <path d="M 3122 3366
L 3122 2828
Q 2878 2963 2633 3030
Q 2388 3097 2138 3097
Q 1578 3097 1268 2742
Q 959 2388 959 1747
Q 959 1106 1268 751
Q 1578 397 2138 397
Q 2388 397 2633 464
Q 2878 531 3122 666
L 3122 134
Q 2881 22 2623 -34
Q 2366 -91 2075 -91
Q 1284 -91 818 406
Q 353 903 353 1747
Q 353 2603 823 3093
Q 1294 3584 2113 3584
Q 2378 3584 2631 3529
Q 2884 3475 3122 3366
z
" id="DejaVuSans-63" transform="scale(0.015625)"/>
       <path d="M 3513 2113
L 3513 0
L 2938 0
L 2938 2094
Q 2938 2591 2744 2837
Q 2550 3084 2163 3084
Q 1697 3084 1428 2787
Q 1159 2491 1159 1978
L 1159 0
L 581 0
L 581 4863
L 1159 4863
L 1159 2956
Q 1366 3272 1645 3428
Q 1925 3584 2291 3584
Q 2894 3584 3203 3211
Q 3513 2838 3513 2113
z
" id="DejaVuSans-68" transform="scale(0.015625)"/>
       <path d="M 1959 3097
Q 1497 3097 1228 2736
Q 959 2375 959 1747
Q 959 1119 1226 758
Q 1494 397 1959 397
Q 2419 397 2687 759
Q 2956 1122 2956 1747
Q 2956 2369 2687 2733
Q 2419 3097 1959 3097
z
M 1959 3584
Q 2709 3584 3137 3096
Q 3566 2609 3566 1747
Q 3566 888 3137 398
Q 2709 -91 1959 -91
Q 1206 -91 779 398
Q 353 888 353 1747
Q 353 2609 779 3096
Q 1206 3584 1959 3584
z
" id="DejaVuSans-6f" transform="scale(0.015625)"/>
      </defs>
      <use xlink:href="#DejaVuSans-5a"/>
      <use x="68.505859" xlink:href="#DejaVuSans-69"/>
      <use x="96.289062" xlink:href="#DejaVuSans-65"/>
      <use x="157.8125" xlink:href="#DejaVuSans-6c"/>
      <use x="185.595703" xlink:href="#DejaVuSans-65"/>
      <use x="247.119141" xlink:href="#DejaVuSans-63"/>
      <use x="302.099609" xlink:href="#DejaVuSans-68"/>
      <use x="365.478516" xlink:href="#DejaVuSans-6f"/>
     </g>
    </g>
   </g>
  </g>
 </g>
 <defs>
  <clipPath id="p4647c374d9">
   <rect height="123.4" width="757.955" x="60.175" y="14.8"/>
  </clipPath>
 </defs>
</svg>
