<?xml version="1.0" encoding="utf-8" standalone="no"?>
<!DOCTYPE svg PUBLIC "-//W3C//DTD SVG 1.1//EN"
  "http://www.w3.org/Graphics/SVG/1.1/DTD/svg11.dtd">
<svg height="180pt" version="1.1" viewBox="0 0 841.68 180" width="841.68pt" xmlns="http://www.w3.org/2000/svg" xmlns:xlink="http://www.w3.org/1999/xlink">
 <metadata>
  <rdf:RDF xmlns:cc="http://creativecommons.org/ns#" xmlns:dc="http://purl.org/dc/elements/1.1/" xmlns:rdf="http://www.w3.org/1999/02/22-rdf-syntax-ns#">
   <cc:Work>
    <dc:type rdf:resource="http://purl.org/dc/dcmitype/StillImage"/>
    <dc:date>2021-10-16T19:12:50.665767</dc:date>
    <dc:format>image/svg+xml</dc:format>
    <dc:creator>
     <cc:Agent>
      <dc:title>Matplotlib v3.4.3, https://matplotlib.org/</dc:title>
     </cc:Agent>
    </dc:creator>
   </cc:Work>
  </rdf:RDF>
 </metadata>
 <defs>
  <style type="text/css">*{stroke-linecap:butt;stroke-linejoin:round;}</style>
 </defs>
 <g id="figure_1">
  <g id="patch_1">
   <path d="M 0 180
L 841.68 180
L 841.68 0
L 0 0
z
" style="fill:none;"/>
  </g>
  <g id="axes_1">
   <g id="patch_2">
    <path d="M 60.175 138.2
L 818.13 138.2
L 818.13 14.8
L 60.175 14.8
z
" style="fill:#ffffff;"/>
   </g>
   <g id="patch_3">
    <path clip-path="url(#p072b260007)" d="M 60.175 138.2
L 60.175 14.8
L 98.07275 14.8
L 98.07275 138.2
z
" style="fill:#ff0000;opacity:0.2;"/>
   </g>
   <g id="matplotlib.axis_1">
    <g id="xtick_1">
     <g id="line2d_1">
      <path clip-path="url(#p072b260007)" d="M 60.175 138.2
L 60.175 14.8
" style="fill:none;stroke:#b0b0b0;stroke-linecap:square;stroke-width:0.8;"/>
     </g>
     <g id="line2d_2">
      <defs>
       <path d="M 0 0
L 0 3.5
" id="m72689dc8d5" style="stroke:#000000;stroke-width:0.8;"/>
      </defs>
      <g>
       <use style="stroke:#000000;stroke-width:0.8;" x="60.175" xlink:href="#m72689dc8d5" y="138.2"/>
      </g>
     </g>
     <g id="text_1">
      <!-- 0 -->
      <g transform="translate(56.99375 152.798438)scale(0.1 -0.1)">
       <defs>
        <path d="M 2034 4250
Q 1547 4250 1301 3770
Q 1056 3291 1056 2328
Q 1056 1369 1301 889
Q 1547 409 2034 409
Q 2525 409 2770 889
Q 3016 1369 3016 2328
Q 3016 3291 2770 3770
Q 2525 4250 2034 4250
z
M 2034 4750
Q 2819 4750 3233 4129
Q 3647 3509 3647 2328
Q 3647 1150 3233 529
Q 2819 -91 2034 -91
Q 1250 -91 836 529
Q 422 1150 422 2328
Q 422 3509 836 4129
Q 1250 4750 2034 4750
z
" id="DejaVuSans-30" transform="scale(0.015625)"/>
       </defs>
       <use xlink:href="#DejaVuSans-30"/>
      </g>
     </g>
    </g>
    <g id="xtick_2">
     <g id="line2d_3">
      <path clip-path="url(#p072b260007)" d="M 211.766 138.2
L 211.766 14.8
" style="fill:none;stroke:#b0b0b0;stroke-linecap:square;stroke-width:0.8;"/>
     </g>
     <g id="line2d_4">
      <g>
       <use style="stroke:#000000;stroke-width:0.8;" x="211.766" xlink:href="#m72689dc8d5" y="138.2"/>
      </g>
     </g>
     <g id="text_2">
      <!-- 200 -->
      <g transform="translate(202.22225 152.798438)scale(0.1 -0.1)">
       <defs>
        <path d="M 1228 531
L 3431 531
L 3431 0
L 469 0
L 469 531
Q 828 903 1448 1529
Q 2069 2156 2228 2338
Q 2531 2678 2651 2914
Q 2772 3150 2772 3378
Q 2772 3750 2511 3984
Q 2250 4219 1831 4219
Q 1534 4219 1204 4116
Q 875 4013 500 3803
L 500 4441
Q 881 4594 1212 4672
Q 1544 4750 1819 4750
Q 2544 4750 2975 4387
Q 3406 4025 3406 3419
Q 3406 3131 3298 2873
Q 3191 2616 2906 2266
Q 2828 2175 2409 1742
Q 1991 1309 1228 531
z
" id="DejaVuSans-32" transform="scale(0.015625)"/>
       </defs>
       <use xlink:href="#DejaVuSans-32"/>
       <use x="63.623047" xlink:href="#DejaVuSans-30"/>
       <use x="127.246094" xlink:href="#DejaVuSans-30"/>
      </g>
     </g>
    </g>
    <g id="xtick_3">
     <g id="line2d_5">
      <path clip-path="url(#p072b260007)" d="M 363.357 138.2
L 363.357 14.8
" style="fill:none;stroke:#b0b0b0;stroke-linecap:square;stroke-width:0.8;"/>
     </g>
     <g id="line2d_6">
      <g>
       <use style="stroke:#000000;stroke-width:0.8;" x="363.357" xlink:href="#m72689dc8d5" y="138.2"/>
      </g>
     </g>
     <g id="text_3">
      <!-- 400 -->
      <g transform="translate(353.81325 152.798438)scale(0.1 -0.1)">
       <defs>
        <path d="M 2419 4116
L 825 1625
L 2419 1625
L 2419 4116
z
M 2253 4666
L 3047 4666
L 3047 1625
L 3713 1625
L 3713 1100
L 3047 1100
L 3047 0
L 2419 0
L 2419 1100
L 313 1100
L 313 1709
L 2253 4666
z
" id="DejaVuSans-34" transform="scale(0.015625)"/>
       </defs>
       <use xlink:href="#DejaVuSans-34"/>
       <use x="63.623047" xlink:href="#DejaVuSans-30"/>
       <use x="127.246094" xlink:href="#DejaVuSans-30"/>
      </g>
     </g>
    </g>
    <g id="xtick_4">
     <g id="line2d_7">
      <path clip-path="url(#p072b260007)" d="M 514.948 138.2
L 514.948 14.8
" style="fill:none;stroke:#b0b0b0;stroke-linecap:square;stroke-width:0.8;"/>
     </g>
     <g id="line2d_8">
      <g>
       <use style="stroke:#000000;stroke-width:0.8;" x="514.948" xlink:href="#m72689dc8d5" y="138.2"/>
      </g>
     </g>
     <g id="text_4">
      <!-- 600 -->
      <g transform="translate(505.40425 152.798438)scale(0.1 -0.1)">
       <defs>
        <path d="M 2113 2584
Q 1688 2584 1439 2293
Q 1191 2003 1191 1497
Q 1191 994 1439 701
Q 1688 409 2113 409
Q 2538 409 2786 701
Q 3034 994 3034 1497
Q 3034 2003 2786 2293
Q 2538 2584 2113 2584
z
M 3366 4563
L 3366 3988
Q 3128 4100 2886 4159
Q 2644 4219 2406 4219
Q 1781 4219 1451 3797
Q 1122 3375 1075 2522
Q 1259 2794 1537 2939
Q 1816 3084 2150 3084
Q 2853 3084 3261 2657
Q 3669 2231 3669 1497
Q 3669 778 3244 343
Q 2819 -91 2113 -91
Q 1303 -91 875 529
Q 447 1150 447 2328
Q 447 3434 972 4092
Q 1497 4750 2381 4750
Q 2619 4750 2861 4703
Q 3103 4656 3366 4563
z
" id="DejaVuSans-36" transform="scale(0.015625)"/>
       </defs>
       <use xlink:href="#DejaVuSans-36"/>
       <use x="63.623047" xlink:href="#DejaVuSans-30"/>
       <use x="127.246094" xlink:href="#DejaVuSans-30"/>
      </g>
     </g>
    </g>
    <g id="xtick_5">
     <g id="line2d_9">
      <path clip-path="url(#p072b260007)" d="M 666.539 138.2
L 666.539 14.8
" style="fill:none;stroke:#b0b0b0;stroke-linecap:square;stroke-width:0.8;"/>
     </g>
     <g id="line2d_10">
      <g>
       <use style="stroke:#000000;stroke-width:0.8;" x="666.539" xlink:href="#m72689dc8d5" y="138.2"/>
      </g>
     </g>
     <g id="text_5">
      <!-- 800 -->
      <g transform="translate(656.99525 152.798438)scale(0.1 -0.1)">
       <defs>
        <path d="M 2034 2216
Q 1584 2216 1326 1975
Q 1069 1734 1069 1313
Q 1069 891 1326 650
Q 1584 409 2034 409
Q 2484 409 2743 651
Q 3003 894 3003 1313
Q 3003 1734 2745 1975
Q 2488 2216 2034 2216
z
M 1403 2484
Q 997 2584 770 2862
Q 544 3141 544 3541
Q 544 4100 942 4425
Q 1341 4750 2034 4750
Q 2731 4750 3128 4425
Q 3525 4100 3525 3541
Q 3525 3141 3298 2862
Q 3072 2584 2669 2484
Q 3125 2378 3379 2068
Q 3634 1759 3634 1313
Q 3634 634 3220 271
Q 2806 -91 2034 -91
Q 1263 -91 848 271
Q 434 634 434 1313
Q 434 1759 690 2068
Q 947 2378 1403 2484
z
M 1172 3481
Q 1172 3119 1398 2916
Q 1625 2713 2034 2713
Q 2441 2713 2670 2916
Q 2900 3119 2900 3481
Q 2900 3844 2670 4047
Q 2441 4250 2034 4250
Q 1625 4250 1398 4047
Q 1172 3844 1172 3481
z
" id="DejaVuSans-38" transform="scale(0.015625)"/>
       </defs>
       <use xlink:href="#DejaVuSans-38"/>
       <use x="63.623047" xlink:href="#DejaVuSans-30"/>
       <use x="127.246094" xlink:href="#DejaVuSans-30"/>
      </g>
     </g>
    </g>
    <g id="xtick_6">
     <g id="line2d_11">
      <path clip-path="url(#p072b260007)" d="M 818.13 138.2
L 818.13 14.8
" style="fill:none;stroke:#b0b0b0;stroke-linecap:square;stroke-width:0.8;"/>
     </g>
     <g id="line2d_12">
      <g>
       <use style="stroke:#000000;stroke-width:0.8;" x="818.13" xlink:href="#m72689dc8d5" y="138.2"/>
      </g>
     </g>
     <g id="text_6">
      <!-- 1000 -->
      <g transform="translate(805.405 152.798438)scale(0.1 -0.1)">
       <defs>
        <path d="M 794 531
L 1825 531
L 1825 4091
L 703 3866
L 703 4441
L 1819 4666
L 2450 4666
L 2450 531
L 3481 531
L 3481 0
L 794 0
L 794 531
z
" id="DejaVuSans-31" transform="scale(0.015625)"/>
       </defs>
       <use xlink:href="#DejaVuSans-31"/>
       <use x="63.623047" xlink:href="#DejaVuSans-30"/>
       <use x="127.246094" xlink:href="#DejaVuSans-30"/>
       <use x="190.869141" xlink:href="#DejaVuSans-30"/>
      </g>
     </g>
    </g>
    <g id="text_7">
     <!-- Samples -->
     <g transform="translate(417.799375 166.476562)scale(0.1 -0.1)">
      <defs>
       <path d="M 3425 4513
L 3425 3897
Q 3066 4069 2747 4153
Q 2428 4238 2131 4238
Q 1616 4238 1336 4038
Q 1056 3838 1056 3469
Q 1056 3159 1242 3001
Q 1428 2844 1947 2747
L 2328 2669
Q 3034 2534 3370 2195
Q 3706 1856 3706 1288
Q 3706 609 3251 259
Q 2797 -91 1919 -91
Q 1588 -91 1214 -16
Q 841 59 441 206
L 441 856
Q 825 641 1194 531
Q 1563 422 1919 422
Q 2459 422 2753 634
Q 3047 847 3047 1241
Q 3047 1584 2836 1778
Q 2625 1972 2144 2069
L 1759 2144
Q 1053 2284 737 2584
Q 422 2884 422 3419
Q 422 4038 858 4394
Q 1294 4750 2059 4750
Q 2388 4750 2728 4690
Q 3069 4631 3425 4513
z
" id="DejaVuSans-53" transform="scale(0.015625)"/>
       <path d="M 2194 1759
Q 1497 1759 1228 1600
Q 959 1441 959 1056
Q 959 750 1161 570
Q 1363 391 1709 391
Q 2188 391 2477 730
Q 2766 1069 2766 1631
L 2766 1759
L 2194 1759
z
M 3341 1997
L 3341 0
L 2766 0
L 2766 531
Q 2569 213 2275 61
Q 1981 -91 1556 -91
Q 1019 -91 701 211
Q 384 513 384 1019
Q 384 1609 779 1909
Q 1175 2209 1959 2209
L 2766 2209
L 2766 2266
Q 2766 2663 2505 2880
Q 2244 3097 1772 3097
Q 1472 3097 1187 3025
Q 903 2953 641 2809
L 641 3341
Q 956 3463 1253 3523
Q 1550 3584 1831 3584
Q 2591 3584 2966 3190
Q 3341 2797 3341 1997
z
" id="DejaVuSans-61" transform="scale(0.015625)"/>
       <path d="M 3328 2828
Q 3544 3216 3844 3400
Q 4144 3584 4550 3584
Q 5097 3584 5394 3201
Q 5691 2819 5691 2113
L 5691 0
L 5113 0
L 5113 2094
Q 5113 2597 4934 2840
Q 4756 3084 4391 3084
Q 3944 3084 3684 2787
Q 3425 2491 3425 1978
L 3425 0
L 2847 0
L 2847 2094
Q 2847 2600 2669 2842
Q 2491 3084 2119 3084
Q 1678 3084 1418 2786
Q 1159 2488 1159 1978
L 1159 0
L 581 0
L 581 3500
L 1159 3500
L 1159 2956
Q 1356 3278 1631 3431
Q 1906 3584 2284 3584
Q 2666 3584 2933 3390
Q 3200 3197 3328 2828
z
" id="DejaVuSans-6d" transform="scale(0.015625)"/>
       <path d="M 1159 525
L 1159 -1331
L 581 -1331
L 581 3500
L 1159 3500
L 1159 2969
Q 1341 3281 1617 3432
Q 1894 3584 2278 3584
Q 2916 3584 3314 3078
Q 3713 2572 3713 1747
Q 3713 922 3314 415
Q 2916 -91 2278 -91
Q 1894 -91 1617 61
Q 1341 213 1159 525
z
M 3116 1747
Q 3116 2381 2855 2742
Q 2594 3103 2138 3103
Q 1681 3103 1420 2742
Q 1159 2381 1159 1747
Q 1159 1113 1420 752
Q 1681 391 2138 391
Q 2594 391 2855 752
Q 3116 1113 3116 1747
z
" id="DejaVuSans-70" transform="scale(0.015625)"/>
       <path d="M 603 4863
L 1178 4863
L 1178 0
L 603 0
L 603 4863
z
" id="DejaVuSans-6c" transform="scale(0.015625)"/>
       <path d="M 3597 1894
L 3597 1613
L 953 1613
Q 991 1019 1311 708
Q 1631 397 2203 397
Q 2534 397 2845 478
Q 3156 559 3463 722
L 3463 178
Q 3153 47 2828 -22
Q 2503 -91 2169 -91
Q 1331 -91 842 396
Q 353 884 353 1716
Q 353 2575 817 3079
Q 1281 3584 2069 3584
Q 2775 3584 3186 3129
Q 3597 2675 3597 1894
z
M 3022 2063
Q 3016 2534 2758 2815
Q 2500 3097 2075 3097
Q 1594 3097 1305 2825
Q 1016 2553 972 2059
L 3022 2063
z
" id="DejaVuSans-65" transform="scale(0.015625)"/>
       <path d="M 2834 3397
L 2834 2853
Q 2591 2978 2328 3040
Q 2066 3103 1784 3103
Q 1356 3103 1142 2972
Q 928 2841 928 2578
Q 928 2378 1081 2264
Q 1234 2150 1697 2047
L 1894 2003
Q 2506 1872 2764 1633
Q 3022 1394 3022 966
Q 3022 478 2636 193
Q 2250 -91 1575 -91
Q 1294 -91 989 -36
Q 684 19 347 128
L 347 722
Q 666 556 975 473
Q 1284 391 1588 391
Q 1994 391 2212 530
Q 2431 669 2431 922
Q 2431 1156 2273 1281
Q 2116 1406 1581 1522
L 1381 1569
Q 847 1681 609 1914
Q 372 2147 372 2553
Q 372 3047 722 3315
Q 1072 3584 1716 3584
Q 2034 3584 2315 3537
Q 2597 3491 2834 3397
z
" id="DejaVuSans-73" transform="scale(0.015625)"/>
      </defs>
      <use xlink:href="#DejaVuSans-53"/>
      <use x="63.476562" xlink:href="#DejaVuSans-61"/>
      <use x="124.755859" xlink:href="#DejaVuSans-6d"/>
      <use x="222.167969" xlink:href="#DejaVuSans-70"/>
      <use x="285.644531" xlink:href="#DejaVuSans-6c"/>
      <use x="313.427734" xlink:href="#DejaVuSans-65"/>
      <use x="374.951172" xlink:href="#DejaVuSans-73"/>
     </g>
    </g>
   </g>
   <g id="matplotlib.axis_2">
    <g id="ytick_1">
     <g id="line2d_13">
      <path clip-path="url(#p072b260007)" d="M 60.175 138.2
L 818.13 138.2
" style="fill:none;stroke:#b0b0b0;stroke-linecap:square;stroke-width:0.8;"/>
     </g>
     <g id="line2d_14">
      <defs>
       <path d="M 0 0
L -3.5 0
" id="m8b75145f8c" style="stroke:#000000;stroke-width:0.8;"/>
      </defs>
      <g>
       <use style="stroke:#000000;stroke-width:0.8;" x="60.175" xlink:href="#m8b75145f8c" y="138.2"/>
      </g>
     </g>
     <g id="text_8">
      <!-- −1.0 -->
      <g transform="translate(28.892188 141.999219)scale(0.1 -0.1)">
       <defs>
        <path d="M 678 2272
L 4684 2272
L 4684 1741
L 678 1741
L 678 2272
z
" id="DejaVuSans-2212" transform="scale(0.015625)"/>
        <path d="M 684 794
L 1344 794
L 1344 0
L 684 0
L 684 794
z
" id="DejaVuSans-2e" transform="scale(0.015625)"/>
       </defs>
       <use xlink:href="#DejaVuSans-2212"/>
       <use x="83.789062" xlink:href="#DejaVuSans-31"/>
       <use x="147.412109" xlink:href="#DejaVuSans-2e"/>
       <use x="179.199219" xlink:href="#DejaVuSans-30"/>
      </g>
     </g>
    </g>
    <g id="ytick_2">
     <g id="line2d_15">
      <path clip-path="url(#p072b260007)" d="M 60.175 107.35
L 818.13 107.35
" style="fill:none;stroke:#b0b0b0;stroke-linecap:square;stroke-width:0.8;"/>
     </g>
     <g id="line2d_16">
      <g>
       <use style="stroke:#000000;stroke-width:0.8;" x="60.175" xlink:href="#m8b75145f8c" y="107.35"/>
      </g>
     </g>
     <g id="text_9">
      <!-- −0.5 -->
      <g transform="translate(28.892188 111.149219)scale(0.1 -0.1)">
       <defs>
        <path d="M 691 4666
L 3169 4666
L 3169 4134
L 1269 4134
L 1269 2991
Q 1406 3038 1543 3061
Q 1681 3084 1819 3084
Q 2600 3084 3056 2656
Q 3513 2228 3513 1497
Q 3513 744 3044 326
Q 2575 -91 1722 -91
Q 1428 -91 1123 -41
Q 819 9 494 109
L 494 744
Q 775 591 1075 516
Q 1375 441 1709 441
Q 2250 441 2565 725
Q 2881 1009 2881 1497
Q 2881 1984 2565 2268
Q 2250 2553 1709 2553
Q 1456 2553 1204 2497
Q 953 2441 691 2322
L 691 4666
z
" id="DejaVuSans-35" transform="scale(0.015625)"/>
       </defs>
       <use xlink:href="#DejaVuSans-2212"/>
       <use x="83.789062" xlink:href="#DejaVuSans-30"/>
       <use x="147.412109" xlink:href="#DejaVuSans-2e"/>
       <use x="179.199219" xlink:href="#DejaVuSans-35"/>
      </g>
     </g>
    </g>
    <g id="ytick_3">
     <g id="line2d_17">
      <path clip-path="url(#p072b260007)" d="M 60.175 76.5
L 818.13 76.5
" style="fill:none;stroke:#b0b0b0;stroke-linecap:square;stroke-width:0.8;"/>
     </g>
     <g id="line2d_18">
      <g>
       <use style="stroke:#000000;stroke-width:0.8;" x="60.175" xlink:href="#m8b75145f8c" y="76.5"/>
      </g>
     </g>
     <g id="text_10">
      <!-- 0.0 -->
      <g transform="translate(37.271875 80.299219)scale(0.1 -0.1)">
       <use xlink:href="#DejaVuSans-30"/>
       <use x="63.623047" xlink:href="#DejaVuSans-2e"/>
       <use x="95.410156" xlink:href="#DejaVuSans-30"/>
      </g>
     </g>
    </g>
    <g id="ytick_4">
     <g id="line2d_19">
      <path clip-path="url(#p072b260007)" d="M 60.175 45.65
L 818.13 45.65
" style="fill:none;stroke:#b0b0b0;stroke-linecap:square;stroke-width:0.8;"/>
     </g>
     <g id="line2d_20">
      <g>
       <use style="stroke:#000000;stroke-width:0.8;" x="60.175" xlink:href="#m8b75145f8c" y="45.65"/>
      </g>
     </g>
     <g id="text_11">
      <!-- 0.5 -->
      <g transform="translate(37.271875 49.449219)scale(0.1 -0.1)">
       <use xlink:href="#DejaVuSans-30"/>
       <use x="63.623047" xlink:href="#DejaVuSans-2e"/>
       <use x="95.410156" xlink:href="#DejaVuSans-35"/>
      </g>
     </g>
    </g>
    <g id="ytick_5">
     <g id="line2d_21">
      <path clip-path="url(#p072b260007)" d="M 60.175 14.8
L 818.13 14.8
" style="fill:none;stroke:#b0b0b0;stroke-linecap:square;stroke-width:0.8;"/>
     </g>
     <g id="line2d_22">
      <g>
       <use style="stroke:#000000;stroke-width:0.8;" x="60.175" xlink:href="#m8b75145f8c" y="14.8"/>
      </g>
     </g>
     <g id="text_12">
      <!-- 1.0 -->
      <g transform="translate(37.271875 18.599219)scale(0.1 -0.1)">
       <use xlink:href="#DejaVuSans-31"/>
       <use x="63.623047" xlink:href="#DejaVuSans-2e"/>
       <use x="95.410156" xlink:href="#DejaVuSans-30"/>
      </g>
     </g>
    </g>
    <g id="text_13">
     <!-- $y_{ref}(t)$ -->
     <g transform="translate(22.792188 90.3)rotate(-90)scale(0.1 -0.1)">
      <defs>
       <path d="M 1588 -325
Q 1188 -997 936 -1164
Q 684 -1331 294 -1331
L -159 -1331
L -63 -850
L 269 -850
Q 509 -850 678 -719
Q 847 -588 1056 -206
L 1234 128
L 459 3500
L 1069 3500
L 1650 819
L 3256 3500
L 3859 3500
L 1588 -325
z
" id="DejaVuSans-Oblique-79" transform="scale(0.015625)"/>
       <path d="M 2853 2969
Q 2766 3016 2653 3041
Q 2541 3066 2413 3066
Q 1953 3066 1609 2717
Q 1266 2369 1153 1784
L 800 0
L 225 0
L 909 3500
L 1484 3500
L 1375 2956
Q 1603 3259 1920 3421
Q 2238 3584 2597 3584
Q 2691 3584 2781 3573
Q 2872 3563 2963 3538
L 2853 2969
z
" id="DejaVuSans-Oblique-72" transform="scale(0.015625)"/>
       <path d="M 3078 2063
Q 3088 2113 3092 2166
Q 3097 2219 3097 2272
Q 3097 2653 2873 2875
Q 2650 3097 2266 3097
Q 1838 3097 1509 2826
Q 1181 2556 1013 2059
L 3078 2063
z
M 3578 1613
L 903 1613
Q 884 1494 878 1425
Q 872 1356 872 1306
Q 872 872 1139 634
Q 1406 397 1894 397
Q 2269 397 2603 481
Q 2938 566 3225 728
L 3116 159
Q 2806 34 2476 -28
Q 2147 -91 1806 -91
Q 1078 -91 686 257
Q 294 606 294 1247
Q 294 1794 489 2264
Q 684 2734 1063 3103
Q 1306 3334 1642 3459
Q 1978 3584 2356 3584
Q 2950 3584 3301 3228
Q 3653 2872 3653 2272
Q 3653 2128 3634 1964
Q 3616 1800 3578 1613
z
" id="DejaVuSans-Oblique-65" transform="scale(0.015625)"/>
       <path d="M 3059 4863
L 2969 4384
L 2419 4384
Q 2106 4384 1964 4261
Q 1822 4138 1753 3809
L 1691 3500
L 2638 3500
L 2553 3053
L 1606 3053
L 1013 0
L 434 0
L 1031 3053
L 481 3053
L 563 3500
L 1113 3500
L 1159 3744
Q 1278 4363 1576 4613
Q 1875 4863 2516 4863
L 3059 4863
z
" id="DejaVuSans-Oblique-66" transform="scale(0.015625)"/>
       <path d="M 1984 4856
Q 1566 4138 1362 3434
Q 1159 2731 1159 2009
Q 1159 1288 1364 580
Q 1569 -128 1984 -844
L 1484 -844
Q 1016 -109 783 600
Q 550 1309 550 2009
Q 550 2706 781 3412
Q 1013 4119 1484 4856
L 1984 4856
z
" id="DejaVuSans-28" transform="scale(0.015625)"/>
       <path d="M 2706 3500
L 2619 3053
L 1472 3053
L 1100 1153
Q 1081 1047 1072 975
Q 1063 903 1063 863
Q 1063 663 1183 572
Q 1303 481 1569 481
L 2150 481
L 2053 0
L 1503 0
Q 991 0 739 200
Q 488 400 488 806
Q 488 878 497 964
Q 506 1050 525 1153
L 897 3053
L 409 3053
L 500 3500
L 978 3500
L 1172 4494
L 1747 4494
L 1556 3500
L 2706 3500
z
" id="DejaVuSans-Oblique-74" transform="scale(0.015625)"/>
       <path d="M 513 4856
L 1013 4856
Q 1481 4119 1714 3412
Q 1947 2706 1947 2009
Q 1947 1309 1714 600
Q 1481 -109 1013 -844
L 513 -844
Q 928 -128 1133 580
Q 1338 1288 1338 2009
Q 1338 2731 1133 3434
Q 928 4138 513 4856
z
" id="DejaVuSans-29" transform="scale(0.015625)"/>
      </defs>
      <use transform="translate(0 0.125)" xlink:href="#DejaVuSans-Oblique-79"/>
      <use transform="translate(59.179688 -16.28125)scale(0.7)" xlink:href="#DejaVuSans-Oblique-72"/>
      <use transform="translate(87.958984 -16.28125)scale(0.7)" xlink:href="#DejaVuSans-Oblique-65"/>
      <use transform="translate(131.025391 -16.28125)scale(0.7)" xlink:href="#DejaVuSans-Oblique-66"/>
      <use transform="translate(158.40332 0.125)" xlink:href="#DejaVuSans-28"/>
      <use transform="translate(197.416992 0.125)" xlink:href="#DejaVuSans-Oblique-74"/>
      <use transform="translate(236.625977 0.125)" xlink:href="#DejaVuSans-29"/>
     </g>
    </g>
   </g>
   <g id="line2d_23">
    <path clip-path="url(#p072b260007)" d="M 60.175 76.02777
L 60.932955 34.385274
L 61.69091 19.519598
L 62.448865 34.9642
L 63.20682 9.135385
L 63.964775 88.918864
L 64.72273 89.85324
L 65.480685 166.059528
L 66.23864 133.34972
L 66.996595 113.829113
L 67.75455 50.319231
L 68.512505 33.878329
L 69.27046 24.395349
L 70.028415 2.545239
L 70.78637 37.699489
L 71.544325 54.127882
L 72.30228 115.448283
L 73.060235 134.021172
L 73.81819 136.831237
L 74.576145 126.768106
L 75.3341 66.038339
L 76.092055 31.878099
L 76.85001 7.050831
L 77.607965 21.974292
L 78.36592 27.673194
L 79.123875 62.849842
L 79.88183 113.242728
L 80.639785 145.265696
L 81.39774 137.132195
L 82.155695 131.264316
L 82.91365 94.594984
L 83.671605 31.200633
L 84.42956 39.049238
L 85.187515 40.718167
L 85.94547 34.895829
L 86.703425 75.606033
L 87.46138 136.752264
L 88.219335 124.837394
L 88.97729 135.328455
L 89.735245 98.366995
L 90.4932 80.127906
L 91.251155 35.895271
L 92.00911 37.389726
L 92.767065 23.667043
L 93.52502 26.514163
L 94.282975 88.016768
L 95.04093 102.443322
L 95.798885 129.29922
L 96.55684 146.133948
L 97.314795 89.428044
L 98.07275 68.926148
L 98.830705 67.818131
L 99.58866 66.123567
L 100.346615 101.315315
L 101.10457 74.83406
L 101.862525 66.097055
L 102.62048 76.982179
L 103.378435 65.036914
L 104.13639 75.052944
L 104.894345 71.712769
L 105.6523 70.853072
L 106.410255 73.594675
L 107.16821 83.19285
L 107.926165 61.283633
L 108.68412 73.910738
L 109.442075 75.752025
L 110.20003 75.760197
L 110.957985 82.964001
L 111.71594 93.807257
L 112.473895 96.386229
L 113.23185 78.910158
L 113.989805 88.496915
L 114.74776 70.679907
L 115.505715 70.276653
L 116.26367 63.438599
L 117.021625 77.673326
L 117.77958 77.166016
L 118.537535 70.940708
L 119.29549 109.256843
L 120.053445 96.865257
L 120.8114 71.915617
L 121.569355 72.76763
L 122.32731 109.33725
L 123.085265 76.073883
L 123.84322 81.775345
L 124.601175 81.133637
L 125.35913 72.479375
L 126.117085 77.33335
L 126.87504 67.103158
L 127.632995 83.326115
L 128.39095 85.424012
L 129.148905 78.510733
L 129.90686 74.535666
L 130.664815 87.304624
L 131.42277 88.859197
L 132.180725 77.550663
L 132.93868 73.346472
L 133.696635 71.775217
L 134.45459 79.665852
L 135.212545 74.232679
L 135.9705 58.765222
L 136.728455 77.767783
L 137.48641 69.813337
L 138.244365 78.964889
L 139.00232 79.032383
L 139.760275 80.634318
L 140.51823 74.455235
L 141.276185 76.562742
L 142.03414 74.642789
L 142.792095 75.008708
L 143.55005 80.686926
L 144.308005 82.278469
L 145.06596 87.745635
L 145.823915 86.984455
L 146.58187 62.054728
L 147.339825 66.215626
L 148.09778 95.265598
L 148.855735 66.19604
L 150.371645 80.90863
L 151.1296 90.079113
L 151.887555 50.774817
L 152.64551 92.844989
L 153.403465 86.364795
L 154.16142 77.666407
L 154.919375 99.696377
L 155.67733 91.567684
L 156.435285 63.406433
L 157.19324 79.534764
L 157.951195 54.083642
L 158.70915 71.091832
L 159.467105 84.775501
L 160.22506 64.138809
L 160.983015 72.457472
L 161.74097 71.811463
L 162.498925 84.662486
L 163.25688 85.795277
L 164.014835 71.914607
L 164.77279 78.310478
L 165.530745 67.939036
L 166.2887 88.564417
L 167.046655 82.93406
L 167.80461 90.910575
L 168.562565 82.96615
L 169.32052 87.502133
L 170.078475 87.522928
L 170.83643 68.956546
L 171.594385 72.652893
L 172.35234 72.683423
L 173.110295 54.346013
L 173.86825 67.345498
L 174.626205 68.968394
L 176.142115 96.989004
L 176.90007 69.094715
L 177.658025 80.11547
L 178.41598 97.712432
L 179.173935 89.498105
L 179.93189 62.79475
L 180.689845 89.532794
L 181.4478 78.89467
L 182.205755 75.529615
L 182.96371 92.605841
L 183.721665 70.855372
L 184.47962 81.446843
L 185.237575 69.764438
L 185.99553 55.532463
L 186.753485 57.791711
L 187.51144 74.081612
L 188.269395 66.418363
L 189.02735 78.313559
L 189.785305 91.995624
L 191.301215 73.867108
L 192.05917 46.708749
L 192.817125 51.731703
L 193.57508 98.978268
L 194.333035 71.233683
L 195.09099 81.009534
L 195.848945 65.826976
L 196.6069 89.572825
L 197.364855 65.448956
L 198.12281 74.629612
L 198.880765 80.904096
L 199.63872 79.534739
L 200.396675 73.577733
L 201.15463 88.375098
L 201.912585 61.722247
L 202.67054 68.711938
L 203.428495 67.181779
L 204.18645 64.943084
L 204.944405 78.523765
L 205.70236 75.879126
L 206.460315 54.150181
L 207.21827 97.602277
L 207.976225 81.903094
L 208.73418 47.860458
L 209.492135 74.020661
L 210.25009 72.649483
L 211.008045 95.255154
L 211.766 73.939914
L 212.523955 84.262039
L 213.28191 89.315862
L 214.039865 97.281603
L 214.79782 95.13526
L 215.555775 58.156475
L 216.31373 61.741519
L 217.071685 61.390088
L 217.82964 84.690818
L 218.587595 81.798547
L 219.34555 76.529562
L 220.103505 64.409508
L 220.86146 82.329624
L 221.619415 59.530575
L 222.37737 68.510524
L 223.135325 64.261294
L 223.89328 67.547827
L 224.651235 66.340808
L 225.40919 80.216271
L 226.167145 72.945786
L 226.9251 88.380925
L 227.683055 72.061611
L 228.44101 71.904353
L 229.198965 63.707602
L 229.95692 77.055593
L 230.714875 59.47533
L 231.47283 74.430994
L 232.230785 83.263269
L 232.98874 60.890552
L 233.746695 65.098812
L 234.50465 98.311495
L 235.262605 81.654629
L 236.02056 74.658268
L 236.778515 82.323805
L 237.53647 92.605965
L 238.294425 76.395803
L 239.05238 62.778036
L 239.810335 65.804247
L 240.56829 96.786782
L 241.326245 61.374342
L 242.0842 68.096814
L 242.842155 84.934983
L 243.60011 69.53316
L 244.358065 82.198895
L 245.11602 76.341753
L 245.873975 69.113359
L 246.63193 62.9972
L 247.389885 78.485097
L 248.14784 80.120132
L 248.905795 77.834184
L 249.66375 73.285792
L 250.421705 62.351346
L 251.17966 81.150659
L 251.937615 78.292039
L 252.69557 65.745075
L 253.453525 80.842299
L 254.21148 83.676085
L 254.969435 62.512199
L 255.72739 79.766999
L 256.485345 67.78348
L 257.2433 88.531018
L 258.001255 56.831397
L 258.75921 65.915897
L 259.517165 77.084739
L 260.27512 85.274608
L 261.033075 64.843223
L 261.79103 80.064975
L 262.548985 71.59229
L 264.064895 80.355035
L 264.82285 68.531222
L 265.580805 84.595567
L 267.096715 53.422573
L 267.85467 105.221214
L 268.612625 87.703602
L 269.37058 88.387416
L 270.128535 78.423428
L 270.88649 74.857106
L 271.644445 78.752802
L 272.4024 84.579721
L 273.160355 72.987718
L 273.91831 71.539967
L 274.676265 103.849658
L 275.43422 70.63116
L 276.192175 60.494486
L 276.95013 83.614798
L 277.708085 67.75973
L 278.46604 71.162814
L 279.223995 77.903427
L 279.98195 91.368097
L 280.739905 86.940764
L 281.49786 95.613091
L 283.01377 61.794541
L 283.771725 64.062629
L 284.52968 78.618705
L 285.287635 77.735028
L 286.04559 85.11064
L 286.803545 83.405991
L 287.5615 59.616252
L 288.319455 84.902799
L 289.07741 82.862544
L 289.835365 64.971437
L 290.59332 78.449935
L 291.351275 82.932925
L 292.10923 63.951303
L 292.867185 85.549736
L 293.62514 86.826179
L 294.383095 81.634334
L 295.14105 86.866162
L 295.899005 71.981851
L 296.65696 65.751787
L 297.414915 83.817983
L 298.930825 53.864045
L 299.68878 74.373073
L 300.446735 37.610005
L 301.20469 100.814411
L 303.478555 75.094449
L 304.23651 84.404226
L 304.994465 73.625317
L 305.75242 98.216225
L 306.510375 67.896597
L 307.26833 71.429882
L 308.026285 65.577047
L 308.78424 83.746881
L 310.30015 70.820628
L 311.058105 79.286648
L 311.81606 91.016597
L 312.574015 76.501289
L 313.33197 79.624853
L 314.089925 77.499076
L 314.84788 76.740767
L 315.605835 96.454723
L 316.36379 81.52854
L 317.121745 85.742221
L 317.8797 85.226146
L 318.637655 60.983452
L 319.39561 65.614235
L 320.153565 65.266673
L 320.91152 76.355656
L 321.669475 68.620451
L 322.42743 90.576064
L 323.185385 58.165913
L 323.94334 90.867407
L 324.701295 82.739627
L 325.45925 64.908595
L 326.217205 57.214759
L 326.97516 71.524875
L 327.733115 60.790097
L 328.49107 73.011745
L 329.249025 80.911271
L 330.00698 80.787101
L 330.764935 58.9124
L 331.52289 69.447775
L 332.280845 70.026636
L 333.0388 79.838376
L 333.796755 84.552108
L 334.55471 88.375061
L 335.312665 72.25372
L 336.07062 85.023808
L 336.828575 77.702019
L 337.58653 76.773087
L 338.344485 66.22128
L 339.10244 71.36593
L 339.860395 60.119448
L 340.61835 76.4791
L 341.376305 60.73909
L 342.13426 69.015409
L 342.892215 72.698119
L 343.65017 100.720753
L 344.408125 61.085576
L 345.16608 88.94138
L 345.924035 73.721763
L 346.68199 89.570149
L 347.439945 60.873071
L 348.1979 92.379538
L 348.955855 73.520308
L 349.71381 75.302682
L 350.471765 82.843977
L 351.22972 88.772311
L 351.987675 85.411305
L 352.74563 92.540643
L 353.503585 82.684656
L 354.26154 62.646141
L 355.019495 84.170949
L 355.77745 55.339002
L 356.535405 68.21136
L 357.29336 77.436364
L 358.051315 92.329156
L 358.80927 86.506587
L 359.567225 72.000987
L 360.32518 84.792405
L 361.083135 85.374062
L 361.84109 72.982294
L 362.599045 77.930182
L 363.357 89.170934
L 364.114955 82.48203
L 364.87291 64.057908
L 365.630865 71.580738
L 366.38882 73.622963
L 367.146775 65.432764
L 367.90473 61.663736
L 368.662685 71.222997
L 369.42064 73.927972
L 370.178595 86.493319
L 370.93655 69.882822
L 371.694505 91.082765
L 372.45246 59.446044
L 373.210415 42.056967
L 373.96837 81.7069
L 374.726325 78.516845
L 375.48428 71.843277
L 376.242235 82.192311
L 377.00019 81.702728
L 377.758145 80.960688
L 378.5161 77.094075
L 379.274055 91.522804
L 380.03201 82.245178
L 380.789965 67.789801
L 381.54792 94.033121
L 382.305875 95.813368
L 383.06383 52.053898
L 383.821785 106.669015
L 384.57974 63.62113
L 385.337695 72.663291
L 386.09565 77.007894
L 386.853605 75.597283
L 387.61156 84.382855
L 388.369515 88.538878
L 389.12747 74.538769
L 389.885425 70.994052
L 390.64338 72.922945
L 391.401335 79.227791
L 392.15929 91.070156
L 392.917245 77.9613
L 393.6752 81.686958
L 394.433155 84.036931
L 395.19111 76.211426
L 395.949065 63.100262
L 396.70702 80.944499
L 397.464975 87.213714
L 398.22293 79.192569
L 398.980885 98.685394
L 399.73884 70.86656
L 400.496795 73.60727
L 401.25475 68.697685
L 402.012705 92.093721
L 402.77066 82.908235
L 403.528615 70.78394
L 405.044525 79.325464
L 405.80248 108.296952
L 406.560435 83.193659
L 407.31839 99.836303
L 408.076345 87.93585
L 408.8343 96.583285
L 409.592255 85.671008
L 410.35021 69.605621
L 411.108165 98.39715
L 411.86612 69.524122
L 412.624075 72.929907
L 413.38203 93.952108
L 414.139985 96.905078
L 414.89794 88.223681
L 416.41385 80.461057
L 417.171805 80.779582
L 417.92976 68.292209
L 418.687715 81.880429
L 419.44567 73.333346
L 420.203625 74.340783
L 420.96158 83.878625
L 421.719535 87.46308
L 422.47749 66.677538
L 423.235445 81.52813
L 423.9934 72.094686
L 424.751355 69.957434
L 425.50931 77.202973
L 426.267265 63.340201
L 427.02522 88.369356
L 427.783175 59.967982
L 428.54113 87.876613
L 429.299085 53.611409
L 430.05704 89.208177
L 430.814995 67.954883
L 431.57295 72.683375
L 432.330905 85.434847
L 433.08886 80.540157
L 433.846815 69.880983
L 434.60477 61.062
L 435.362725 95.253485
L 436.12068 75.606758
L 436.878635 99.632347
L 437.63659 60.43457
L 438.394545 76.452085
L 439.1525 100.878088
L 439.910455 85.72859
L 440.66841 59.020987
L 441.426365 100.258151
L 442.18432 63.428772
L 442.942275 83.897733
L 443.70023 76.924242
L 444.458185 88.278838
L 445.21614 64.023936
L 445.974095 76.652097
L 446.73205 76.315799
L 447.490005 91.056259
L 448.24796 92.038621
L 449.76387 70.277339
L 450.521825 100.046907
L 451.27978 99.714278
L 452.037735 72.575767
L 452.79569 92.043287
L 453.553645 86.187126
L 454.3116 96.094275
L 455.069555 80.368756
L 456.585465 59.578941
L 457.34342 75.98846
L 458.101375 72.384252
L 458.85933 87.953994
L 459.617285 53.461465
L 460.37524 77.361071
L 461.133195 92.930494
L 461.89115 56.222981
L 462.649105 82.481035
L 463.40706 81.184109
L 464.165015 62.676969
L 464.92297 87.886853
L 465.680925 82.908844
L 466.43888 75.547241
L 467.196835 103.415235
L 467.95479 87.206259
L 468.712745 63.940053
L 469.4707 74.428604
L 470.228655 70.794374
L 470.98661 80.62321
L 471.744565 77.53626
L 472.50252 102.505825
L 473.260475 64.760431
L 474.01843 68.514057
L 474.776385 107.191681
L 475.53434 84.625084
L 476.292295 84.068497
L 477.05025 78.147662
L 477.808205 65.285096
L 478.56616 91.170249
L 479.324115 86.886167
L 480.08207 62.956248
L 480.840025 65.135458
L 481.59798 85.459649
L 482.355935 82.793711
L 483.11389 76.195403
L 483.871845 80.790571
L 484.6298 69.858442
L 485.387755 68.582756
L 486.903665 80.56677
L 487.66162 78.807773
L 488.419575 69.375624
L 489.17753 91.208853
L 489.935485 80.713815
L 490.69344 73.43846
L 491.451395 75.917034
L 492.20935 81.940229
L 492.967305 66.530569
L 493.72526 78.826763
L 494.483215 59.139079
L 495.24117 76.545365
L 495.999125 71.895386
L 496.75708 86.829577
L 497.515035 80.504015
L 498.27299 92.553335
L 499.030945 69.838948
L 499.7889 90.477668
L 500.546855 80.900995
L 501.30481 74.965991
L 502.062765 62.82664
L 502.82072 100.024375
L 503.578675 51.472484
L 504.33663 77.835761
L 505.094585 87.75974
L 505.85254 77.217847
L 506.610495 78.936582
L 507.36845 97.303827
L 508.126405 85.500241
L 508.88436 67.063081
L 509.642315 63.215496
L 510.40027 89.703511
L 511.158225 76.702958
L 511.91618 33.456106
L 512.674135 59.305254
L 513.43209 76.788649
L 514.190045 78.950061
L 514.948 92.129677
L 515.705955 80.632603
L 516.46391 74.831512
L 517.221865 87.125835
L 517.97982 63.665694
L 518.737775 85.026446
L 519.49573 79.862251
L 520.253685 41.956342
L 521.01164 84.185673
L 521.769595 96.408305
L 522.52755 104.449678
L 523.285505 97.421787
L 524.04346 47.488996
L 524.801415 65.751013
L 525.55937 70.717461
L 526.317325 62.370087
L 527.07528 43.975235
L 527.833235 90.45069
L 528.59119 88.734778
L 529.349145 74.975045
L 530.1071 71.702573
L 530.865055 60.173255
L 531.62301 98.881188
L 532.380965 91.393381
L 533.13892 73.861544
L 533.896875 82.044829
L 534.65483 75.520209
L 535.412785 74.233919
L 536.928695 88.377262
L 537.68665 67.922358
L 538.444605 65.147621
L 539.20256 72.964744
L 539.960515 87.543195
L 540.71847 87.518358
L 541.476425 96.77823
L 542.23438 96.239915
L 542.992335 74.253249
L 544.508245 58.966624
L 545.2662 62.833922
L 546.024155 59.476861
L 546.78211 78.06579
L 547.540065 88.319781
L 548.29802 96.913475
L 549.055975 52.814601
L 549.81393 78.215897
L 550.571885 92.750544
L 551.32984 94.668564
L 552.087795 87.043816
L 552.84575 71.241968
L 553.603705 66.439661
L 554.36166 68.804439
L 555.119615 86.680975
L 555.87757 62.235408
L 557.39348 72.966759
L 558.151435 57.704943
L 558.90939 82.659396
L 559.667345 84.650859
L 560.4253 57.314034
L 561.183255 87.047424
L 561.94121 99.532322
L 562.699165 70.166014
L 563.45712 76.798407
L 564.215075 71.350307
L 564.97303 78.178279
L 565.730985 71.286065
L 566.48894 80.834423
L 567.246895 65.660868
L 568.00485 69.09426
L 568.762805 72.008843
L 569.52076 95.803899
L 570.278715 69.439784
L 571.03667 81.600857
L 571.794625 50.738317
L 572.55258 83.155431
L 573.310535 58.092017
L 574.06849 73.349758
L 574.826445 69.117052
L 575.5844 79.919337
L 576.342355 61.262484
L 577.10031 58.054583
L 578.61622 93.966215
L 579.374175 101.251977
L 580.13213 77.410057
L 580.890085 85.472523
L 581.64804 77.561286
L 582.405995 63.313278
L 583.16395 65.362174
L 583.921905 89.300951
L 584.67986 71.219091
L 585.437815 78.893468
L 586.19577 40.674069
L 586.953725 63.283267
L 587.71168 90.841517
L 588.469635 55.564407
L 589.22759 100.729803
L 589.985545 71.505898
L 590.7435 79.229839
L 591.501455 67.73844
L 592.25941 74.573868
L 593.017365 93.207529
L 593.77532 50.703324
L 594.533275 89.01909
L 595.29123 80.663812
L 596.049185 79.229327
L 596.80714 81.3813
L 597.565095 80.416305
L 598.32305 57.308289
L 599.081005 83.228505
L 599.83896 98.411167
L 600.596915 60.552438
L 601.35487 70.793423
L 602.112825 50.996776
L 602.87078 58.156663
L 603.628735 72.969783
L 604.38669 83.65431
L 605.144645 84.563654
L 605.9026 62.653772
L 606.660555 73.162568
L 607.41851 76.635948
L 608.176465 54.008585
L 608.93442 78.518996
L 609.692375 72.847963
L 610.45033 90.455012
L 611.208285 86.422341
L 611.96624 98.94852
L 612.724195 93.050464
L 613.48215 68.119836
L 614.240105 78.546507
L 614.99806 87.323993
L 615.756015 67.267797
L 616.51397 80.177016
L 617.271925 62.433309
L 618.02988 56.962862
L 618.787835 94.345868
L 619.54579 71.537782
L 620.303745 63.586862
L 621.0617 91.945932
L 621.819655 89.42695
L 622.57761 63.197228
L 624.09352 84.547921
L 624.851475 72.652802
L 625.60943 72.100926
L 626.367385 89.961933
L 627.12534 62.17077
L 627.883295 84.846881
L 628.64125 86.442656
L 629.399205 79.164987
L 630.15716 53.792301
L 631.67307 82.8239
L 632.431025 81.390246
L 633.18898 72.940133
L 633.946935 53.207021
L 634.70489 79.556503
L 635.462845 71.946979
L 636.2208 88.798891
L 636.978755 82.59691
L 637.73671 57.523715
L 638.494665 98.667451
L 639.25262 83.612488
L 640.010575 60.846169
L 640.76853 80.193085
L 641.526485 50.130608
L 642.28444 74.324015
L 643.042395 90.616666
L 643.80035 77.233456
L 644.558305 68.302242
L 645.31626 69.65043
L 646.074215 83.256289
L 646.83217 88.301455
L 647.590125 69.486999
L 648.34808 79.449669
L 649.106035 73.887935
L 649.86399 59.754102
L 650.621945 62.136402
L 651.3799 92.0781
L 652.137855 90.635866
L 652.89581 69.44957
L 653.653765 61.692769
L 654.41172 92.419095
L 655.169675 84.480991
L 655.92763 80.74259
L 656.685585 83.717089
L 658.201495 98.476522
L 658.95945 64.72013
L 659.717405 54.087923
L 660.47536 85.055143
L 661.99127 72.80331
L 662.749225 78.259761
L 663.50718 75.09407
L 664.265135 79.199168
L 665.02309 68.056122
L 665.781045 76.241775
L 666.539 71.06894
L 667.296955 47.608803
L 668.05491 104.179895
L 668.812865 72.666615
L 669.57082 65.090409
L 670.328775 90.546117
L 671.08673 58.409557
L 671.844685 75.567338
L 672.60264 85.661385
L 673.360595 67.278602
L 674.11855 67.974516
L 674.876505 71.248712
L 675.63446 90.413173
L 676.392415 75.190989
L 677.908325 98.951192
L 678.66628 82.551774
L 679.424235 95.382718
L 680.18219 71.495339
L 680.940145 83.563012
L 681.6981 63.368135
L 682.456055 87.499066
L 683.21401 78.448661
L 683.971965 75.86118
L 684.72992 54.863439
L 685.487875 44.948357
L 686.24583 66.413648
L 687.003785 94.804015
L 687.76174 68.986754
L 688.519695 86.863782
L 689.27765 78.72753
L 690.035605 53.151065
L 690.79356 69.142117
L 691.551515 54.726577
L 692.30947 74.682278
L 693.067425 63.015699
L 693.82538 83.671374
L 694.583335 98.745142
L 695.34129 80.557978
L 696.099245 43.434151
L 696.8572 73.633822
L 697.615155 78.920323
L 698.37311 107.885536
L 699.131065 63.265108
L 699.88902 69.032165
L 700.646975 81.40777
L 701.40493 77.902567
L 702.162885 84.636892
L 702.92084 100.493085
L 703.678795 91.933524
L 704.43675 79.574328
L 705.194705 76.174376
L 705.95266 92.926457
L 706.710615 74.004664
L 707.46857 80.476656
L 708.226525 58.90814
L 708.98448 86.348928
L 709.742435 69.974772
L 710.50039 71.198091
L 711.258345 73.263272
L 712.0163 71.768941
L 712.774255 64.323698
L 713.53221 60.52009
L 714.290165 67.537525
L 715.04812 99.081415
L 715.806075 49.137701
L 716.56403 110.329048
L 717.321985 58.987883
L 718.07994 69.182814
L 718.837895 83.19742
L 719.59585 81.46525
L 720.353805 94.825591
L 721.11176 84.992638
L 721.869715 45.966815
L 722.62767 84.115625
L 723.385625 85.613479
L 724.14358 68.087039
L 724.901535 63.204556
L 725.65949 93.145755
L 726.417445 91.869467
L 727.1754 65.072713
L 728.69131 98.972674
L 729.449265 49.792731
L 730.20722 76.484599
L 730.965175 87.122201
L 731.72313 73.117921
L 732.481085 69.277393
L 733.23904 81.393093
L 733.996995 72.785182
L 734.75495 76.472337
L 735.512905 73.756092
L 736.27086 73.190972
L 737.028815 67.539707
L 737.78677 78.791653
L 738.544725 78.226231
L 739.30268 81.059237
L 740.060635 79.781879
L 740.81859 74.930819
L 741.576545 108.134024
L 742.3345 71.166679
L 743.092455 80.480093
L 743.85041 69.789578
L 744.608365 52.664241
L 746.124275 100.502052
L 746.88223 67.041064
L 747.640185 80.094689
L 748.39814 64.746378
L 749.156095 89.207236
L 749.91405 86.325299
L 750.672005 55.901755
L 751.42996 95.989373
L 752.187915 65.907131
L 752.94587 94.264899
L 753.703825 79.816024
L 754.46178 77.601658
L 755.219735 84.298047
L 755.97769 97.959643
L 756.735645 72.238252
L 757.4936 86.238163
L 758.251555 65.33002
L 759.00951 71.112429
L 759.767465 74.516096
L 760.52542 66.958459
L 761.283375 82.016274
L 762.04133 92.144544
L 762.799285 68.66201
L 763.55724 57.093793
L 764.315195 81.14912
L 765.07315 88.938304
L 765.831105 70.697681
L 766.58906 74.391614
L 767.347015 91.095626
L 768.10497 88.810902
L 768.862925 70.371098
L 769.62088 85.462537
L 770.378835 55.80525
L 771.13679 53.955894
L 771.894745 69.975008
L 772.6527 74.695647
L 773.410655 90.320069
L 774.16861 67.243445
L 774.926565 94.179992
L 775.68452 77.950144
L 776.442475 58.65184
L 777.20043 83.321324
L 777.958385 81.986354
L 778.71634 60.867772
L 779.474295 74.734021
L 780.23225 85.882986
L 780.990205 67.483133
L 781.74816 35.363127
L 782.506115 66.380758
L 783.26407 69.72369
L 784.022025 80.496079
L 784.77998 79.58082
L 785.537935 56.606873
L 786.29589 73.616991
L 787.053845 70.544955
L 787.8118 77.40605
L 788.569755 100.055921
L 789.32771 89.241907
L 790.085665 99.328829
L 790.84362 72.665718
L 791.601575 84.092955
L 792.35953 78.274978
L 793.117485 101.08939
L 793.87544 89.911434
L 794.633395 87.891131
L 795.39135 45.691746
L 796.149305 77.807803
L 796.90726 64.851831
L 797.665215 69.212702
L 798.42317 90.732481
L 799.181125 72.802573
L 800.697035 92.491634
L 801.45499 89.43842
L 802.212945 72.94067
L 802.9709 69.681168
L 803.728855 77.777587
L 804.48681 74.821534
L 805.244765 81.406329
L 806.00272 67.529422
L 806.760675 72.688977
L 807.51863 80.581367
L 808.276585 69.68114
L 809.03454 74.445866
L 809.792495 91.838184
L 810.55045 76.839948
L 811.308405 88.491082
L 812.06636 94.887199
L 812.824315 71.641775
L 813.58227 80.233391
L 814.340225 74.014023
L 815.09818 86.397774
L 815.856135 90.976867
L 816.61409 85.33266
L 817.372045 45.25737
L 817.372045 45.25737
" style="fill:none;stroke:#1f77b4;stroke-linecap:square;stroke-width:1.5;"/>
   </g>
   <g id="patch_4">
    <path d="M 60.175 138.2
L 60.175 14.8
" style="fill:none;stroke:#000000;stroke-linecap:square;stroke-linejoin:miter;stroke-width:0.8;"/>
   </g>
   <g id="patch_5">
    <path d="M 818.13 138.2
L 818.13 14.8
" style="fill:none;stroke:#000000;stroke-linecap:square;stroke-linejoin:miter;stroke-width:0.8;"/>
   </g>
   <g id="patch_6">
    <path d="M 60.175 138.2
L 818.13 138.2
" style="fill:none;stroke:#000000;stroke-linecap:square;stroke-linejoin:miter;stroke-width:0.8;"/>
   </g>
   <g id="patch_7">
    <path d="M 60.175 14.8
L 818.13 14.8
" style="fill:none;stroke:#000000;stroke-linecap:square;stroke-linejoin:miter;stroke-width:0.8;"/>
   </g>
   <g id="legend_1">
    <g id="patch_8">
     <path d="M 719.322187 37.478125
L 811.13 37.478125
Q 813.13 37.478125 813.13 35.478125
L 813.13 21.8
Q 813.13 19.8 811.13 19.8
L 719.322187 19.8
Q 717.322187 19.8 717.322187 21.8
L 717.322187 35.478125
Q 717.322187 37.478125 719.322187 37.478125
z
" style="fill:#ffffff;opacity:0.8;stroke:#cccccc;stroke-linejoin:miter;"/>
    </g>
    <g id="patch_9">
     <path d="M 721.322187 31.398438
L 741.322187 31.398438
L 741.322187 24.398438
L 721.322187 24.398438
z
" style="fill:#ff0000;opacity:0.2;"/>
    </g>
    <g id="text_14">
     <!-- Direktsignal -->
     <g transform="translate(749.322187 31.398438)scale(0.1 -0.1)">
      <defs>
       <path d="M 1259 4147
L 1259 519
L 2022 519
Q 2988 519 3436 956
Q 3884 1394 3884 2338
Q 3884 3275 3436 3711
Q 2988 4147 2022 4147
L 1259 4147
z
M 628 4666
L 1925 4666
Q 3281 4666 3915 4102
Q 4550 3538 4550 2338
Q 4550 1131 3912 565
Q 3275 0 1925 0
L 628 0
L 628 4666
z
" id="DejaVuSans-44" transform="scale(0.015625)"/>
       <path d="M 603 3500
L 1178 3500
L 1178 0
L 603 0
L 603 3500
z
M 603 4863
L 1178 4863
L 1178 4134
L 603 4134
L 603 4863
z
" id="DejaVuSans-69" transform="scale(0.015625)"/>
       <path d="M 2631 2963
Q 2534 3019 2420 3045
Q 2306 3072 2169 3072
Q 1681 3072 1420 2755
Q 1159 2438 1159 1844
L 1159 0
L 581 0
L 581 3500
L 1159 3500
L 1159 2956
Q 1341 3275 1631 3429
Q 1922 3584 2338 3584
Q 2397 3584 2469 3576
Q 2541 3569 2628 3553
L 2631 2963
z
" id="DejaVuSans-72" transform="scale(0.015625)"/>
       <path d="M 581 4863
L 1159 4863
L 1159 1991
L 2875 3500
L 3609 3500
L 1753 1863
L 3688 0
L 2938 0
L 1159 1709
L 1159 0
L 581 0
L 581 4863
z
" id="DejaVuSans-6b" transform="scale(0.015625)"/>
       <path d="M 1172 4494
L 1172 3500
L 2356 3500
L 2356 3053
L 1172 3053
L 1172 1153
Q 1172 725 1289 603
Q 1406 481 1766 481
L 2356 481
L 2356 0
L 1766 0
Q 1100 0 847 248
Q 594 497 594 1153
L 594 3053
L 172 3053
L 172 3500
L 594 3500
L 594 4494
L 1172 4494
z
" id="DejaVuSans-74" transform="scale(0.015625)"/>
       <path d="M 2906 1791
Q 2906 2416 2648 2759
Q 2391 3103 1925 3103
Q 1463 3103 1205 2759
Q 947 2416 947 1791
Q 947 1169 1205 825
Q 1463 481 1925 481
Q 2391 481 2648 825
Q 2906 1169 2906 1791
z
M 3481 434
Q 3481 -459 3084 -895
Q 2688 -1331 1869 -1331
Q 1566 -1331 1297 -1286
Q 1028 -1241 775 -1147
L 775 -588
Q 1028 -725 1275 -790
Q 1522 -856 1778 -856
Q 2344 -856 2625 -561
Q 2906 -266 2906 331
L 2906 616
Q 2728 306 2450 153
Q 2172 0 1784 0
Q 1141 0 747 490
Q 353 981 353 1791
Q 353 2603 747 3093
Q 1141 3584 1784 3584
Q 2172 3584 2450 3431
Q 2728 3278 2906 2969
L 2906 3500
L 3481 3500
L 3481 434
z
" id="DejaVuSans-67" transform="scale(0.015625)"/>
       <path d="M 3513 2113
L 3513 0
L 2938 0
L 2938 2094
Q 2938 2591 2744 2837
Q 2550 3084 2163 3084
Q 1697 3084 1428 2787
Q 1159 2491 1159 1978
L 1159 0
L 581 0
L 581 3500
L 1159 3500
L 1159 2956
Q 1366 3272 1645 3428
Q 1925 3584 2291 3584
Q 2894 3584 3203 3211
Q 3513 2838 3513 2113
z
" id="DejaVuSans-6e" transform="scale(0.015625)"/>
      </defs>
      <use xlink:href="#DejaVuSans-44"/>
      <use x="77.001953" xlink:href="#DejaVuSans-69"/>
      <use x="104.785156" xlink:href="#DejaVuSans-72"/>
      <use x="143.648438" xlink:href="#DejaVuSans-65"/>
      <use x="205.171875" xlink:href="#DejaVuSans-6b"/>
      <use x="263.082031" xlink:href="#DejaVuSans-74"/>
      <use x="302.291016" xlink:href="#DejaVuSans-73"/>
      <use x="354.390625" xlink:href="#DejaVuSans-69"/>
      <use x="382.173828" xlink:href="#DejaVuSans-67"/>
      <use x="445.650391" xlink:href="#DejaVuSans-6e"/>
      <use x="509.029297" xlink:href="#DejaVuSans-61"/>
      <use x="570.308594" xlink:href="#DejaVuSans-6c"/>
     </g>
    </g>
   </g>
  </g>
 </g>
 <defs>
  <clipPath id="p072b260007">
   <rect height="123.4" width="757.955" x="60.175" y="14.8"/>
  </clipPath>
 </defs>
</svg>
