<?xml version="1.0" encoding="utf-8" standalone="no"?>
<!DOCTYPE svg PUBLIC "-//W3C//DTD SVG 1.1//EN"
  "http://www.w3.org/Graphics/SVG/1.1/DTD/svg11.dtd">
<svg height="180pt" version="1.1" viewBox="0 0 841.68 180" width="841.68pt" xmlns="http://www.w3.org/2000/svg" xmlns:xlink="http://www.w3.org/1999/xlink">
 <metadata>
  <rdf:RDF xmlns:cc="http://creativecommons.org/ns#" xmlns:dc="http://purl.org/dc/elements/1.1/" xmlns:rdf="http://www.w3.org/1999/02/22-rdf-syntax-ns#">
   <cc:Work>
    <dc:type rdf:resource="http://purl.org/dc/dcmitype/StillImage"/>
    <dc:date>2021-10-17T13:49:44.573972</dc:date>
    <dc:format>image/svg+xml</dc:format>
    <dc:creator>
     <cc:Agent>
      <dc:title>Matplotlib v3.4.3, https://matplotlib.org/</dc:title>
     </cc:Agent>
    </dc:creator>
   </cc:Work>
  </rdf:RDF>
 </metadata>
 <defs>
  <style type="text/css">*{stroke-linecap:butt;stroke-linejoin:round;}</style>
 </defs>
 <g id="figure_1">
  <g id="patch_1">
   <path d="M 0 180
L 841.68 180
L 841.68 0
L 0 0
z
" style="fill:none;"/>
  </g>
  <g id="axes_1">
   <g id="patch_2">
    <path d="M 60.175 138.2
L 818.13 138.2
L 818.13 14.8
L 60.175 14.8
z
" style="fill:#ffffff;"/>
   </g>
   <g id="patch_3">
    <path clip-path="url(#p9f61c4e6b0)" d="M 60.175 138.2
L 60.175 14.8
L 98.07275 14.8
L 98.07275 138.2
z
" style="fill:#ff0000;opacity:0.2;"/>
   </g>
   <g id="patch_4">
    <path clip-path="url(#p9f61c4e6b0)" d="M 249.66375 138.2
L 249.66375 14.8
L 287.5615 14.8
L 287.5615 138.2
z
" style="fill:#0000ff;opacity:0.2;"/>
   </g>
   <g id="matplotlib.axis_1">
    <g id="xtick_1">
     <g id="line2d_1">
      <path clip-path="url(#p9f61c4e6b0)" d="M 60.175 138.2
L 60.175 14.8
" style="fill:none;stroke:#b0b0b0;stroke-linecap:square;stroke-width:0.8;"/>
     </g>
     <g id="line2d_2">
      <defs>
       <path d="M 0 0
L 0 3.5
" id="m362d1a6892" style="stroke:#000000;stroke-width:0.8;"/>
      </defs>
      <g>
       <use style="stroke:#000000;stroke-width:0.8;" x="60.175" xlink:href="#m362d1a6892" y="138.2"/>
      </g>
     </g>
     <g id="text_1">
      <!-- 0 -->
      <g transform="translate(56.99375 152.798438)scale(0.1 -0.1)">
       <defs>
        <path d="M 2034 4250
Q 1547 4250 1301 3770
Q 1056 3291 1056 2328
Q 1056 1369 1301 889
Q 1547 409 2034 409
Q 2525 409 2770 889
Q 3016 1369 3016 2328
Q 3016 3291 2770 3770
Q 2525 4250 2034 4250
z
M 2034 4750
Q 2819 4750 3233 4129
Q 3647 3509 3647 2328
Q 3647 1150 3233 529
Q 2819 -91 2034 -91
Q 1250 -91 836 529
Q 422 1150 422 2328
Q 422 3509 836 4129
Q 1250 4750 2034 4750
z
" id="DejaVuSans-30" transform="scale(0.015625)"/>
       </defs>
       <use xlink:href="#DejaVuSans-30"/>
      </g>
     </g>
    </g>
    <g id="xtick_2">
     <g id="line2d_3">
      <path clip-path="url(#p9f61c4e6b0)" d="M 211.766 138.2
L 211.766 14.8
" style="fill:none;stroke:#b0b0b0;stroke-linecap:square;stroke-width:0.8;"/>
     </g>
     <g id="line2d_4">
      <g>
       <use style="stroke:#000000;stroke-width:0.8;" x="211.766" xlink:href="#m362d1a6892" y="138.2"/>
      </g>
     </g>
     <g id="text_2">
      <!-- 200 -->
      <g transform="translate(202.22225 152.798438)scale(0.1 -0.1)">
       <defs>
        <path d="M 1228 531
L 3431 531
L 3431 0
L 469 0
L 469 531
Q 828 903 1448 1529
Q 2069 2156 2228 2338
Q 2531 2678 2651 2914
Q 2772 3150 2772 3378
Q 2772 3750 2511 3984
Q 2250 4219 1831 4219
Q 1534 4219 1204 4116
Q 875 4013 500 3803
L 500 4441
Q 881 4594 1212 4672
Q 1544 4750 1819 4750
Q 2544 4750 2975 4387
Q 3406 4025 3406 3419
Q 3406 3131 3298 2873
Q 3191 2616 2906 2266
Q 2828 2175 2409 1742
Q 1991 1309 1228 531
z
" id="DejaVuSans-32" transform="scale(0.015625)"/>
       </defs>
       <use xlink:href="#DejaVuSans-32"/>
       <use x="63.623047" xlink:href="#DejaVuSans-30"/>
       <use x="127.246094" xlink:href="#DejaVuSans-30"/>
      </g>
     </g>
    </g>
    <g id="xtick_3">
     <g id="line2d_5">
      <path clip-path="url(#p9f61c4e6b0)" d="M 363.357 138.2
L 363.357 14.8
" style="fill:none;stroke:#b0b0b0;stroke-linecap:square;stroke-width:0.8;"/>
     </g>
     <g id="line2d_6">
      <g>
       <use style="stroke:#000000;stroke-width:0.8;" x="363.357" xlink:href="#m362d1a6892" y="138.2"/>
      </g>
     </g>
     <g id="text_3">
      <!-- 400 -->
      <g transform="translate(353.81325 152.798438)scale(0.1 -0.1)">
       <defs>
        <path d="M 2419 4116
L 825 1625
L 2419 1625
L 2419 4116
z
M 2253 4666
L 3047 4666
L 3047 1625
L 3713 1625
L 3713 1100
L 3047 1100
L 3047 0
L 2419 0
L 2419 1100
L 313 1100
L 313 1709
L 2253 4666
z
" id="DejaVuSans-34" transform="scale(0.015625)"/>
       </defs>
       <use xlink:href="#DejaVuSans-34"/>
       <use x="63.623047" xlink:href="#DejaVuSans-30"/>
       <use x="127.246094" xlink:href="#DejaVuSans-30"/>
      </g>
     </g>
    </g>
    <g id="xtick_4">
     <g id="line2d_7">
      <path clip-path="url(#p9f61c4e6b0)" d="M 514.948 138.2
L 514.948 14.8
" style="fill:none;stroke:#b0b0b0;stroke-linecap:square;stroke-width:0.8;"/>
     </g>
     <g id="line2d_8">
      <g>
       <use style="stroke:#000000;stroke-width:0.8;" x="514.948" xlink:href="#m362d1a6892" y="138.2"/>
      </g>
     </g>
     <g id="text_4">
      <!-- 600 -->
      <g transform="translate(505.40425 152.798438)scale(0.1 -0.1)">
       <defs>
        <path d="M 2113 2584
Q 1688 2584 1439 2293
Q 1191 2003 1191 1497
Q 1191 994 1439 701
Q 1688 409 2113 409
Q 2538 409 2786 701
Q 3034 994 3034 1497
Q 3034 2003 2786 2293
Q 2538 2584 2113 2584
z
M 3366 4563
L 3366 3988
Q 3128 4100 2886 4159
Q 2644 4219 2406 4219
Q 1781 4219 1451 3797
Q 1122 3375 1075 2522
Q 1259 2794 1537 2939
Q 1816 3084 2150 3084
Q 2853 3084 3261 2657
Q 3669 2231 3669 1497
Q 3669 778 3244 343
Q 2819 -91 2113 -91
Q 1303 -91 875 529
Q 447 1150 447 2328
Q 447 3434 972 4092
Q 1497 4750 2381 4750
Q 2619 4750 2861 4703
Q 3103 4656 3366 4563
z
" id="DejaVuSans-36" transform="scale(0.015625)"/>
       </defs>
       <use xlink:href="#DejaVuSans-36"/>
       <use x="63.623047" xlink:href="#DejaVuSans-30"/>
       <use x="127.246094" xlink:href="#DejaVuSans-30"/>
      </g>
     </g>
    </g>
    <g id="xtick_5">
     <g id="line2d_9">
      <path clip-path="url(#p9f61c4e6b0)" d="M 666.539 138.2
L 666.539 14.8
" style="fill:none;stroke:#b0b0b0;stroke-linecap:square;stroke-width:0.8;"/>
     </g>
     <g id="line2d_10">
      <g>
       <use style="stroke:#000000;stroke-width:0.8;" x="666.539" xlink:href="#m362d1a6892" y="138.2"/>
      </g>
     </g>
     <g id="text_5">
      <!-- 800 -->
      <g transform="translate(656.99525 152.798438)scale(0.1 -0.1)">
       <defs>
        <path d="M 2034 2216
Q 1584 2216 1326 1975
Q 1069 1734 1069 1313
Q 1069 891 1326 650
Q 1584 409 2034 409
Q 2484 409 2743 651
Q 3003 894 3003 1313
Q 3003 1734 2745 1975
Q 2488 2216 2034 2216
z
M 1403 2484
Q 997 2584 770 2862
Q 544 3141 544 3541
Q 544 4100 942 4425
Q 1341 4750 2034 4750
Q 2731 4750 3128 4425
Q 3525 4100 3525 3541
Q 3525 3141 3298 2862
Q 3072 2584 2669 2484
Q 3125 2378 3379 2068
Q 3634 1759 3634 1313
Q 3634 634 3220 271
Q 2806 -91 2034 -91
Q 1263 -91 848 271
Q 434 634 434 1313
Q 434 1759 690 2068
Q 947 2378 1403 2484
z
M 1172 3481
Q 1172 3119 1398 2916
Q 1625 2713 2034 2713
Q 2441 2713 2670 2916
Q 2900 3119 2900 3481
Q 2900 3844 2670 4047
Q 2441 4250 2034 4250
Q 1625 4250 1398 4047
Q 1172 3844 1172 3481
z
" id="DejaVuSans-38" transform="scale(0.015625)"/>
       </defs>
       <use xlink:href="#DejaVuSans-38"/>
       <use x="63.623047" xlink:href="#DejaVuSans-30"/>
       <use x="127.246094" xlink:href="#DejaVuSans-30"/>
      </g>
     </g>
    </g>
    <g id="xtick_6">
     <g id="line2d_11">
      <path clip-path="url(#p9f61c4e6b0)" d="M 818.13 138.2
L 818.13 14.8
" style="fill:none;stroke:#b0b0b0;stroke-linecap:square;stroke-width:0.8;"/>
     </g>
     <g id="line2d_12">
      <g>
       <use style="stroke:#000000;stroke-width:0.8;" x="818.13" xlink:href="#m362d1a6892" y="138.2"/>
      </g>
     </g>
     <g id="text_6">
      <!-- 1000 -->
      <g transform="translate(805.405 152.798438)scale(0.1 -0.1)">
       <defs>
        <path d="M 794 531
L 1825 531
L 1825 4091
L 703 3866
L 703 4441
L 1819 4666
L 2450 4666
L 2450 531
L 3481 531
L 3481 0
L 794 0
L 794 531
z
" id="DejaVuSans-31" transform="scale(0.015625)"/>
       </defs>
       <use xlink:href="#DejaVuSans-31"/>
       <use x="63.623047" xlink:href="#DejaVuSans-30"/>
       <use x="127.246094" xlink:href="#DejaVuSans-30"/>
       <use x="190.869141" xlink:href="#DejaVuSans-30"/>
      </g>
     </g>
    </g>
    <g id="text_7">
     <!-- Samples -->
     <g transform="translate(417.799375 166.476562)scale(0.1 -0.1)">
      <defs>
       <path d="M 3425 4513
L 3425 3897
Q 3066 4069 2747 4153
Q 2428 4238 2131 4238
Q 1616 4238 1336 4038
Q 1056 3838 1056 3469
Q 1056 3159 1242 3001
Q 1428 2844 1947 2747
L 2328 2669
Q 3034 2534 3370 2195
Q 3706 1856 3706 1288
Q 3706 609 3251 259
Q 2797 -91 1919 -91
Q 1588 -91 1214 -16
Q 841 59 441 206
L 441 856
Q 825 641 1194 531
Q 1563 422 1919 422
Q 2459 422 2753 634
Q 3047 847 3047 1241
Q 3047 1584 2836 1778
Q 2625 1972 2144 2069
L 1759 2144
Q 1053 2284 737 2584
Q 422 2884 422 3419
Q 422 4038 858 4394
Q 1294 4750 2059 4750
Q 2388 4750 2728 4690
Q 3069 4631 3425 4513
z
" id="DejaVuSans-53" transform="scale(0.015625)"/>
       <path d="M 2194 1759
Q 1497 1759 1228 1600
Q 959 1441 959 1056
Q 959 750 1161 570
Q 1363 391 1709 391
Q 2188 391 2477 730
Q 2766 1069 2766 1631
L 2766 1759
L 2194 1759
z
M 3341 1997
L 3341 0
L 2766 0
L 2766 531
Q 2569 213 2275 61
Q 1981 -91 1556 -91
Q 1019 -91 701 211
Q 384 513 384 1019
Q 384 1609 779 1909
Q 1175 2209 1959 2209
L 2766 2209
L 2766 2266
Q 2766 2663 2505 2880
Q 2244 3097 1772 3097
Q 1472 3097 1187 3025
Q 903 2953 641 2809
L 641 3341
Q 956 3463 1253 3523
Q 1550 3584 1831 3584
Q 2591 3584 2966 3190
Q 3341 2797 3341 1997
z
" id="DejaVuSans-61" transform="scale(0.015625)"/>
       <path d="M 3328 2828
Q 3544 3216 3844 3400
Q 4144 3584 4550 3584
Q 5097 3584 5394 3201
Q 5691 2819 5691 2113
L 5691 0
L 5113 0
L 5113 2094
Q 5113 2597 4934 2840
Q 4756 3084 4391 3084
Q 3944 3084 3684 2787
Q 3425 2491 3425 1978
L 3425 0
L 2847 0
L 2847 2094
Q 2847 2600 2669 2842
Q 2491 3084 2119 3084
Q 1678 3084 1418 2786
Q 1159 2488 1159 1978
L 1159 0
L 581 0
L 581 3500
L 1159 3500
L 1159 2956
Q 1356 3278 1631 3431
Q 1906 3584 2284 3584
Q 2666 3584 2933 3390
Q 3200 3197 3328 2828
z
" id="DejaVuSans-6d" transform="scale(0.015625)"/>
       <path d="M 1159 525
L 1159 -1331
L 581 -1331
L 581 3500
L 1159 3500
L 1159 2969
Q 1341 3281 1617 3432
Q 1894 3584 2278 3584
Q 2916 3584 3314 3078
Q 3713 2572 3713 1747
Q 3713 922 3314 415
Q 2916 -91 2278 -91
Q 1894 -91 1617 61
Q 1341 213 1159 525
z
M 3116 1747
Q 3116 2381 2855 2742
Q 2594 3103 2138 3103
Q 1681 3103 1420 2742
Q 1159 2381 1159 1747
Q 1159 1113 1420 752
Q 1681 391 2138 391
Q 2594 391 2855 752
Q 3116 1113 3116 1747
z
" id="DejaVuSans-70" transform="scale(0.015625)"/>
       <path d="M 603 4863
L 1178 4863
L 1178 0
L 603 0
L 603 4863
z
" id="DejaVuSans-6c" transform="scale(0.015625)"/>
       <path d="M 3597 1894
L 3597 1613
L 953 1613
Q 991 1019 1311 708
Q 1631 397 2203 397
Q 2534 397 2845 478
Q 3156 559 3463 722
L 3463 178
Q 3153 47 2828 -22
Q 2503 -91 2169 -91
Q 1331 -91 842 396
Q 353 884 353 1716
Q 353 2575 817 3079
Q 1281 3584 2069 3584
Q 2775 3584 3186 3129
Q 3597 2675 3597 1894
z
M 3022 2063
Q 3016 2534 2758 2815
Q 2500 3097 2075 3097
Q 1594 3097 1305 2825
Q 1016 2553 972 2059
L 3022 2063
z
" id="DejaVuSans-65" transform="scale(0.015625)"/>
       <path d="M 2834 3397
L 2834 2853
Q 2591 2978 2328 3040
Q 2066 3103 1784 3103
Q 1356 3103 1142 2972
Q 928 2841 928 2578
Q 928 2378 1081 2264
Q 1234 2150 1697 2047
L 1894 2003
Q 2506 1872 2764 1633
Q 3022 1394 3022 966
Q 3022 478 2636 193
Q 2250 -91 1575 -91
Q 1294 -91 989 -36
Q 684 19 347 128
L 347 722
Q 666 556 975 473
Q 1284 391 1588 391
Q 1994 391 2212 530
Q 2431 669 2431 922
Q 2431 1156 2273 1281
Q 2116 1406 1581 1522
L 1381 1569
Q 847 1681 609 1914
Q 372 2147 372 2553
Q 372 3047 722 3315
Q 1072 3584 1716 3584
Q 2034 3584 2315 3537
Q 2597 3491 2834 3397
z
" id="DejaVuSans-73" transform="scale(0.015625)"/>
      </defs>
      <use xlink:href="#DejaVuSans-53"/>
      <use x="63.476562" xlink:href="#DejaVuSans-61"/>
      <use x="124.755859" xlink:href="#DejaVuSans-6d"/>
      <use x="222.167969" xlink:href="#DejaVuSans-70"/>
      <use x="285.644531" xlink:href="#DejaVuSans-6c"/>
      <use x="313.427734" xlink:href="#DejaVuSans-65"/>
      <use x="374.951172" xlink:href="#DejaVuSans-73"/>
     </g>
    </g>
   </g>
   <g id="matplotlib.axis_2">
    <g id="ytick_1">
     <g id="line2d_13">
      <path clip-path="url(#p9f61c4e6b0)" d="M 60.175 138.2
L 818.13 138.2
" style="fill:none;stroke:#b0b0b0;stroke-linecap:square;stroke-width:0.8;"/>
     </g>
     <g id="line2d_14">
      <defs>
       <path d="M 0 0
L -3.5 0
" id="m8190c3e196" style="stroke:#000000;stroke-width:0.8;"/>
      </defs>
      <g>
       <use style="stroke:#000000;stroke-width:0.8;" x="60.175" xlink:href="#m8190c3e196" y="138.2"/>
      </g>
     </g>
     <g id="text_8">
      <!-- −1.0 -->
      <g transform="translate(28.892188 141.999219)scale(0.1 -0.1)">
       <defs>
        <path d="M 678 2272
L 4684 2272
L 4684 1741
L 678 1741
L 678 2272
z
" id="DejaVuSans-2212" transform="scale(0.015625)"/>
        <path d="M 684 794
L 1344 794
L 1344 0
L 684 0
L 684 794
z
" id="DejaVuSans-2e" transform="scale(0.015625)"/>
       </defs>
       <use xlink:href="#DejaVuSans-2212"/>
       <use x="83.789062" xlink:href="#DejaVuSans-31"/>
       <use x="147.412109" xlink:href="#DejaVuSans-2e"/>
       <use x="179.199219" xlink:href="#DejaVuSans-30"/>
      </g>
     </g>
    </g>
    <g id="ytick_2">
     <g id="line2d_15">
      <path clip-path="url(#p9f61c4e6b0)" d="M 60.175 107.35
L 818.13 107.35
" style="fill:none;stroke:#b0b0b0;stroke-linecap:square;stroke-width:0.8;"/>
     </g>
     <g id="line2d_16">
      <g>
       <use style="stroke:#000000;stroke-width:0.8;" x="60.175" xlink:href="#m8190c3e196" y="107.35"/>
      </g>
     </g>
     <g id="text_9">
      <!-- −0.5 -->
      <g transform="translate(28.892188 111.149219)scale(0.1 -0.1)">
       <defs>
        <path d="M 691 4666
L 3169 4666
L 3169 4134
L 1269 4134
L 1269 2991
Q 1406 3038 1543 3061
Q 1681 3084 1819 3084
Q 2600 3084 3056 2656
Q 3513 2228 3513 1497
Q 3513 744 3044 326
Q 2575 -91 1722 -91
Q 1428 -91 1123 -41
Q 819 9 494 109
L 494 744
Q 775 591 1075 516
Q 1375 441 1709 441
Q 2250 441 2565 725
Q 2881 1009 2881 1497
Q 2881 1984 2565 2268
Q 2250 2553 1709 2553
Q 1456 2553 1204 2497
Q 953 2441 691 2322
L 691 4666
z
" id="DejaVuSans-35" transform="scale(0.015625)"/>
       </defs>
       <use xlink:href="#DejaVuSans-2212"/>
       <use x="83.789062" xlink:href="#DejaVuSans-30"/>
       <use x="147.412109" xlink:href="#DejaVuSans-2e"/>
       <use x="179.199219" xlink:href="#DejaVuSans-35"/>
      </g>
     </g>
    </g>
    <g id="ytick_3">
     <g id="line2d_17">
      <path clip-path="url(#p9f61c4e6b0)" d="M 60.175 76.5
L 818.13 76.5
" style="fill:none;stroke:#b0b0b0;stroke-linecap:square;stroke-width:0.8;"/>
     </g>
     <g id="line2d_18">
      <g>
       <use style="stroke:#000000;stroke-width:0.8;" x="60.175" xlink:href="#m8190c3e196" y="76.5"/>
      </g>
     </g>
     <g id="text_10">
      <!-- 0.0 -->
      <g transform="translate(37.271875 80.299219)scale(0.1 -0.1)">
       <use xlink:href="#DejaVuSans-30"/>
       <use x="63.623047" xlink:href="#DejaVuSans-2e"/>
       <use x="95.410156" xlink:href="#DejaVuSans-30"/>
      </g>
     </g>
    </g>
    <g id="ytick_4">
     <g id="line2d_19">
      <path clip-path="url(#p9f61c4e6b0)" d="M 60.175 45.65
L 818.13 45.65
" style="fill:none;stroke:#b0b0b0;stroke-linecap:square;stroke-width:0.8;"/>
     </g>
     <g id="line2d_20">
      <g>
       <use style="stroke:#000000;stroke-width:0.8;" x="60.175" xlink:href="#m8190c3e196" y="45.65"/>
      </g>
     </g>
     <g id="text_11">
      <!-- 0.5 -->
      <g transform="translate(37.271875 49.449219)scale(0.1 -0.1)">
       <use xlink:href="#DejaVuSans-30"/>
       <use x="63.623047" xlink:href="#DejaVuSans-2e"/>
       <use x="95.410156" xlink:href="#DejaVuSans-35"/>
      </g>
     </g>
    </g>
    <g id="ytick_5">
     <g id="line2d_21">
      <path clip-path="url(#p9f61c4e6b0)" d="M 60.175 14.8
L 818.13 14.8
" style="fill:none;stroke:#b0b0b0;stroke-linecap:square;stroke-width:0.8;"/>
     </g>
     <g id="line2d_22">
      <g>
       <use style="stroke:#000000;stroke-width:0.8;" x="60.175" xlink:href="#m8190c3e196" y="14.8"/>
      </g>
     </g>
     <g id="text_12">
      <!-- 1.0 -->
      <g transform="translate(37.271875 18.599219)scale(0.1 -0.1)">
       <use xlink:href="#DejaVuSans-31"/>
       <use x="63.623047" xlink:href="#DejaVuSans-2e"/>
       <use x="95.410156" xlink:href="#DejaVuSans-30"/>
      </g>
     </g>
    </g>
    <g id="text_13">
     <!-- $y_{surv}(t)$ -->
     <g transform="translate(22.792188 93.05)rotate(-90)scale(0.1 -0.1)">
      <defs>
       <path d="M 1588 -325
Q 1188 -997 936 -1164
Q 684 -1331 294 -1331
L -159 -1331
L -63 -850
L 269 -850
Q 509 -850 678 -719
Q 847 -588 1056 -206
L 1234 128
L 459 3500
L 1069 3500
L 1650 819
L 3256 3500
L 3859 3500
L 1588 -325
z
" id="DejaVuSans-Oblique-79" transform="scale(0.015625)"/>
       <path d="M 3200 3397
L 3091 2853
Q 2863 2978 2609 3040
Q 2356 3103 2088 3103
Q 1634 3103 1373 2948
Q 1113 2794 1113 2528
Q 1113 2219 1719 2053
Q 1766 2041 1788 2034
L 1972 1978
Q 2547 1819 2739 1644
Q 2931 1469 2931 1166
Q 2931 609 2489 259
Q 2047 -91 1331 -91
Q 1053 -91 747 -37
Q 441 16 72 128
L 184 722
Q 500 559 806 475
Q 1113 391 1394 391
Q 1816 391 2080 572
Q 2344 753 2344 1031
Q 2344 1331 1650 1516
L 1591 1531
L 1394 1581
Q 956 1697 753 1886
Q 550 2075 550 2369
Q 550 2928 970 3256
Q 1391 3584 2113 3584
Q 2397 3584 2667 3537
Q 2938 3491 3200 3397
z
" id="DejaVuSans-Oblique-73" transform="scale(0.015625)"/>
       <path d="M 428 1388
L 838 3500
L 1416 3500
L 1006 1409
Q 975 1256 961 1147
Q 947 1038 947 966
Q 947 700 1109 554
Q 1272 409 1569 409
Q 2031 409 2368 721
Q 2706 1034 2809 1563
L 3194 3500
L 3769 3500
L 3091 0
L 2516 0
L 2631 550
Q 2388 244 2052 76
Q 1716 -91 1338 -91
Q 878 -91 622 161
Q 366 413 366 863
Q 366 956 381 1097
Q 397 1238 428 1388
z
" id="DejaVuSans-Oblique-75" transform="scale(0.015625)"/>
       <path d="M 2853 2969
Q 2766 3016 2653 3041
Q 2541 3066 2413 3066
Q 1953 3066 1609 2717
Q 1266 2369 1153 1784
L 800 0
L 225 0
L 909 3500
L 1484 3500
L 1375 2956
Q 1603 3259 1920 3421
Q 2238 3584 2597 3584
Q 2691 3584 2781 3573
Q 2872 3563 2963 3538
L 2853 2969
z
" id="DejaVuSans-Oblique-72" transform="scale(0.015625)"/>
       <path d="M 459 3500
L 1069 3500
L 1581 525
L 3256 3500
L 3866 3500
L 1875 0
L 1100 0
L 459 3500
z
" id="DejaVuSans-Oblique-76" transform="scale(0.015625)"/>
       <path d="M 1984 4856
Q 1566 4138 1362 3434
Q 1159 2731 1159 2009
Q 1159 1288 1364 580
Q 1569 -128 1984 -844
L 1484 -844
Q 1016 -109 783 600
Q 550 1309 550 2009
Q 550 2706 781 3412
Q 1013 4119 1484 4856
L 1984 4856
z
" id="DejaVuSans-28" transform="scale(0.015625)"/>
       <path d="M 2706 3500
L 2619 3053
L 1472 3053
L 1100 1153
Q 1081 1047 1072 975
Q 1063 903 1063 863
Q 1063 663 1183 572
Q 1303 481 1569 481
L 2150 481
L 2053 0
L 1503 0
Q 991 0 739 200
Q 488 400 488 806
Q 488 878 497 964
Q 506 1050 525 1153
L 897 3053
L 409 3053
L 500 3500
L 978 3500
L 1172 4494
L 1747 4494
L 1556 3500
L 2706 3500
z
" id="DejaVuSans-Oblique-74" transform="scale(0.015625)"/>
       <path d="M 513 4856
L 1013 4856
Q 1481 4119 1714 3412
Q 1947 2706 1947 2009
Q 1947 1309 1714 600
Q 1481 -109 1013 -844
L 513 -844
Q 928 -128 1133 580
Q 1338 1288 1338 2009
Q 1338 2731 1133 3434
Q 928 4138 513 4856
z
" id="DejaVuSans-29" transform="scale(0.015625)"/>
      </defs>
      <use transform="translate(0 0.125)" xlink:href="#DejaVuSans-Oblique-79"/>
      <use transform="translate(59.179688 -16.28125)scale(0.7)" xlink:href="#DejaVuSans-Oblique-73"/>
      <use transform="translate(95.649414 -16.28125)scale(0.7)" xlink:href="#DejaVuSans-Oblique-75"/>
      <use transform="translate(140.014648 -16.28125)scale(0.7)" xlink:href="#DejaVuSans-Oblique-72"/>
      <use transform="translate(168.793945 -16.28125)scale(0.7)" xlink:href="#DejaVuSans-Oblique-76"/>
      <use transform="translate(212.954102 0.125)" xlink:href="#DejaVuSans-28"/>
      <use transform="translate(251.967773 0.125)" xlink:href="#DejaVuSans-Oblique-74"/>
      <use transform="translate(291.176758 0.125)" xlink:href="#DejaVuSans-29"/>
     </g>
    </g>
   </g>
   <g id="line2d_23">
    <path clip-path="url(#p9f61c4e6b0)" d="M 60.175 79.777678
L 60.932955 37.773732
L 61.69091 32.944428
L 62.448865 48.482183
L 63.20682 20.683505
L 63.964775 81.95322
L 64.72273 82.791094
L 65.480685 149.453539
L 66.23864 114.754337
L 66.996595 112.529467
L 67.75455 66.883588
L 68.512505 36.525072
L 69.27046 31.215078
L 70.028415 14.607329
L 70.78637 41.285899
L 71.544325 62.314395
L 72.30228 115.102537
L 73.060235 120.645846
L 73.81819 130.40864
L 74.576145 118.060353
L 75.3341 63.382905
L 76.85001 9.89956
L 77.607965 36.727538
L 78.36592 37.983492
L 79.123875 57.794864
L 79.88183 116.861898
L 80.639785 138.0553
L 81.39774 129.401419
L 82.155695 131.209524
L 82.91365 90.652663
L 83.671605 32.47168
L 84.42956 53.788686
L 85.187515 49.258601
L 85.94547 46.446009
L 86.703425 83.036066
L 87.46138 111.033008
L 88.219335 111.753989
L 88.97729 122.647748
L 89.735245 96.077579
L 90.4932 83.029319
L 91.251155 49.048285
L 92.00911 55.757936
L 92.767065 30.946237
L 93.52502 36.153816
L 94.282975 78.100488
L 95.798885 117.0721
L 96.55684 132.664474
L 98.07275 64.964099
L 98.830705 65.891165
L 99.58866 60.75685
L 100.346615 101.073097
L 101.10457 71.963801
L 101.862525 66.822894
L 102.62048 71.919302
L 103.378435 72.438485
L 104.13639 81.693354
L 104.894345 74.192742
L 105.6523 64.498264
L 106.410255 75.564946
L 107.16821 83.055094
L 107.926165 58.665308
L 108.68412 75.992726
L 109.442075 76.414237
L 110.20003 73.762247
L 110.957985 86.08312
L 111.71594 86.682777
L 112.473895 90.646424
L 113.23185 84.791128
L 113.989805 84.83794
L 114.74776 79.794036
L 115.505715 80.968076
L 116.26367 63.702035
L 117.021625 83.90576
L 117.77958 73.168211
L 118.537535 77.553101
L 119.29549 116.524
L 120.053445 93.285796
L 120.8114 77.12422
L 121.569355 65.354753
L 122.32731 106.245143
L 123.085265 66.160667
L 123.84322 75.236205
L 124.601175 77.608025
L 125.35913 72.580526
L 126.117085 76.866788
L 126.87504 87.833887
L 127.632995 75.92086
L 128.39095 87.507129
L 129.148905 76.935296
L 129.90686 75.195448
L 130.664815 100.832873
L 131.42277 79.028573
L 132.180725 82.103131
L 132.93868 71.667885
L 133.696635 66.872998
L 134.45459 85.560591
L 135.212545 66.412354
L 135.9705 71.260318
L 136.728455 73.442389
L 137.48641 67.982545
L 138.244365 79.45171
L 139.00232 72.825138
L 139.760275 72.264405
L 140.51823 71.198375
L 141.276185 87.208277
L 142.03414 74.01448
L 142.792095 68.289463
L 143.55005 80.412548
L 144.308005 78.368811
L 145.06596 77.400521
L 145.823915 91.94704
L 146.58187 64.229776
L 147.339825 67.262011
L 148.09778 90.295814
L 148.855735 67.015675
L 149.61369 78.904031
L 150.371645 78.678927
L 151.1296 86.035071
L 151.887555 66.22556
L 152.64551 96.407172
L 153.403465 86.911067
L 154.16142 66.13427
L 154.919375 88.865094
L 155.67733 92.848641
L 156.435285 59.610916
L 157.19324 82.421963
L 157.951195 64.396619
L 158.70915 64.666227
L 159.467105 76.127774
L 160.22506 61.580364
L 160.983015 78.297941
L 161.74097 61.838824
L 162.498925 85.44289
L 163.25688 86.127295
L 164.014835 63.631498
L 164.77279 83.737608
L 165.530745 67.75561
L 166.2887 94.202849
L 167.046655 82.695574
L 167.80461 88.942086
L 168.562565 79.400763
L 169.32052 89.214161
L 170.078475 73.345938
L 170.83643 66.74167
L 171.594385 75.45946
L 172.35234 78.684854
L 173.110295 57.781069
L 173.86825 66.346087
L 174.626205 77.258132
L 175.38416 86.410317
L 176.142115 92.423204
L 176.90007 56.618341
L 177.658025 83.271862
L 178.41598 91.507702
L 179.173935 88.677742
L 179.93189 61.027271
L 180.689845 71.46225
L 181.4478 79.058267
L 182.205755 90.191058
L 182.96371 87.481032
L 183.721665 79.692581
L 184.47962 96.998652
L 185.237575 72.302306
L 185.99553 57.034346
L 186.753485 52.159771
L 187.51144 83.0089
L 188.269395 60.066222
L 189.785305 100.257692
L 190.54326 83.701017
L 191.301215 73.844283
L 192.05917 37.516921
L 192.817125 57.475763
L 193.57508 98.500465
L 194.333035 71.972703
L 195.09099 76.002574
L 195.848945 87.18453
L 196.6069 87.835492
L 197.364855 67.061431
L 198.12281 80.10574
L 198.880765 87.67678
L 199.63872 85.291794
L 200.396675 68.263729
L 201.15463 97.573156
L 201.912585 68.802026
L 202.67054 56.987597
L 203.428495 75.293458
L 204.18645 63.47146
L 204.944405 73.85469
L 206.460315 55.194908
L 207.21827 95.375071
L 207.976225 82.694408
L 208.73418 51.768924
L 209.492135 82.400414
L 210.25009 65.145733
L 211.008045 98.689996
L 211.766 73.481773
L 212.523955 81.863717
L 213.28191 88.314291
L 214.039865 96.284198
L 214.79782 84.899032
L 215.555775 68.385447
L 216.31373 66.585337
L 217.071685 75.580804
L 217.82964 78.742232
L 218.587595 77.194704
L 219.34555 82.568193
L 220.103505 62.464229
L 220.86146 81.921315
L 221.619415 70.875649
L 222.37737 68.381121
L 223.135325 61.724012
L 224.651235 82.206231
L 225.40919 76.734911
L 226.167145 64.257107
L 226.9251 90.491886
L 227.683055 76.545863
L 228.44101 59.782918
L 229.95692 70.079028
L 230.714875 55.803404
L 231.47283 70.741654
L 232.230785 88.520342
L 232.98874 62.23388
L 233.746695 60.963058
L 234.50465 94.599424
L 235.262605 89.053471
L 236.02056 72.411211
L 236.778515 82.635291
L 237.53647 99.240615
L 238.294425 74.629734
L 239.05238 74.446776
L 239.810335 66.338598
L 240.56829 97.280453
L 241.326245 69.611302
L 242.0842 68.429409
L 242.842155 87.070894
L 243.60011 65.24332
L 244.358065 86.599792
L 245.11602 76.249516
L 245.873975 73.583188
L 246.63193 67.077701
L 248.14784 82.532573
L 248.905795 70.297889
L 249.66375 81.987637
L 250.421705 40.927805
L 251.17966 86.182266
L 251.937615 69.067334
L 252.69557 78.013078
L 253.453525 75.624706
L 254.21148 69.634906
L 254.969435 55.746648
L 255.72739 92.443732
L 256.485345 77.216474
L 257.2433 73.415341
L 258.001255 53.365097
L 258.75921 64.045559
L 259.517165 93.880459
L 260.27512 99.261503
L 261.033075 72.029852
L 261.79103 75.229955
L 262.548985 68.134954
L 263.30694 76.354148
L 264.064895 96.558069
L 264.82285 80.416841
L 265.580805 70.789318
L 266.33876 62.580545
L 267.096715 58.575507
L 267.85467 107.287709
L 268.612625 85.39703
L 269.37058 79.321721
L 270.128535 87.326847
L 270.88649 80.478924
L 271.644445 82.581562
L 273.160355 73.255874
L 273.91831 61.994524
L 274.676265 95.681841
L 275.43422 80.91641
L 276.192175 56.714344
L 276.95013 70.833165
L 277.708085 61.282684
L 278.46604 67.747113
L 279.223995 88.341026
L 279.98195 91.009253
L 280.739905 63.843767
L 281.49786 84.331074
L 282.255815 84.40284
L 283.771725 60.838016
L 284.52968 61.412058
L 285.287635 72.896391
L 286.04559 105.321211
L 286.803545 93.55227
L 287.5615 56.868671
L 288.319455 91.840207
L 289.07741 82.510626
L 289.835365 61.89739
L 290.59332 67.753371
L 291.351275 85.601695
L 292.10923 71.479288
L 292.867185 75.453826
L 293.62514 88.365134
L 294.383095 85.743813
L 295.899005 73.195764
L 296.65696 72.374908
L 297.414915 82.650775
L 298.17287 61.115568
L 298.930825 54.498502
L 299.68878 73.242713
L 300.446735 49.705973
L 301.20469 96.351642
L 301.962645 82.971732
L 302.7206 87.127102
L 303.478555 70.160343
L 304.23651 85.694695
L 304.994465 66.976829
L 305.75242 100.91002
L 306.510375 73.285885
L 307.26833 61.269773
L 308.026285 58.54071
L 308.78424 79.749494
L 309.542195 80.324587
L 310.30015 67.318406
L 311.058105 66.885949
L 311.81606 91.931131
L 312.574015 83.438323
L 313.33197 81.466175
L 314.089925 71.677629
L 314.84788 80.422731
L 315.605835 93.594497
L 316.36379 77.260759
L 317.121745 91.720383
L 317.8797 83.180919
L 318.637655 63.414424
L 319.39561 84.529572
L 320.153565 61.207615
L 320.91152 82.271691
L 321.669475 68.021311
L 322.42743 83.173383
L 323.185385 52.953852
L 323.94334 90.129536
L 324.701295 80.538905
L 325.45925 62.133387
L 326.217205 60.877052
L 326.97516 78.2622
L 327.733115 56.517318
L 328.49107 66.746186
L 329.249025 90.408242
L 330.00698 85.000529
L 330.764935 72.207637
L 331.52289 72.55981
L 332.280845 68.120027
L 333.0388 75.100146
L 333.796755 78.47718
L 334.55471 84.559801
L 335.312665 70.503401
L 336.07062 86.721941
L 336.828575 79.269982
L 337.58653 73.115553
L 338.344485 65.955115
L 339.10244 67.293465
L 339.860395 61.642972
L 340.61835 74.949043
L 341.376305 68.877811
L 342.13426 66.571854
L 342.892215 78.014516
L 343.65017 101.583027
L 344.408125 71.194085
L 345.16608 95.022791
L 345.924035 74.071532
L 346.68199 91.077095
L 347.439945 65.792597
L 348.1979 88.409498
L 348.955855 64.423019
L 349.71381 75.10485
L 350.471765 88.812704
L 351.22972 86.513366
L 351.987675 82.174711
L 352.74563 79.563371
L 353.503585 87.208191
L 354.26154 75.685494
L 355.019495 93.824227
L 355.77745 60.453442
L 356.535405 71.748458
L 357.29336 73.395958
L 358.051315 88.01084
L 358.80927 91.897345
L 359.567225 89.613487
L 360.32518 76.475674
L 361.083135 87.930768
L 361.84109 71.822363
L 362.599045 74.21231
L 363.357 76.042645
L 364.114955 87.62884
L 364.87291 58.135247
L 365.630865 70.988994
L 366.38882 73.095233
L 367.146775 65.787766
L 367.90473 53.906494
L 368.662685 65.591072
L 369.42064 81.611228
L 370.178595 79.997656
L 370.93655 62.875584
L 371.694505 93.783796
L 373.210415 46.415718
L 373.96837 83.074172
L 374.726325 70.662333
L 375.48428 69.16707
L 376.242235 73.529071
L 377.00019 82.800841
L 377.758145 84.530754
L 378.5161 84.844777
L 379.274055 82.685257
L 380.789965 63.937767
L 381.54792 94.95053
L 382.305875 92.297266
L 383.06383 46.325209
L 383.821785 101.26211
L 384.57974 67.936902
L 385.337695 72.205064
L 386.09565 82.257481
L 386.853605 72.578421
L 387.61156 87.570542
L 388.369515 80.459682
L 389.12747 64.330848
L 389.885425 75.689924
L 390.64338 78.589213
L 391.401335 70.529961
L 392.15929 77.549931
L 392.917245 74.703923
L 393.6752 76.417569
L 394.433155 88.606432
L 395.19111 82.864622
L 395.949065 70.790082
L 396.70702 67.045186
L 397.464975 78.69399
L 398.22293 93.668544
L 398.980885 93.097378
L 399.73884 60.379733
L 400.496795 67.042071
L 401.25475 68.725291
L 402.012705 78.116632
L 402.77066 80.756365
L 403.528615 65.370287
L 404.28657 87.298967
L 405.044525 81.577402
L 405.80248 102.448441
L 406.560435 85.841835
L 407.31839 100.766166
L 408.076345 79.889638
L 408.8343 88.774307
L 409.592255 73.194747
L 410.35021 74.426926
L 411.108165 89.228081
L 411.86612 71.776005
L 412.624075 74.092356
L 414.139985 96.645747
L 414.89794 86.719685
L 415.655895 71.978514
L 416.41385 75.152879
L 417.171805 82.62308
L 417.92976 61.675042
L 418.687715 84.838525
L 419.44567 87.884973
L 420.203625 69.526986
L 420.96158 90.178559
L 421.719535 84.536414
L 422.47749 71.942193
L 423.235445 73.654986
L 423.9934 69.53795
L 425.50931 74.822991
L 426.267265 65.696381
L 427.02522 83.033253
L 427.783175 71.255655
L 428.54113 94.889894
L 429.299085 59.352474
L 430.05704 85.614129
L 430.814995 74.23569
L 431.57295 89.767824
L 432.330905 89.453382
L 433.08886 81.085247
L 433.846815 54.264893
L 434.60477 61.373091
L 435.362725 88.815244
L 436.12068 69.415933
L 436.878635 101.859816
L 437.63659 66.740707
L 438.394545 68.923523
L 439.1525 95.395686
L 439.910455 84.702664
L 440.66841 62.594366
L 441.426365 94.841449
L 442.18432 64.377481
L 442.942275 78.482966
L 443.70023 83.589793
L 444.458185 80.262977
L 445.21614 59.46203
L 445.974095 78.837678
L 446.73205 79.535492
L 448.24796 96.254227
L 449.005915 82.547358
L 449.76387 72.647557
L 450.521825 91.777245
L 451.27978 94.752663
L 452.037735 65.013015
L 452.79569 94.408358
L 453.553645 79.279511
L 454.3116 104.645106
L 455.069555 81.005998
L 455.82751 65.849633
L 456.585465 56.315624
L 457.34342 69.250188
L 458.101375 69.603319
L 458.85933 88.180512
L 459.617285 62.337229
L 460.37524 85.909812
L 461.133195 87.512411
L 461.89115 59.607356
L 462.649105 84.846466
L 463.40706 87.206066
L 464.165015 65.059417
L 464.92297 88.308081
L 465.680925 88.504467
L 466.43888 65.90886
L 467.196835 99.054519
L 467.95479 77.924514
L 468.712745 74.974911
L 469.4707 66.027353
L 470.228655 62.688118
L 470.98661 75.866162
L 471.744565 74.125449
L 472.50252 92.647531
L 473.260475 65.455977
L 474.01843 76.318482
L 474.776385 90.277891
L 475.53434 85.37949
L 476.292295 88.409482
L 477.05025 72.779589
L 477.808205 68.47592
L 478.56616 84.948666
L 479.324115 82.810156
L 480.08207 60.973996
L 481.59798 88.328694
L 482.355935 84.458825
L 483.11389 68.747492
L 483.871845 75.858623
L 484.6298 61.587389
L 485.387755 63.991751
L 486.903665 84.861182
L 487.66162 80.253013
L 488.419575 63.408047
L 489.17753 87.869576
L 489.935485 82.118288
L 490.69344 83.18885
L 491.451395 76.087007
L 492.20935 88.127568
L 492.967305 68.051319
L 493.72526 73.085679
L 494.483215 57.432439
L 495.24117 79.928982
L 495.999125 70.41633
L 496.75708 76.984618
L 497.515035 85.514512
L 499.030945 73.973114
L 499.7889 79.348432
L 500.546855 81.661037
L 501.30481 79.234168
L 502.062765 63.657586
L 502.82072 95.692985
L 503.578675 56.059178
L 504.33663 94.773611
L 505.094585 85.395658
L 505.85254 70.210561
L 506.610495 72.608598
L 507.36845 99.343523
L 508.126405 87.014342
L 508.88436 71.453284
L 509.642315 66.807188
L 510.40027 89.293638
L 511.158225 82.64726
L 511.91618 48.920313
L 513.43209 77.838567
L 514.190045 79.922656
L 514.948 84.796362
L 515.705955 78.69816
L 516.46391 61.383467
L 517.221865 93.577373
L 517.97982 67.310267
L 518.737775 80.999404
L 519.49573 67.381041
L 520.253685 50.515584
L 521.01164 87.515071
L 521.769595 98.218999
L 522.52755 103.094466
L 523.285505 88.907831
L 524.04346 57.932405
L 525.55937 78.000476
L 526.317325 48.326783
L 527.07528 43.184779
L 527.833235 92.05814
L 528.59119 92.705727
L 529.349145 73.88081
L 530.1071 71.991841
L 530.865055 65.962569
L 531.62301 86.64487
L 532.380965 89.774545
L 533.13892 79.857012
L 533.896875 78.362525
L 534.65483 74.664163
L 535.412785 88.917055
L 536.17074 78.933123
L 536.928695 87.309916
L 537.68665 72.437995
L 538.444605 61.531707
L 539.20256 66.583158
L 539.960515 80.99792
L 540.71847 87.068954
L 541.476425 85.128866
L 542.23438 88.361654
L 542.992335 75.601848
L 543.75029 64.760528
L 544.508245 57.744602
L 545.2662 66.909584
L 546.024155 61.795381
L 546.78211 80.813032
L 547.540065 82.316106
L 548.29802 91.267668
L 549.055975 65.025203
L 550.571885 103.262083
L 551.32984 97.35118
L 552.087795 73.305513
L 552.84575 65.342264
L 553.603705 68.795772
L 554.36166 58.271412
L 555.119615 80.917036
L 555.87757 64.32869
L 556.635525 64.937616
L 557.39348 67.405076
L 558.151435 64.84614
L 558.90939 91.37365
L 559.667345 81.288939
L 560.4253 57.066646
L 561.183255 79.022818
L 561.94121 93.710443
L 562.699165 64.039014
L 563.45712 64.791495
L 564.215075 63.98651
L 564.97303 76.917844
L 565.730985 73.468769
L 566.48894 88.40401
L 567.246895 65.231677
L 568.00485 68.080621
L 568.762805 69.921554
L 569.52076 93.897573
L 570.278715 64.6553
L 571.03667 79.429353
L 571.794625 47.816957
L 572.55258 71.526755
L 573.310535 61.324299
L 574.06849 90.256481
L 574.826445 76.573653
L 577.10031 58.469781
L 577.858265 77.236547
L 578.61622 92.323188
L 579.374175 114.502982
L 580.13213 77.394986
L 580.890085 82.018905
L 581.64804 79.636016
L 582.405995 59.58533
L 583.16395 65.178505
L 583.921905 74.873464
L 584.67986 70.818549
L 585.437815 75.791158
L 586.19577 56.763212
L 586.953725 68.40672
L 587.71168 86.714217
L 588.469635 57.827125
L 589.22759 92.21098
L 589.985545 72.150877
L 590.7435 78.177516
L 591.501455 55.227505
L 592.25941 80.709147
L 593.017365 85.249438
L 593.77532 48.340466
L 594.533275 93.312075
L 596.049185 79.420291
L 596.80714 79.19481
L 597.565095 74.964703
L 598.32305 57.394363
L 599.081005 80.37152
L 599.83896 95.967032
L 600.596915 56.09512
L 601.35487 70.131625
L 602.112825 59.455512
L 602.87078 64.275836
L 603.628735 62.275221
L 604.38669 85.081605
L 605.144645 70.877138
L 605.9026 76.261433
L 606.660555 80.287137
L 607.41851 74.624112
L 608.176465 62.267017
L 608.93442 73.837485
L 609.692375 72.126682
L 610.45033 82.629816
L 611.208285 90.163784
L 611.96624 85.268728
L 612.724195 87.59364
L 613.48215 82.085495
L 614.99806 74.053961
L 615.756015 70.398114
L 616.51397 73.936422
L 617.271925 73.493402
L 618.02988 63.893736
L 618.787835 88.396948
L 619.54579 78.322064
L 620.303745 63.193382
L 621.0617 89.251242
L 621.819655 87.332029
L 622.57761 66.829579
L 623.335565 80.392482
L 624.09352 87.200904
L 624.851475 82.469809
L 625.60943 57.941884
L 626.367385 94.80694
L 627.12534 68.768476
L 627.883295 77.212587
L 628.64125 79.968434
L 629.399205 76.87045
L 630.15716 63.826938
L 630.915115 63.271551
L 631.67307 82.003877
L 632.431025 81.814463
L 633.18898 77.646941
L 633.946935 57.019114
L 634.70489 82.802641
L 635.462845 69.94416
L 636.2208 90.593074
L 636.978755 77.204718
L 637.73671 47.915156
L 638.494665 100.070129
L 639.25262 85.950358
L 640.010575 65.75814
L 640.76853 67.588718
L 641.526485 51.430082
L 642.28444 79.769724
L 643.042395 87.584755
L 643.80035 71.831373
L 644.558305 64.543428
L 645.31626 65.165867
L 646.074215 78.358226
L 646.83217 81.243809
L 647.590125 71.278312
L 648.34808 82.613506
L 649.106035 77.104584
L 649.86399 68.944073
L 650.621945 57.204458
L 651.3799 93.068636
L 652.137855 89.618773
L 652.89581 68.672672
L 653.653765 67.340464
L 654.41172 93.246396
L 655.169675 86.690382
L 655.92763 78.651424
L 656.685585 81.347937
L 657.44354 88.394214
L 658.201495 85.997276
L 658.95945 58.201697
L 659.717405 58.072538
L 660.47536 82.200179
L 661.233315 79.23659
L 661.99127 79.634876
L 662.749225 78.164867
L 663.50718 83.044453
L 664.265135 82.33006
L 665.02309 64.422562
L 665.781045 73.961085
L 666.539 73.818534
L 667.296955 48.84739
L 668.05491 106.837479
L 668.812865 84.584994
L 669.57082 70.353738
L 670.328775 85.815683
L 671.08673 60.154312
L 671.844685 76.069969
L 672.60264 75.971426
L 673.360595 64.251551
L 674.11855 57.075333
L 674.876505 71.916185
L 675.63446 83.698331
L 676.392415 87.449225
L 677.15037 83.21005
L 677.908325 101.965527
L 678.66628 85.483248
L 679.424235 96.77318
L 680.18219 70.73704
L 680.940145 84.534344
L 681.6981 70.785309
L 682.456055 80.637669
L 683.21401 72.854166
L 683.971965 70.996577
L 684.72992 59.430533
L 685.487875 50.396607
L 686.24583 72.497333
L 687.003785 101.359042
L 687.76174 59.731817
L 688.519695 79.357159
L 689.27765 78.86523
L 690.035605 57.269214
L 690.79356 67.768042
L 691.551515 55.572495
L 692.30947 70.053679
L 693.067425 62.392222
L 693.82538 80.768994
L 694.583335 90.646508
L 695.34129 79.31158
L 696.099245 45.339324
L 696.8572 73.648354
L 697.615155 97.354614
L 698.37311 106.232719
L 699.131065 73.863888
L 699.88902 80.767919
L 700.646975 70.553032
L 701.40493 65.816295
L 702.162885 86.001274
L 702.92084 99.063417
L 703.678795 83.602872
L 704.43675 74.02978
L 705.194705 67.290403
L 705.95266 86.472606
L 706.710615 72.382321
L 707.46857 84.883732
L 708.226525 64.330654
L 708.98448 80.19464
L 710.50039 70.395125
L 711.258345 79.0998
L 712.0163 80.562509
L 712.774255 58.290325
L 713.53221 70.450448
L 714.290165 73.539008
L 715.04812 94.916307
L 715.806075 59.83138
L 716.56403 94.680578
L 717.321985 65.465755
L 718.07994 66.960002
L 719.59585 85.78603
L 720.353805 87.687526
L 721.11176 78.208919
L 721.869715 56.79038
L 722.62767 74.228133
L 723.385625 79.705441
L 724.14358 60.884038
L 724.901535 63.65255
L 725.65949 99.972366
L 726.417445 87.718581
L 727.1754 71.720577
L 727.933355 82.112078
L 728.69131 100.454358
L 729.449265 61.017273
L 730.20722 74.611469
L 730.965175 82.794069
L 731.72313 73.907524
L 732.481085 76.919268
L 733.23904 65.283504
L 733.996995 77.61999
L 734.75495 67.146462
L 735.512905 78.004495
L 736.27086 69.366553
L 737.028815 63.02373
L 737.78677 83.369141
L 738.544725 71.886245
L 739.30268 71.886659
L 740.060635 78.214526
L 740.81859 73.258766
L 741.576545 108.778389
L 742.3345 72.727002
L 743.092455 74.829988
L 743.85041 73.25307
L 744.608365 49.974366
L 745.36632 62.657173
L 746.124275 90.185937
L 746.88223 74.503959
L 747.640185 78.975803
L 748.39814 71.23492
L 749.156095 87.01203
L 749.91405 82.109542
L 750.672005 51.982414
L 751.42996 94.518769
L 752.187915 67.080559
L 752.94587 92.449929
L 753.703825 90.188242
L 754.46178 72.530396
L 755.219735 91.57146
L 755.97769 88.183319
L 756.735645 78.22486
L 757.4936 93.43371
L 758.251555 71.586127
L 759.00951 78.664855
L 759.767465 74.322297
L 760.52542 75.308605
L 761.283375 81.883106
L 762.04133 91.914345
L 762.799285 90.659478
L 763.55724 56.103886
L 764.315195 79.461529
L 765.07315 87.352873
L 765.831105 71.138547
L 766.58906 71.841969
L 767.347015 91.27214
L 768.10497 85.835272
L 768.862925 69.628684
L 769.62088 82.946923
L 770.378835 53.3852
L 771.13679 54.027896
L 771.894745 74.204097
L 772.6527 75.414754
L 773.410655 75.551282
L 774.16861 65.556685
L 774.926565 95.750832
L 775.68452 69.456844
L 776.442475 59.933345
L 777.20043 73.456724
L 777.958385 82.546555
L 778.71634 62.022703
L 779.474295 70.693916
L 780.23225 92.678656
L 780.990205 59.522756
L 781.74816 46.183113
L 782.506115 63.617538
L 783.26407 70.17377
L 784.022025 69.65335
L 784.77998 77.715728
L 785.537935 48.927179
L 786.29589 69.44405
L 787.053845 66.625263
L 787.8118 72.193509
L 788.569755 96.59412
L 789.32771 82.504851
L 790.085665 93.565499
L 790.84362 73.379995
L 791.601575 88.137494
L 792.35953 76.291884
L 793.117485 98.93196
L 793.87544 89.559374
L 794.633395 92.951681
L 795.39135 50.966099
L 796.149305 91.476269
L 796.90726 69.31959
L 798.42317 93.998214
L 799.181125 73.455421
L 799.93908 89.60255
L 800.697035 92.973562
L 801.45499 88.668946
L 802.212945 73.450329
L 802.9709 75.265294
L 803.728855 73.834042
L 804.48681 80.629307
L 805.244765 76.560525
L 806.00272 70.040119
L 806.760675 69.006058
L 807.51863 87.489564
L 808.276585 75.219476
L 809.03454 78.4168
L 809.792495 90.081228
L 810.55045 86.660904
L 811.308405 76.953603
L 812.06636 93.220778
L 812.824315 75.064576
L 813.58227 76.469667
L 814.340225 71.878064
L 815.09818 75.557214
L 815.856135 81.360854
L 816.61409 91.957117
L 817.372045 40.103138
L 817.372045 40.103138
" style="fill:none;stroke:#1f77b4;stroke-linecap:square;stroke-width:1.5;"/>
   </g>
   <g id="patch_5">
    <path d="M 60.175 138.2
L 60.175 14.8
" style="fill:none;stroke:#000000;stroke-linecap:square;stroke-linejoin:miter;stroke-width:0.8;"/>
   </g>
   <g id="patch_6">
    <path d="M 818.13 138.2
L 818.13 14.8
" style="fill:none;stroke:#000000;stroke-linecap:square;stroke-linejoin:miter;stroke-width:0.8;"/>
   </g>
   <g id="patch_7">
    <path d="M 60.175 138.2
L 818.13 138.2
" style="fill:none;stroke:#000000;stroke-linecap:square;stroke-linejoin:miter;stroke-width:0.8;"/>
   </g>
   <g id="patch_8">
    <path d="M 60.175 14.8
L 818.13 14.8
" style="fill:none;stroke:#000000;stroke-linecap:square;stroke-linejoin:miter;stroke-width:0.8;"/>
   </g>
   <g id="legend_1">
    <g id="patch_9">
     <path d="M 719.322187 52.15625
L 811.13 52.15625
Q 813.13 52.15625 813.13 50.15625
L 813.13 21.8
Q 813.13 19.8 811.13 19.8
L 719.322187 19.8
Q 717.322187 19.8 717.322187 21.8
L 717.322187 50.15625
Q 717.322187 52.15625 719.322187 52.15625
z
" style="fill:#ffffff;opacity:0.8;stroke:#cccccc;stroke-linejoin:miter;"/>
    </g>
    <g id="patch_10">
     <path d="M 721.322187 31.398438
L 741.322187 31.398438
L 741.322187 24.398438
L 721.322187 24.398438
z
" style="fill:#ff0000;opacity:0.2;"/>
    </g>
    <g id="text_14">
     <!-- Direktsignal -->
     <g transform="translate(749.322187 31.398438)scale(0.1 -0.1)">
      <defs>
       <path d="M 1259 4147
L 1259 519
L 2022 519
Q 2988 519 3436 956
Q 3884 1394 3884 2338
Q 3884 3275 3436 3711
Q 2988 4147 2022 4147
L 1259 4147
z
M 628 4666
L 1925 4666
Q 3281 4666 3915 4102
Q 4550 3538 4550 2338
Q 4550 1131 3912 565
Q 3275 0 1925 0
L 628 0
L 628 4666
z
" id="DejaVuSans-44" transform="scale(0.015625)"/>
       <path d="M 603 3500
L 1178 3500
L 1178 0
L 603 0
L 603 3500
z
M 603 4863
L 1178 4863
L 1178 4134
L 603 4134
L 603 4863
z
" id="DejaVuSans-69" transform="scale(0.015625)"/>
       <path d="M 2631 2963
Q 2534 3019 2420 3045
Q 2306 3072 2169 3072
Q 1681 3072 1420 2755
Q 1159 2438 1159 1844
L 1159 0
L 581 0
L 581 3500
L 1159 3500
L 1159 2956
Q 1341 3275 1631 3429
Q 1922 3584 2338 3584
Q 2397 3584 2469 3576
Q 2541 3569 2628 3553
L 2631 2963
z
" id="DejaVuSans-72" transform="scale(0.015625)"/>
       <path d="M 581 4863
L 1159 4863
L 1159 1991
L 2875 3500
L 3609 3500
L 1753 1863
L 3688 0
L 2938 0
L 1159 1709
L 1159 0
L 581 0
L 581 4863
z
" id="DejaVuSans-6b" transform="scale(0.015625)"/>
       <path d="M 1172 4494
L 1172 3500
L 2356 3500
L 2356 3053
L 1172 3053
L 1172 1153
Q 1172 725 1289 603
Q 1406 481 1766 481
L 2356 481
L 2356 0
L 1766 0
Q 1100 0 847 248
Q 594 497 594 1153
L 594 3053
L 172 3053
L 172 3500
L 594 3500
L 594 4494
L 1172 4494
z
" id="DejaVuSans-74" transform="scale(0.015625)"/>
       <path d="M 2906 1791
Q 2906 2416 2648 2759
Q 2391 3103 1925 3103
Q 1463 3103 1205 2759
Q 947 2416 947 1791
Q 947 1169 1205 825
Q 1463 481 1925 481
Q 2391 481 2648 825
Q 2906 1169 2906 1791
z
M 3481 434
Q 3481 -459 3084 -895
Q 2688 -1331 1869 -1331
Q 1566 -1331 1297 -1286
Q 1028 -1241 775 -1147
L 775 -588
Q 1028 -725 1275 -790
Q 1522 -856 1778 -856
Q 2344 -856 2625 -561
Q 2906 -266 2906 331
L 2906 616
Q 2728 306 2450 153
Q 2172 0 1784 0
Q 1141 0 747 490
Q 353 981 353 1791
Q 353 2603 747 3093
Q 1141 3584 1784 3584
Q 2172 3584 2450 3431
Q 2728 3278 2906 2969
L 2906 3500
L 3481 3500
L 3481 434
z
" id="DejaVuSans-67" transform="scale(0.015625)"/>
       <path d="M 3513 2113
L 3513 0
L 2938 0
L 2938 2094
Q 2938 2591 2744 2837
Q 2550 3084 2163 3084
Q 1697 3084 1428 2787
Q 1159 2491 1159 1978
L 1159 0
L 581 0
L 581 3500
L 1159 3500
L 1159 2956
Q 1366 3272 1645 3428
Q 1925 3584 2291 3584
Q 2894 3584 3203 3211
Q 3513 2838 3513 2113
z
" id="DejaVuSans-6e" transform="scale(0.015625)"/>
      </defs>
      <use xlink:href="#DejaVuSans-44"/>
      <use x="77.001953" xlink:href="#DejaVuSans-69"/>
      <use x="104.785156" xlink:href="#DejaVuSans-72"/>
      <use x="143.648438" xlink:href="#DejaVuSans-65"/>
      <use x="205.171875" xlink:href="#DejaVuSans-6b"/>
      <use x="263.082031" xlink:href="#DejaVuSans-74"/>
      <use x="302.291016" xlink:href="#DejaVuSans-73"/>
      <use x="354.390625" xlink:href="#DejaVuSans-69"/>
      <use x="382.173828" xlink:href="#DejaVuSans-67"/>
      <use x="445.650391" xlink:href="#DejaVuSans-6e"/>
      <use x="509.029297" xlink:href="#DejaVuSans-61"/>
      <use x="570.308594" xlink:href="#DejaVuSans-6c"/>
     </g>
    </g>
    <g id="patch_11">
     <path d="M 721.322187 46.076562
L 741.322187 46.076562
L 741.322187 39.076562
L 721.322187 39.076562
z
" style="fill:#0000ff;opacity:0.2;"/>
    </g>
    <g id="text_15">
     <!-- Zielecho -->
     <g transform="translate(749.322187 46.076562)scale(0.1 -0.1)">
      <defs>
       <path d="M 359 4666
L 4025 4666
L 4025 4184
L 1075 531
L 4097 531
L 4097 0
L 288 0
L 288 481
L 3238 4134
L 359 4134
L 359 4666
z
" id="DejaVuSans-5a" transform="scale(0.015625)"/>
       <path d="M 3122 3366
L 3122 2828
Q 2878 2963 2633 3030
Q 2388 3097 2138 3097
Q 1578 3097 1268 2742
Q 959 2388 959 1747
Q 959 1106 1268 751
Q 1578 397 2138 397
Q 2388 397 2633 464
Q 2878 531 3122 666
L 3122 134
Q 2881 22 2623 -34
Q 2366 -91 2075 -91
Q 1284 -91 818 406
Q 353 903 353 1747
Q 353 2603 823 3093
Q 1294 3584 2113 3584
Q 2378 3584 2631 3529
Q 2884 3475 3122 3366
z
" id="DejaVuSans-63" transform="scale(0.015625)"/>
       <path d="M 3513 2113
L 3513 0
L 2938 0
L 2938 2094
Q 2938 2591 2744 2837
Q 2550 3084 2163 3084
Q 1697 3084 1428 2787
Q 1159 2491 1159 1978
L 1159 0
L 581 0
L 581 4863
L 1159 4863
L 1159 2956
Q 1366 3272 1645 3428
Q 1925 3584 2291 3584
Q 2894 3584 3203 3211
Q 3513 2838 3513 2113
z
" id="DejaVuSans-68" transform="scale(0.015625)"/>
       <path d="M 1959 3097
Q 1497 3097 1228 2736
Q 959 2375 959 1747
Q 959 1119 1226 758
Q 1494 397 1959 397
Q 2419 397 2687 759
Q 2956 1122 2956 1747
Q 2956 2369 2687 2733
Q 2419 3097 1959 3097
z
M 1959 3584
Q 2709 3584 3137 3096
Q 3566 2609 3566 1747
Q 3566 888 3137 398
Q 2709 -91 1959 -91
Q 1206 -91 779 398
Q 353 888 353 1747
Q 353 2609 779 3096
Q 1206 3584 1959 3584
z
" id="DejaVuSans-6f" transform="scale(0.015625)"/>
      </defs>
      <use xlink:href="#DejaVuSans-5a"/>
      <use x="68.505859" xlink:href="#DejaVuSans-69"/>
      <use x="96.289062" xlink:href="#DejaVuSans-65"/>
      <use x="157.8125" xlink:href="#DejaVuSans-6c"/>
      <use x="185.595703" xlink:href="#DejaVuSans-65"/>
      <use x="247.119141" xlink:href="#DejaVuSans-63"/>
      <use x="302.099609" xlink:href="#DejaVuSans-68"/>
      <use x="365.478516" xlink:href="#DejaVuSans-6f"/>
     </g>
    </g>
   </g>
  </g>
 </g>
 <defs>
  <clipPath id="p9f61c4e6b0">
   <rect height="123.4" width="757.955" x="60.175" y="14.8"/>
  </clipPath>
 </defs>
</svg>
